<svg width="179" height="56" viewBox="0 0 179 56" fill="none" xmlns="http://www.w3.org/2000/svg">
<path d="M86.7031 12.3198V31.3598C86.7031 43.3998 77.4735 47.3198 73.2781 48.4398C72.1594 48.7198 70.4813 48.1598 69.9219 46.4798C69.6422 45.0798 70.4813 43.6798 71.8797 43.1198C76.075 41.9998 81.1094 38.9198 81.1094 31.3598V12.3198C81.1094 10.9198 82.2281 9.51985 83.9063 9.51985C85.3047 9.51985 86.7031 10.6398 86.7031 12.3198ZM39.9953 35.5598C41.1141 37.7998 38.8766 40.8798 36.0797 39.1998C36.0797 39.1998 25.4516 32.1998 17.6203 29.1198L12.8656 38.0798C12.586 38.9198 10.6281 40.3198 8.95002 39.1998C-4.1953 31.6398 -1.67811 16.7998 14.8235 21.8398L21.536 8.95985C22.9344 6.71985 25.7313 7.27985 26.5703 8.95985L39.9953 35.5598ZM12.3063 27.1598C1.67814 24.0798 7.27189 31.3598 9.50939 32.7598L12.3063 27.1598ZM30.486 29.1198L23.7735 16.5198L20.1375 24.0798C22.6547 24.9198 28.2485 27.9998 30.486 29.1198ZM72.4391 24.3598C72.4391 32.7598 65.7266 39.4798 57.336 39.4798H48.386C46.7078 39.4798 45.5891 38.0798 45.5891 36.6798V12.3198C45.5891 10.6398 46.9875 9.51985 48.386 9.51985H57.336C65.7266 9.51985 72.4391 16.2398 72.4391 24.3598ZM66.8453 24.3598C66.8453 19.3198 62.65 15.1198 57.6156 15.1198H51.4625V33.8798H57.6156C62.65 33.8798 66.8453 29.6798 66.8453 24.3598ZM116.07 12.3198V26.3198C116.07 30.7998 112.994 33.8798 108.519 33.8798C104.044 33.8798 100.967 30.7998 100.967 26.3198V12.3198C100.967 8.67985 95.3734 8.67985 95.3734 12.3198V26.3198C95.3734 33.8798 100.967 39.4798 108.519 39.4798C116.07 39.4798 121.664 33.8798 121.664 26.3198V12.3198C121.664 8.67985 116.07 8.67985 116.07 12.3198ZM175.923 9.51985H155.227C151.591 9.51985 151.591 15.1198 155.227 15.1198H162.778V36.6798C162.778 40.3198 168.372 40.3198 168.372 36.6798V15.1198H175.923C179.839 15.1198 179.839 9.51985 175.923 9.51985ZM132.852 16.7998C133.131 14.2798 138.166 12.8798 142.361 16.5198C145.158 18.7598 148.794 15.3998 146.277 12.3198C141.522 6.99985 127.258 7.27985 127.258 17.3598C127.258 27.9998 143.759 25.7598 142.081 31.9198C141.242 34.7198 134.809 35.8398 131.733 31.6398C129.216 27.9998 124.741 31.6398 126.978 34.7198C133.411 43.9598 147.955 40.0398 147.955 31.0798C147.955 20.7198 132.572 22.6798 132.852 16.7998Z" fill="white"/>
</svg>
