<svg width="196" height="68" viewBox="0 0 196 68" fill="none" xmlns="http://www.w3.org/2000/svg">
<path d="M34 4C26.1345 4.26233 18.687 7.60489 13.2631 13.3071C7.83908 19.0094 4.87299 26.6146 5.00417 34.4834C5.13536 42.3522 8.35331 49.8543 13.9643 55.3726C19.5754 60.8909 27.1301 63.9833 35 63.9833C42.8699 63.9833 50.4246 60.8909 56.0357 55.3726C61.6467 49.8543 64.8647 42.3522 64.9958 34.4834C65.127 26.6146 62.1609 19.0094 56.7369 13.3071C51.313 7.60489 43.8655 4.26233 36 4H34ZM76 4C68.1345 4.26233 60.687 7.60489 55.2631 13.3071C49.8391 19.0094 46.873 26.6146 47.0042 34.4834C47.1354 42.3522 50.3533 49.8543 55.9643 55.3726C61.5754 60.8909 69.1301 63.9833 77 63.9833C84.8699 63.9833 92.4246 60.8909 98.0357 55.3726C103.647 49.8543 106.865 42.3522 106.996 34.4834C107.127 26.6146 104.161 19.0094 98.737 13.3071C93.313 7.60489 85.8655 4.26233 78 4H76ZM118 4C110.134 4.26233 102.687 7.60489 97.2631 13.3071C91.8391 19.0094 88.873 26.6146 89.0042 34.4834C89.1354 42.3522 92.3533 49.8543 97.9643 55.3726C103.575 60.8909 111.13 63.9833 119 63.9833C126.87 63.9833 134.425 60.8909 140.036 55.3726C145.647 49.8543 148.865 42.3522 148.996 34.4834C149.127 26.6146 146.161 19.0094 140.737 13.3071C135.313 7.60489 127.866 4.26233 120 4H118ZM160 4C152.134 4.26233 144.687 7.60489 139.263 13.3071C133.839 19.0094 130.873 26.6146 131.004 34.4834C131.135 42.3522 134.353 49.8543 139.964 55.3726C145.575 60.8909 153.13 63.9833 161 63.9833C168.87 63.9833 176.425 60.8909 182.036 55.3726C187.647 49.8543 190.865 42.3522 190.996 34.4834C191.127 26.6146 188.161 19.0094 182.737 13.3071C177.313 7.60489 169.866 4.26233 162 4H160Z" stroke="white" stroke-width="7"/>
</svg>
