<svg width="300" height="109" viewBox="0 0 300 109" fill="none" xmlns="http://www.w3.org/2000/svg">
<g clip-path="url(#clip0_533_1190)">
<path d="M0 1.60791V55.3467H53.7398V1.60791H0ZM37.2044 38.8113H16.5312V18.1381H37.2044V38.8113Z" fill="white"/>
<path d="M70.2742 18.1421H90.9432V38.8111H70.2742V18.1421Z" fill="white"/>
<path d="M107.477 1.60791H137.418C148.408 1.60791 153.428 8.9354 153.428 15.6323C153.428 20.456 151.574 23.5674 146.598 26.4669C152.874 28.7869 156.286 32.9716 156.286 39.4273C156.286 47.1473 150.68 55.3404 137.458 55.3404H107.464L107.477 1.60791ZM123.83 43.21H134.664C138.527 43.21 140.259 40.4494 140.259 38.0104C140.259 39.1391 140.756 33.5584 135.213 33.5584H123.83V43.21ZM123.869 22.7645H132.575C136.556 22.7645 138.142 20.9112 138.142 18.1934C138.142 17.567 137.947 14.0567 133.718 14.0567H123.869V22.7645Z" fill="white"/>
<path d="M173.313 1.60791H190.624L210.341 55.2746H192.573L189.972 47.235H173.385L171.18 55.2328H153.547L173.313 1.60791ZM181.265 17.5409L176.695 35.4639H186.466L181.265 17.5409Z" fill="white"/>
<path d="M237.95 17.5691H254.459C254.464 8.4572 247.606 0 231.337 0C213.491 0 207.966 9.84899 207.966 17.0574C207.966 28.6804 222.19 31.7709 222.631 31.9087C224.756 32.578 233.585 34.9429 235.787 35.7312C237.698 36.413 239.525 37.9426 239.525 39.9859C239.525 43.1182 235.787 44.6311 232.675 44.6311C230.677 44.6311 223.963 43.9691 223.963 36.8525H206.91C206.91 46.3037 213.412 56.8804 231.655 56.8804C251.786 56.8804 255.997 44.8733 255.997 38.4876C255.997 33.2765 253.046 27.4964 246.233 24.7441C242.134 23.0892 235.341 21.639 231.929 20.6429C230.209 20.1386 224.479 18.9786 224.479 15.4819C224.479 11.0027 231.863 11.5822 230.786 11.5822C234.12 11.5822 237.95 13.4605 237.95 17.5691Z" fill="white"/>
<path d="M258.797 1.59521H300V15.7783H275.261V25.2326H297.321V38.785H275.184V55.3308H258.716L258.797 1.59521Z" fill="white"/>
<path d="M21.4437 97.8611L21.426 97.7943L16.2744 78.4336H13.0429L7.8109 97.8611H7.60417L7.58851 97.7922L3.0258 78.4336H0.0396729L5.97955 101.606H9.07948L14.4775 81.9835H14.6779L14.6957 82.0493L20.0081 101.606H23.1101L29.31 78.4336H26.3886L21.6463 97.8611H21.4437Z" fill="white"/>
<path d="M43.0221 87.7462C42.4235 86.7975 41.6165 85.9977 40.6625 85.4075C39.6873 84.7987 38.4448 84.4876 36.9653 84.4876C35.8803 84.478 34.8056 84.6986 33.8121 85.1349C32.8662 85.558 32.0186 86.1731 31.323 86.9412C30.6074 87.7438 30.0526 88.6764 29.689 89.6883C29.2899 90.8114 29.0923 91.9962 29.1053 93.1881C29.1375 94.3874 29.3282 95.5772 29.6723 96.7265C29.9766 97.7477 30.4893 98.6948 31.1779 99.508C31.8538 100.29 32.699 100.908 33.6493 101.315C34.6255 101.746 35.797 101.966 37.1261 101.966C39.017 101.966 40.6071 101.483 41.8496 100.543C43.067 99.6177 43.872 98.2321 44.251 96.4185H41.6805C41.432 97.5127 40.9235 98.3418 40.1738 98.8878C39.4242 99.4339 38.4187 99.7231 37.2263 99.7231C36.2992 99.7231 35.4848 99.5707 34.8009 99.2606C34.1493 98.9737 33.5694 98.5458 33.1032 98.0076C32.6582 97.4839 32.329 96.8718 32.1374 96.2118C31.9355 95.5177 31.8453 94.7959 31.8701 94.0735V93.9858H44.5319C44.5606 92.9345 44.4674 91.8833 44.2542 90.8535C44.0332 89.7509 43.6159 88.697 43.0221 87.7421M31.8639 91.7096L31.8701 91.6136C31.9113 90.9678 32.0573 90.3331 32.3024 89.7342C32.541 89.1639 32.8813 88.6417 33.3068 88.1931C33.7367 87.7461 34.2528 87.3909 34.8239 87.149C35.4516 86.8856 36.127 86.7547 36.8077 86.7648C37.4766 86.7573 38.1399 86.8881 38.756 87.149C39.3276 87.3938 39.8479 87.7441 40.2897 88.1816C40.7308 88.6255 41.0812 89.1511 41.3213 89.729C41.5731 90.3291 41.7228 90.9672 41.764 91.6167L41.7713 91.7128L31.8639 91.7096Z" fill="white"/>
<path d="M64.0607 99.7238C63.1753 99.7238 62.4016 99.5463 61.7637 99.1903C61.1372 98.849 60.6005 98.3642 60.1975 97.7755C59.7888 97.1622 59.4908 96.4819 59.3174 95.7656C59.1302 95.0094 59.0362 94.2331 59.0375 93.454C59.0363 92.6173 59.1245 91.7828 59.3007 90.9648C59.4604 90.2031 59.7588 89.4773 60.1808 88.8234C60.5996 88.1964 61.1656 87.6816 61.8295 87.3241C62.5186 86.9492 63.38 86.7592 64.3906 86.7592C65.5851 86.7592 66.5509 87.062 67.263 87.6634C67.9541 88.2471 68.4219 89.0782 68.6516 90.1285H71.3558C71.2684 89.2641 71.0089 88.426 70.5926 87.6634C70.2024 86.9635 69.6687 86.354 69.0264 85.8749C68.368 85.3901 67.6242 85.0338 66.8338 84.8245C65.9612 84.5927 65.0617 84.4779 64.1588 84.4831C62.8485 84.4831 61.6843 84.717 60.6987 85.1805C59.7405 85.6182 58.8954 86.2697 58.2284 87.085C57.5548 87.9269 57.0538 88.8934 56.7541 89.9291C56.4245 91.0748 56.261 92.2618 56.2686 93.454C56.2561 94.625 56.4255 95.7909 56.7708 96.9099C57.0767 97.9018 57.5839 98.8199 58.2607 99.6069C58.932 100.371 59.7716 100.968 60.7133 101.352C61.6875 101.76 62.8276 101.963 64.0962 101.963C66.2209 101.963 67.9228 101.402 69.1549 100.288C70.3671 99.1934 71.1387 97.6168 71.4519 95.6048H68.7832C68.5963 96.8922 68.1118 97.9018 67.3423 98.6202C66.5509 99.351 65.4494 99.7227 64.0607 99.7227" fill="white"/>
<path d="M79.9572 85.3876C78.8504 86.146 77.9627 87.1823 77.3835 88.3925L77.3594 88.4405H77.2686V84.877H74.8296V101.607H77.4325V94.1779C77.418 93.1934 77.5282 92.2111 77.7604 91.2544C77.9553 90.4616 78.3201 89.7206 78.8295 89.0827C79.3429 88.4644 80.0097 87.992 80.7632 87.7128C81.5327 87.4131 82.4714 87.2586 83.553 87.2471V84.4834C83.4883 84.4834 83.4257 84.4834 83.363 84.4834C82.0057 84.4834 80.8572 84.7893 79.9613 85.3907" fill="white"/>
<path d="M97.7538 87.7462C97.1554 86.7973 96.3484 85.9974 95.3942 85.4075C94.42 84.7988 93.1765 84.4876 91.697 84.4876C90.6123 84.4779 89.5379 84.6985 88.5449 85.135C87.599 85.5595 86.7517 86.176 86.0568 86.9454C85.3412 87.7466 84.7861 88.6777 84.4217 89.6883C84.0232 90.8129 83.8266 91.9992 83.8412 93.1923C83.8731 94.3915 84.0634 95.5813 84.4071 96.7307C84.7121 97.7519 85.2251 98.6989 85.9137 99.5122C86.5893 100.294 87.4341 100.912 88.3841 101.32C89.3603 101.75 90.5318 101.97 91.862 101.97C93.7518 101.97 95.342 101.488 96.5855 100.547C97.8019 99.6218 98.6079 98.2363 98.9869 96.4227H96.4122C96.1616 97.519 95.6562 98.3459 94.9087 98.892C94.1611 99.4381 93.1525 99.7273 91.9601 99.7273C91.033 99.7273 90.2186 99.5748 89.5357 99.2647C88.8839 98.9781 88.3041 98.5501 87.838 98.0118C87.393 97.4881 87.0639 96.876 86.8722 96.216C86.6694 95.5206 86.5781 94.7975 86.6018 94.0735V93.9858H99.2626C99.2927 92.9345 99.1998 91.8832 98.9859 90.8535C98.7653 89.7508 98.348 88.6968 97.7538 87.7421M86.5955 91.7096L86.6018 91.6136C86.6438 90.9678 86.7902 90.3332 87.0351 89.7342C87.2709 89.1612 87.6099 88.6363 88.0354 88.1858C88.4653 87.7388 88.9814 87.3836 89.5524 87.1417C90.1801 86.8783 90.8555 86.7475 91.5362 86.7575C92.2049 86.7499 92.8678 86.8807 93.4835 87.1417C94.054 87.387 94.5731 87.7381 95.0131 88.1764C95.4548 88.62 95.8056 89.1456 96.0457 89.7238C96.2989 90.3256 96.4503 90.9653 96.4936 91.6167L96.5009 91.7128L86.5955 91.7096Z" fill="white"/>
<path d="M116.133 99.1979C116.057 98.8919 116.019 98.4137 116.019 97.7361V89.0419C116.019 88.0824 115.835 87.2941 115.473 86.6979C115.126 86.1135 114.63 85.6321 114.035 85.303C113.41 84.9649 112.728 84.7414 112.024 84.6431C110.353 84.4019 108.629 84.4197 107.101 84.7705C106.305 84.9471 105.55 85.2708 104.874 85.7248C104.23 86.1663 103.702 86.7547 103.331 87.4413C102.959 88.1304 102.744 88.9772 102.694 89.9607H105.295C105.378 88.737 105.817 87.885 106.61 87.4361C107.402 86.9871 108.411 86.7553 109.598 86.7553C110.046 86.7561 110.493 86.7892 110.936 86.8545C111.37 86.9133 111.791 87.0494 112.177 87.2565C112.554 87.4645 112.87 87.7681 113.093 88.1367C113.33 88.5209 113.45 89.0335 113.45 89.6579C113.45 90.2029 113.286 90.63 112.961 90.9171C112.591 91.2277 112.153 91.4466 111.682 91.5561C111.082 91.7141 110.472 91.8258 109.855 91.8902C109.178 91.9612 108.45 92.0771 107.687 92.2285C106.974 92.358 106.269 92.524 105.585 92.7192C104.939 92.8983 104.33 93.1884 103.783 93.5764C103.254 93.959 102.82 94.4594 102.517 95.0382C102.199 95.6323 102.036 96.4143 102.036 97.3508C102.036 98.1861 102.183 98.9024 102.47 99.4892C102.742 100.057 103.148 100.55 103.654 100.926C104.177 101.309 104.772 101.582 105.403 101.73C106.103 101.894 106.821 101.975 107.54 101.97C108.653 101.979 109.757 101.777 110.795 101.375C111.82 100.955 112.724 100.284 113.424 99.4234L113.581 99.2302V99.4787C113.581 100.363 113.79 101.008 114.191 101.392C114.592 101.775 115.156 101.97 115.847 101.97C116.651 101.97 117.293 101.842 117.755 101.585V99.6009C117.509 99.6811 117.252 99.7247 116.993 99.7303C116.509 99.7303 116.223 99.557 116.135 99.2083M113.421 95.8233C113.41 96.2702 113.308 96.7102 113.12 97.1159C112.898 97.6008 112.578 98.0345 112.18 98.3897C111.702 98.8108 111.149 99.1381 110.55 99.3545C109.887 99.6051 109.089 99.7345 108.162 99.7345C107.744 99.736 107.326 99.6916 106.917 99.6019C106.533 99.5265 106.168 99.378 105.84 99.1644C105.534 98.9591 105.278 98.6867 105.093 98.3678C104.89 97.9984 104.79 97.5819 104.801 97.1608C104.801 96.4498 104.967 95.8734 105.295 95.4568C105.627 95.0347 106.062 94.7046 106.558 94.4984C107.109 94.2641 107.688 94.102 108.28 94.016C108.878 93.922 109.511 93.8354 110.16 93.7539C110.786 93.6777 111.38 93.5775 111.935 93.4616C112.415 93.3736 112.871 93.1838 113.272 92.9051L113.415 92.7944L113.421 95.8233Z" fill="white"/>
<path d="M143.404 87.7462C142.805 86.797 141.998 85.9971 141.043 85.4075C140.068 84.7988 138.823 84.4876 137.345 84.4876C136.26 84.4779 135.186 84.6985 134.193 85.135C133.246 85.5589 132.399 86.1755 131.704 86.9454C130.988 87.7464 130.433 88.6776 130.07 89.6883C129.672 90.8118 129.475 91.9964 129.488 93.1881C129.518 94.3875 129.708 95.5776 130.054 96.7265C130.357 97.749 130.868 98.6976 131.556 99.5122C132.234 100.293 133.078 100.911 134.027 101.32C135.004 101.75 136.176 101.97 137.507 101.97C139.397 101.97 140.984 101.488 142.226 100.547C143.441 99.6218 144.251 98.2363 144.628 96.4227H142.061C141.811 97.5169 141.303 98.3459 140.554 98.892C139.804 99.4381 138.799 99.7273 137.606 99.7273C136.681 99.7273 135.865 99.5748 135.181 99.2647C134.529 98.9779 133.949 98.5499 133.483 98.0118C133.038 97.488 132.709 96.876 132.517 96.216C132.316 95.5225 132.227 94.8013 132.253 94.0798V93.992H144.912C144.94 92.9406 144.847 91.8894 144.632 90.8597C144.411 89.7577 143.995 88.7039 143.403 87.7483M132.303 91.7159L132.309 91.6199C132.348 90.9736 132.494 90.3383 132.743 89.7405C132.975 89.1666 133.314 88.6415 133.74 88.1921C134.17 87.7452 134.687 87.39 135.258 87.148C135.886 86.8847 136.561 86.7539 137.242 86.7637C138.204 86.7501 139.148 87.0253 139.953 87.5536C140.758 88.082 141.385 88.8393 141.755 89.7279C142.01 90.3293 142.162 90.9692 142.205 91.6209L142.212 91.717L132.303 91.7159Z" fill="white"/>
<path d="M164.478 99.7238C163.595 99.7238 162.821 99.5463 162.181 99.1903C161.555 98.8486 161.018 98.3639 160.615 97.7755C160.205 97.1623 159.907 96.482 159.733 95.7656C159.547 95.009 159.454 94.2329 159.455 93.454C159.453 92.6171 159.541 91.7825 159.719 90.9648C159.877 90.2042 160.175 89.4793 160.596 88.8265C161.016 88.1988 161.582 87.6831 162.247 87.3241C162.933 86.9492 163.795 86.7592 164.81 86.7592C166 86.7592 166.968 87.062 167.679 87.6634C168.376 88.247 168.841 89.0781 169.068 90.1285H171.774C171.686 89.2632 171.427 88.4241 171.011 87.6603C170.62 86.962 170.086 86.3537 169.445 85.8748C168.785 85.3917 168.042 85.0355 167.252 84.8245C166.379 84.5928 165.479 84.478 164.576 84.4831C163.267 84.4831 162.101 84.7169 161.117 85.1805C160.159 85.6171 159.314 86.2688 158.648 87.085C157.973 87.9262 157.472 88.8929 157.173 89.9291C156.845 91.0749 156.681 92.2619 156.688 93.454C156.676 94.6249 156.845 95.7906 157.189 96.9099C157.495 97.9005 158 98.8182 158.673 99.6068C159.346 100.369 160.185 100.966 161.126 101.352C162.105 101.76 163.243 101.963 164.507 101.963C166.638 101.963 168.339 101.402 169.571 100.288C170.778 99.1965 171.555 97.6199 171.868 95.6048H169.207C169.022 96.8922 168.54 97.9018 167.765 98.6202C166.98 99.351 165.875 99.7227 164.483 99.7227" fill="white"/>
<path d="M187.918 86.1892C187.442 85.6334 186.836 85.2031 186.155 84.9362C185.424 84.6366 184.503 84.4831 183.409 84.4831C182.892 84.4865 182.377 84.5414 181.871 84.647C181.348 84.7529 180.839 84.9208 180.356 85.1472C179.88 85.368 179.441 85.6606 179.055 86.0148C178.674 86.3625 178.28 86.7979 178.068 87.3074L178.047 87.3627H177.922V78.4336H175.32V101.606H177.922V92.1478C177.914 91.4228 178.02 90.7009 178.235 90.0085C178.434 89.3794 178.756 88.7964 179.184 88.2941C179.619 87.7985 180.161 87.4092 180.769 87.156C181.401 86.8918 182.156 86.7592 183.013 86.7592C184.099 86.7592 184.97 87.0725 185.595 87.6989C186.22 88.3254 186.535 89.1784 186.535 90.2476V101.606H189.145V90.5796C189.152 89.7436 189.059 88.9098 188.869 88.0957C188.706 87.3951 188.381 86.7423 187.921 86.1892" fill="white"/>
<path d="M206.591 87.746C205.994 86.7949 205.186 85.9933 204.231 85.4031C203.257 84.7944 202.012 84.4832 200.533 84.4832C199.448 84.4734 198.373 84.694 197.38 85.1306C196.434 85.5553 195.586 86.1718 194.891 86.941C194.176 87.7445 193.622 88.6768 193.257 89.6881C192.858 90.8113 192.661 91.9961 192.675 93.1879C192.706 94.3872 192.896 95.5771 193.24 96.7263C193.545 97.7475 194.059 98.6945 194.748 99.5078C195.423 100.289 196.268 100.907 197.217 101.315C198.193 101.745 199.367 101.966 200.696 101.966C202.586 101.966 204.171 101.483 205.416 100.543C206.631 99.6174 207.44 98.234 207.818 96.4183H205.253C205.004 97.5125 204.496 98.3416 203.743 98.8876C202.991 99.4337 201.988 99.7229 200.798 99.7229C199.872 99.7229 199.055 99.5705 198.373 99.2604C197.721 98.974 197.141 98.546 196.675 98.0074C196.23 97.4839 195.901 96.8718 195.71 96.2116C195.506 95.5186 195.416 94.7972 195.443 94.0754V93.9877H208.102C208.131 92.9362 208.036 91.8849 207.821 90.8554C207.601 89.753 207.184 88.6991 206.592 87.7439M195.432 91.7115L195.441 91.6155C195.48 90.9695 195.626 90.3345 195.873 89.7361C196.106 89.1621 196.445 88.6369 196.871 88.1877C197.302 87.7415 197.818 87.3864 198.389 87.1436C199.017 86.8795 199.692 86.7487 200.373 86.7594C201.018 86.752 201.658 86.8735 202.255 87.1168C202.852 87.3601 203.395 87.7203 203.851 88.1762C204.293 88.6208 204.645 89.1461 204.888 89.7236C205.139 90.3258 205.29 90.9653 205.334 91.6165L205.342 91.7126L195.432 91.7115Z" fill="white"/>
<path d="M233.461 85.6097C232.949 85.209 232.359 84.9192 231.728 84.7588C230.983 84.5676 230.215 84.475 229.445 84.4832C228.393 84.474 227.356 84.7292 226.429 85.2255C225.523 85.7165 224.762 86.4365 224.222 87.3137L224.118 87.4776L224.055 87.297C223.719 86.278 223.127 85.5481 222.303 85.1232C221.433 84.6879 220.47 84.467 219.497 84.479C217.163 84.479 215.251 85.4354 214.012 87.3179L213.985 87.3586H213.881V84.8768H211.442V101.606H214.044V91.1654C214.061 90.7374 214.145 90.3148 214.292 89.9125C214.474 89.3872 214.744 88.8967 215.091 88.4622C215.486 87.9713 215.974 87.563 216.526 87.2605C217.112 86.9274 217.825 86.7593 218.646 86.7593C219.287 86.7593 219.823 86.8543 220.236 87.0464C220.638 87.2221 220.984 87.5041 221.237 87.8619C221.493 88.2299 221.671 88.6463 221.759 89.0855C221.862 89.5871 221.911 90.098 221.907 90.6099V101.606H224.512V91.1654C224.512 89.8415 224.914 88.764 225.712 87.9663C226.511 87.1686 227.623 86.7614 229.015 86.7614C229.698 86.7614 230.268 86.8658 230.701 87.0621C231.115 87.2434 231.473 87.5317 231.738 87.8974C231.991 88.2661 232.162 88.6853 232.239 89.1263C232.331 89.6171 232.377 90.1157 232.374 90.6152V101.606H234.976V89.3017C234.976 88.4455 234.841 87.7052 234.575 87.0944C234.329 86.5168 233.947 86.0073 233.461 85.6097" fill="white"/>
<path d="M242.133 81.6578H239.531V78.4336H242.133V81.6578ZM242.133 84.8767H239.531V101.606H242.133V84.8767Z" fill="white"/>
<path d="M257.691 100.868C258.355 100.468 258.916 99.918 259.328 99.2615C259.746 98.6047 259.955 97.7622 259.955 96.7556C259.955 95.9757 259.799 95.3085 259.493 94.7719C259.188 94.2467 258.771 93.7945 258.273 93.4469C257.738 93.0764 257.151 92.7875 256.531 92.5897C255.862 92.3693 255.182 92.1846 254.494 92.0363C253.84 91.8839 253.188 91.7377 252.531 91.5947C251.925 91.4678 251.33 91.2933 250.751 91.0726C250.266 90.8897 249.819 90.6177 249.433 90.2707C249.26 90.1102 249.122 89.9147 249.03 89.6971C248.938 89.4795 248.893 89.2448 248.898 89.0084C248.881 88.6071 249.003 88.2123 249.243 87.8902C249.48 87.5986 249.782 87.3668 250.126 87.2136C250.503 87.0382 250.903 86.9186 251.315 86.8586C252.194 86.7083 253.093 86.726 253.966 86.9108C254.406 87.0036 254.829 87.1657 255.219 87.3911C255.596 87.6136 255.918 87.9197 256.158 88.2859C256.406 88.6853 256.555 89.1382 256.592 89.6067H259.194C259.121 88.6367 258.906 87.8182 258.557 87.1677C258.213 86.5194 257.71 85.9693 257.095 85.5692C256.451 85.1593 255.734 84.8759 254.984 84.7339C254.117 84.5654 253.235 84.4832 252.352 84.4885C251.604 84.4911 250.859 84.5837 250.134 84.7642C249.425 84.9345 248.748 85.2183 248.13 85.6047C247.547 85.9798 247.054 86.4789 246.685 87.0664C246.317 87.6584 246.129 88.3809 246.129 89.2099C246.129 90.2739 246.396 91.1102 246.925 91.6991C247.478 92.3161 248.167 92.7965 248.937 93.1023C249.792 93.4509 250.679 93.7122 251.586 93.8823C252.534 94.064 253.432 94.2728 254.257 94.5087C254.992 94.697 255.691 95.0042 256.326 95.4182C256.894 95.8066 257.184 96.3808 257.184 97.1273C257.184 97.6703 257.046 98.1224 256.766 98.4753C256.497 98.8255 256.142 99.1 255.735 99.2719C255.305 99.4543 254.851 99.5775 254.388 99.6384C253.373 99.7889 252.34 99.7663 251.334 99.5716C250.819 99.471 250.324 99.2843 249.872 99.0193C249.437 98.7633 249.072 98.4048 248.808 97.9752C248.54 97.5146 248.391 96.9947 248.374 96.4623H245.781C245.83 97.4531 246.048 98.302 246.42 98.9963C246.785 99.6921 247.315 100.288 247.963 100.733C248.639 101.184 249.394 101.506 250.188 101.681C251.796 102.055 253.615 102.072 255.399 101.731C256.21 101.586 256.988 101.297 257.696 100.877" fill="white"/>
<path d="M267.001 79.8091H264.396V84.8771H261.622V87.1512H264.396V98.0015C264.396 98.7731 264.474 99.4047 264.624 99.8704C264.741 100.285 264.976 100.656 265.3 100.94C265.65 101.213 266.064 101.393 266.502 101.462C267.106 101.568 267.719 101.617 268.332 101.608H270.371V99.3327H269.183C268.825 99.3358 268.466 99.3201 268.109 99.2857C267.868 99.2657 267.635 99.1865 267.431 99.055C267.26 98.9337 267.137 98.7547 267.087 98.5507C267.022 98.2857 266.993 98.0131 267.001 97.7404V87.1512H270.471V84.8771H267.001V79.8091Z" fill="white"/>
<path d="M124.191 79.8091H121.581V84.8771H118.806V87.1512H121.581V98.0015C121.581 98.7731 121.658 99.4047 121.809 99.8704C121.925 100.285 122.16 100.657 122.485 100.94C122.834 101.214 123.248 101.394 123.687 101.462C124.291 101.568 124.903 101.617 125.516 101.608H127.554V99.3327H126.367C126.009 99.3358 125.651 99.3202 125.294 99.2857C125.052 99.2657 124.818 99.1864 124.613 99.055C124.443 98.9326 124.322 98.754 124.271 98.5507C124.207 98.2855 124.179 98.013 124.187 97.7404V87.1512H127.656V84.8771H124.187L124.191 79.8091Z" fill="white"/>
<path d="M276.925 88.595L276.901 88.642H276.809V84.877H274.37V101.607H276.972V94.3741C276.96 93.3927 277.071 92.4135 277.303 91.46C277.497 90.6667 277.86 89.9245 278.366 89.2841C278.88 88.667 279.547 88.1945 280.299 87.9132C281.069 87.6125 282.008 87.4611 283.089 87.4507V84.6838C281.648 84.6566 280.44 84.9615 279.5 85.588C278.394 86.3483 277.506 87.385 276.925 88.595" fill="white"/>
<path d="M291.69 105.976C292.054 105.302 292.374 104.604 292.646 103.888L299.961 84.878H297.213L292.467 98.7134H292.277L292.255 98.6507L287.336 84.877H284.396L291.063 101.601L291.05 101.632L289.902 104.476C289.682 104.936 289.361 105.34 288.962 105.658C288.597 105.933 288.115 106.07 287.531 106.07C287.238 106.069 286.946 106.023 286.667 105.933C286.437 105.862 286.211 105.785 285.985 105.71V108.075C286.268 108.174 286.56 108.244 286.857 108.284C287.178 108.325 287.502 108.346 287.826 108.346C288.37 108.357 288.912 108.276 289.43 108.107C289.889 107.94 290.308 107.679 290.66 107.341C291.07 106.94 291.417 106.479 291.69 105.974" fill="white"/>
</g>
<defs>
<clipPath id="clip0_533_1190">
<rect width="300" height="108.344" fill="white"/>
</clipPath>
</defs>
</svg>
