<?xml version="1.0" encoding="utf-8"?>
<!-- Generator: Adobe Illustrator 23.0.0, SVG Export Plug-In . SVG Version: 6.00 Build 0)  -->
<svg version="1.1" id="Calque_1" xmlns="http://www.w3.org/2000/svg" xmlns:xlink="http://www.w3.org/1999/xlink" x="0px" y="0px"
	 viewBox="0 0 93.8 23.6" style="enable-background:new 0 0 93.8 23.6;" xml:space="preserve">
<style type="text/css">
	.st0{fill:#FFFFFF;}
</style>
<g>
	<path class="st0" d="M72.9,10.5c-0.9,0-1.7,0.6-1.9,1.9h3.5C74.5,11.2,74,10.5,72.9,10.5z"/>
	<path class="st0" d="M21.5,10.6c-1.4,0-2.1,1-2.1,2.8c0,1.8,0.8,2.8,2.1,2.8s2.1-1.1,2.1-2.8C23.6,11.6,22.8,10.6,21.5,10.6z"/>
	<path class="st0" d="M0,0v23.6h93.8V0H0z M11.4,15.9c1.5,0,2.5-0.7,3.2-1.6l1.6,1.8c-1.3,1.7-2.9,2.4-5,2.4c-3.4,0-6.3-3-6.3-7
		c0-4.1,2.9-7.1,6.4-7.1c2.1,0,3.8,0.8,5,2.5l-1.8,1.7c-0.8-1-1.9-1.5-3.1-1.5c-1.9,0-3.6,1.9-3.6,4.4C7.8,14,9.5,15.9,11.4,15.9z
		 M21.5,18.6c-2.8,0-4.9-2.2-4.9-5.2c0-3,2-5.1,4.9-5.1c2.8,0,4.9,2.2,4.9,5.1C26.4,16.5,24.5,18.6,21.5,18.6z M33.8,10.9
		c-0.4-0.1-0.7-0.1-1-0.1c-0.7,0-1.6,0.5-2.1,1.8v5.7h-2.9V8.5h2.3l0.2,1.7h0.1c0.7-1.3,1.8-2,2.8-2c0.5,0,0.8,0.1,1.1,0.2
		L33.8,10.9z M44.2,18.3h-2.9v-5.7c0-1.4-0.4-1.9-1.2-1.9c-0.7,0-1.2,0.3-1.8,0.9v6.6h-2.9V8.5h2.3L38,9.7h0.1
		c0.8-0.8,1.8-1.5,3.1-1.5v0c2.1,0,3,1.5,3,4V18.3z M54.2,14.2h-5.8c0.3,1.5,1.2,2.1,2.5,2.1c0.7,0,1.4-0.2,2.1-0.7l1,1.8
		c-1,0.7-2.3,1.1-3.4,1.1c-2.8,0-4.9-1.9-4.9-5.1c0-3.2,2.2-5.1,4.6-5.1c2.8,0,4.1,2,4.1,4.7C54.3,13.5,54.2,13.9,54.2,14.2z
		 M58.6,18.3h-2.9V4.4h1.4h1.4V18.3z M63.5,18.5c-1.3,0-2.7-0.6-3.7-1.4l1.3-1.8c0.9,0.7,1.7,1,2.5,1c0.9,0,1.2-0.3,1.2-0.8
		c0-0.7-1-0.9-2-1.3c-1.2-0.5-2.6-1.3-2.6-2.9c0-1.8,1.5-3.1,3.7-3.1c1.5,0,2.6,0.6,3.4,1.2l-1.3,1.7c-0.7-0.5-1.4-0.8-2.1-0.8
		c-0.7,0-1.1,0.3-1.1,0.8c0,0.6,0.9,0.9,1.9,1.2h0c1.2,0.5,2.6,1.1,2.6,2.9C67.5,17.1,66.1,18.5,63.5,18.5z M76.8,14.2H71
		c0.3,1.5,1.2,2.1,2.5,2.1c0.7,0,1.4-0.2,2.1-0.7l1,1.8c-1,0.7-2.3,1.1-3.4,1.1c-2.8,0-4.9-1.9-4.9-5.1c0-3.2,2.2-5.1,4.6-5.1h0
		c2.8,0,4.1,2,4.1,4.7C77,13.5,76.9,13.9,76.8,14.2z M87.2,18.3h-2.9v-5.7c0-1.4-0.4-1.9-1.2-1.9c-0.7,0-1.2,0.3-1.8,0.9v6.6h-2.9
		V8.5h2.3L81,9.7h0.1c0.8-0.8,1.8-1.5,3.1-1.5l0,0c2.1,0,3,1.5,3,4V18.3z"/>
	<path class="st0" d="M48.3,12.4c0.2-1.3,1-1.9,1.9-1.9c1.2,0,1.6,0.8,1.6,1.9H48.3z"/>
</g>
</svg>
