<svg width="208" height="27" viewBox="0 0 208 27" fill="none" xmlns="http://www.w3.org/2000/svg">
<g clip-path="url(#clip0_547_150)">
<path d="M6.21651 0.0033C0.830007 0.0033 0.683207 0.3393 0.944507 1.9473H2.73921C4.42191 1.9473 4.79651 2.1739 4.79651 3.6299V21.2829C4.79651 23.7889 4.08591 24.0519 0.0845068 24.2759C-0.0354932 24.7619 -0.0354932 25.3609 0.0845068 25.7339H14.1378C24.8311 25.7339 29.2445 20.5709 29.2445 12.8669C29.2445 4.864 24.5645 0 13.7912 0L6.21651 0.0033ZM9.46981 21.0233V2.2098H13.3232C20.5045 2.2098 24.2432 6.3964 24.2432 13.5804C24.2432 21.6337 20.1672 23.687 13.7725 23.687C10.2925 23.687 9.47121 23.3137 9.47121 21.0337M45.8258 0.2647C44.0658 0.2647 43.5818 0.8647 42.3458 3.7447L34.9418 21.2859C33.931 23.6749 33.595 23.8989 30.715 24.2749C30.603 24.7609 30.603 25.3599 30.715 25.7329H41.4124C42.3458 25.7329 42.6084 25.1329 42.3458 24.0499H39.1324C37.0738 24.0499 37.0738 23.4899 37.9324 21.2819L39.4658 17.2019H49.1164L51.4724 22.8509C51.8857 23.8239 51.4724 24.1599 47.3964 24.2719C47.2831 24.7649 47.2831 25.3649 47.3964 25.7379H59.5137C60.487 25.7379 60.7137 25.1379 60.487 24.0579H59.6337C57.7271 24.0579 57.3137 23.7239 56.9004 22.7509L48.2604 3.0439C47.6604 1.7369 47.4071 1.1099 47.2871 0.2839L45.8258 0.2647ZM44.1791 5.4247L48.2571 15.1527H40.29L44.1791 5.4247ZM64.563 0.7527C62.9924 0.7527 62.7684 1.4617 62.9924 2.4327H64.7884C66.5084 2.4327 66.8444 2.6592 66.8444 4.0057V21.8827C66.8444 23.4161 66.1244 23.7895 63.1377 24.2761C62.9777 24.7631 62.9777 25.3621 63.1377 25.7351H74.4977C75.6177 25.7351 75.7243 25.1351 75.471 24.0531H73.4577C71.8844 24.0531 71.511 23.7911 71.511 22.4831V4.715C71.511 3.1443 71.991 2.435 75.2443 2.2083C75.351 1.835 75.351 1.0883 75.2443 0.751L64.563 0.7527ZM109.483 0.7527L100.843 18.7417L91.4535 0.751H83.9002C82.3402 0.751 82.1136 1.5643 82.3402 2.431C86.0469 2.5376 86.2736 2.951 86.1536 4.151L84.6202 21.7243C84.5136 23.2976 84.1669 24.0443 80.0602 24.2709C79.9536 24.7509 79.9536 25.2439 80.0602 25.7239H92.327C93.3803 25.7239 93.527 25.1239 93.2603 24.0439H91.247C87.287 24.0439 87.287 23.6699 87.3936 22.2039L88.5936 5.4039L98.927 25.818C99.7803 25.818 100.087 25.5912 100.767 24.2445L109.75 5.3913L111.43 21.6979C111.616 23.5239 111.094 23.9379 107.954 24.1239L105.932 24.2299C105.786 24.7099 105.786 25.1919 105.932 25.6829H119.132C120.182 25.6829 120.292 25.0829 120.182 24.0029C117.302 23.6289 116.702 23.5229 116.59 22.3229L114.79 4.0699C114.68 2.9899 114.906 2.3899 118.376 2.1629C118.534 1.6829 118.534 1.1889 118.376 0.7089L109.483 0.7527ZM127.36 0.7527C125.79 0.7527 125.566 1.4617 125.79 2.4327H127.583C129.156 2.4327 129.641 2.6592 129.641 4.0057V21.1347C129.641 23.5655 128.818 24.0521 125.19 24.2761C125.07 24.7631 125.11 25.2471 125.19 25.7351H143.43C143.91 23.4151 144.59 21.2471 145.376 19.0021C145.762 17.8871 145.269 17.4291 144.256 17.4291L144.136 17.4331L143.082 19.7511C141.508 23.1181 141.135 23.3061 138.362 23.3061H135.962C134.908 23.3061 134.268 22.9691 134.268 21.7331V5.202C134.268 2.7713 135.014 2.434 138.94 2.2086C139.046 1.8353 139.046 1.0886 138.94 0.7513L127.36 0.7527ZM151.596 0.7527C149.951 0.7527 149.802 1.4617 149.951 2.4327H151.738C153.418 2.4327 153.751 2.6592 153.751 4.0057V21.2857C153.751 23.7897 153.031 24.0522 149.071 24.2762C148.924 24.7629 148.924 25.2469 149.071 25.7349H169.711C170.191 23.4149 170.911 21.1349 171.657 19.0009C172.017 17.9209 171.537 17.4269 170.537 17.4269L170.417 17.4309L169.364 19.7479C167.791 23.1139 167.418 23.3019 164.644 23.3019H161.431C158.885 23.3019 158.551 22.7419 158.551 21.3949V14.8109H162.475C163.449 14.8109 163.935 15.1479 164.422 18.0639C164.616 18.1519 164.844 18.1909 165.066 18.1909C165.314 18.1909 165.554 18.1509 165.733 18.0709C165.623 15.6439 165.623 13.0569 165.733 10.7109C165.809 9.5509 165.4 9.2969 164.653 9.2969H164.204L163.951 11.2034C163.834 12.177 163.61 12.5504 162.489 12.5504H158.562V2.94H164.549C166.605 2.94 167.389 3.54 168.024 5.82L168.518 7.5C168.611 7.5135 168.691 7.5135 168.775 7.5135C169.775 7.5135 170.149 6.8868 169.975 5.8201C169.717 4.2201 169.495 2.4601 169.382 0.7801L151.596 0.7527ZM178.375 0.639C176.841 0.751 176.579 1.4616 176.841 2.4336H178.636C180.17 2.4336 180.695 2.6601 180.695 4.1268V21.4068C180.695 23.6868 179.946 24.06 176.691 24.2868C176.579 24.78 176.617 25.34 176.691 25.7534H188.473C189.559 25.7534 189.671 25.1534 189.559 24.0734H187.653C185.707 24.0734 185.371 23.6999 185.371 22.62V17.127H187.878C190.158 17.127 190.234 17.247 191.169 18.927C192.143 20.647 193.489 22.1537 194.724 23.2337C197.491 25.6337 199.772 26.3802 203.251 26.3802C207.224 26.3802 208.157 25.4069 207.824 24.1002C204.571 24.1002 202.931 23.7669 197.997 19.7936C196.583 18.6336 193.77 16.0602 193.77 16.0602C196.877 14.7535 198.824 12.2068 198.824 9.0735C198.824 3.9535 194.864 0.5535 187.677 0.5535C182.45 0.5535 180.197 0.5535 178.41 0.7001M185.41 2.7191H186.688C190.915 2.7191 193.902 4.2931 193.902 9.3381C193.902 14.3831 190.913 14.9871 187.209 14.9871H185.413L185.41 2.7191Z" fill="white"/>
</g>
<defs>
<clipPath id="clip0_547_150">
<rect width="207.874" height="26.331" fill="white"/>
</clipPath>
</defs>
</svg>
