<svg width="224" height="54" viewBox="0 0 224 54" fill="none" xmlns="http://www.w3.org/2000/svg">
<g clip-path="url(#clip0_527_180)">
<path d="M79.8464 9.78577C79.2124 9.77312 78.5824 9.89003 77.9954 10.1293C77.4084 10.3686 76.8767 10.7251 76.4331 11.177C75.9852 11.608 75.6306 12.126 75.3914 12.699C75.1522 13.272 75.0333 13.8878 75.0421 14.5084V15.9337H85.7941V24.4601H75.0421L74.9653 53.4129H65.28V14.9424C65.28 10.5006 66.614 7.05996 69.2821 4.62063C71.9502 2.1813 75.4745 0.948868 79.8549 0.92334H85.7984V9.78577H79.8464ZM94.72 21.0563C96.5129 19.2473 98.648 17.811 101.002 16.8308C103.355 15.8505 105.88 15.3458 108.431 15.3458C110.982 15.3458 113.507 15.8505 115.86 16.8308C118.214 17.811 120.349 19.2473 122.142 21.0563C123.973 22.8177 125.422 24.9345 126.401 27.2761C127.38 29.6177 127.868 32.1345 127.834 34.6712C127.865 37.2138 127.376 39.7361 126.398 42.0842C125.419 44.4323 123.971 46.557 122.142 48.3286C120.343 50.1264 118.205 51.5527 115.853 52.5259C113.5 53.4991 110.978 54 108.431 54C105.884 54 103.362 53.4991 101.009 52.5259C98.6564 51.5527 96.5192 50.1264 94.72 48.3286C92.9 46.5521 91.4605 44.4256 90.4888 42.078C89.5171 39.7305 89.0332 37.2107 89.0667 34.6712C89.0313 32.1378 89.5145 29.6238 90.4865 27.2829C91.4585 24.942 92.899 22.8233 94.72 21.0563V21.0563ZM115.2 28.0127C113.406 26.2309 110.978 25.2305 108.446 25.2305C105.914 25.2305 103.485 26.2309 101.692 28.0127C100.811 28.8967 100.117 29.9487 99.6521 31.1058C99.1873 32.263 98.961 33.5016 98.9867 34.7478C98.9624 35.9923 99.1941 37.2285 99.6674 38.3803C100.141 39.5321 100.846 40.5749 101.739 41.4446C102.62 42.3338 103.673 43.0355 104.834 43.5072C105.995 43.9788 107.239 44.2108 108.493 44.1889C109.746 44.2092 110.989 43.9693 112.144 43.4844C113.298 42.9994 114.339 42.2802 115.2 41.3723C116.096 40.5017 116.805 39.459 117.284 38.3071C117.764 37.1553 118.004 35.9183 117.99 34.6712C118.007 33.4301 117.767 32.1988 117.287 31.0535C116.808 29.9082 116.097 28.8733 115.2 28.0127ZM154.846 15.9295V25.2301H150.187C148.485 25.1868 146.835 25.8188 145.6 26.9873C144.992 27.5436 144.51 28.2233 144.187 28.9806C143.864 29.7379 143.707 30.5554 143.727 31.3781V53.4129H133.914V15.9295H141.73V18.4185C143.738 16.7591 146.345 15.9295 149.551 15.9295H154.846ZM181.274 43.606V53.4129H174.409C169.954 53.4129 166.454 52.1692 163.908 49.6816C161.362 47.1941 160.102 43.5705 160.128 38.811V3.99945H170.074V15.9125H181.564V24.4601H170.074V38.8833C170.038 40.1297 170.498 41.3397 171.354 42.2487C171.779 42.6924 172.294 43.0423 172.863 43.276C173.432 43.5098 174.045 43.6222 174.66 43.606H181.274ZM190.895 21.0563C192.688 19.2473 194.823 17.811 197.176 16.8308C199.53 15.8505 202.055 15.3458 204.606 15.3458C207.156 15.3458 209.682 15.8505 212.035 16.8308C214.389 17.811 216.524 19.2473 218.317 21.0563C220.147 22.8179 221.596 24.9349 222.574 27.2765C223.553 29.6181 224.039 32.1348 224.004 34.6712C224.036 37.2135 223.548 39.7356 222.57 42.0837C221.592 44.4318 220.145 46.5566 218.317 48.3286C216.518 50.1264 214.38 51.5527 212.028 52.5259C209.675 53.4991 207.153 54 204.606 54C202.059 54 199.537 53.4991 197.184 52.5259C194.831 51.5527 192.694 50.1264 190.895 48.3286C189.074 46.5527 187.634 44.4263 186.662 42.0786C185.691 39.7309 185.207 37.2108 185.242 34.6712C185.205 32.138 185.687 29.6239 186.658 27.2828C187.629 24.9418 189.07 22.823 190.891 21.0563H190.895ZM211.375 28.0127C209.581 26.2309 207.153 25.2305 204.621 25.2305C202.089 25.2305 199.66 26.2309 197.867 28.0127C196.984 28.8965 196.29 29.9482 195.823 31.1052C195.357 32.2623 195.129 33.5011 195.153 34.7478C195.129 35.9923 195.361 37.2285 195.834 38.3803C196.307 39.5321 197.012 40.5749 197.905 41.4446C198.786 42.3338 199.839 43.0355 201 43.5072C202.161 43.9788 203.406 44.2108 204.659 44.1889C205.913 44.2109 207.159 43.9718 208.315 43.4868C209.471 43.0018 210.513 42.2817 211.375 41.3723C212.271 40.5017 212.98 39.459 213.459 38.3071C213.939 37.1553 214.179 35.9183 214.165 34.6712C214.181 33.4297 213.941 32.1983 213.46 31.053C212.98 29.9077 212.268 28.8729 211.371 28.0127H211.375Z" fill="white"/>
<path d="M27.0632 53.9786C21.7097 53.9786 16.4765 52.3956 12.0252 49.4297C7.57394 46.4638 4.1046 42.2484 2.0559 37.3163C0.00721151 32.3843 -0.52882 26.9572 0.515594 21.7213C1.56001 16.4855 4.13796 11.6761 7.92345 7.90124C11.7089 4.12641 16.532 1.55572 21.7826 0.514252C27.0332 -0.527221 32.4756 0.00730054 37.4216 2.05022C42.3676 4.09314 46.595 7.55271 49.5692 11.9914C52.5435 16.4302 54.131 21.6487 54.131 26.9871C54.1231 34.1433 51.2687 41.0041 46.1943 46.0643C41.1198 51.1244 34.2396 53.9707 27.0632 53.9786V53.9786ZM27.0632 7.12215C23.1222 7.12215 19.2697 8.28757 15.9929 10.471C12.7161 12.6545 10.1622 15.7579 8.65421 19.3887C7.14624 23.0196 6.7519 27.0149 7.52107 30.8692C8.29024 34.7236 10.1884 38.2639 12.9754 41.0425C15.7624 43.8211 19.3132 45.7131 23.1786 46.4793C27.044 47.2455 31.0505 46.8514 34.6913 45.3469C38.3321 43.8424 41.4437 41.295 43.6326 38.027C45.8215 34.759 46.9894 30.917 46.9886 26.9871C46.9818 21.7199 44.8802 16.6705 41.1448 12.9464C37.4094 9.22236 32.3453 7.12778 27.0632 7.12215V7.12215Z" fill="white"/>
<path d="M27.0635 40.4832C24.3867 40.4832 21.7701 39.6917 19.5445 38.2088C17.3188 36.7258 15.5842 34.6181 14.5598 32.152C13.5355 29.686 13.2675 26.9725 13.7897 24.3546C14.3119 21.7366 15.6008 19.3319 17.4936 17.4445C19.3863 15.5571 21.7978 14.2718 24.4231 13.751C27.0485 13.2303 29.7697 13.4975 32.2427 14.519C34.7157 15.5405 36.8294 17.2703 38.3165 19.4896C39.8036 21.709 40.5973 24.3182 40.5973 26.9875C40.594 30.5657 39.167 33.9964 36.6296 36.5267C34.0923 39.0569 30.6518 40.4798 27.0635 40.4832ZM27.0635 20.6182C25.7977 20.6182 24.5603 20.9925 23.5078 21.6938C22.4554 22.3951 21.635 23.3918 21.1506 24.5579C20.6662 25.7241 20.5395 27.0073 20.7864 28.2453C21.0334 29.4833 21.6429 30.6204 22.538 31.513C23.433 32.4055 24.5734 33.0133 25.8149 33.2596C27.0564 33.5058 28.3432 33.3794 29.5126 32.8964C30.6821 32.4134 31.6816 31.5954 32.3849 30.5458C33.0881 29.4963 33.4635 28.2624 33.4635 27.0002C33.4635 26.1621 33.2979 25.3322 32.9763 24.5579C32.6547 23.7836 32.1833 23.0801 31.589 22.4875C30.9947 21.8949 30.2891 21.4248 29.5126 21.104C28.7362 20.7833 27.9039 20.6182 27.0635 20.6182V20.6182Z" fill="white"/>
</g>
<defs>
<clipPath id="clip0_527_180">
<rect width="224" height="54" fill="white"/>
</clipPath>
</defs>
</svg>
