<svg width="90" height="82" viewBox="0 0 90 82" fill="none" xmlns="http://www.w3.org/2000/svg">
<path d="M26.95 66.4531L15.95 77.4531L4.95001 66.4531H26.95Z" fill="white"/>
<path d="M43.05 41.4529C40.75 38.7529 40.85 37.2529 42.25 35.8529C43.95 34.1529 45.75 34.8529 47.75 36.7529L43.05 41.4529ZM66.65 11.4529C68.35 9.75288 70.15 10.4529 72.15 12.3529L67.45 17.0529C65.05 14.3529 65.15 12.9529 66.65 11.4529V11.4529ZM80.85 16.2529C78.75 19.4529 74.95 24.6529 71.05 20.7529L80.95 10.8529C80.05 9.95288 79.45 9.15288 78.85 8.65288C73.55 3.35288 67.55 3.25288 62.85 7.95288C59.75 11.0529 58.85 14.6529 59.75 18.0529L56.65 14.5529C55.85 14.9529 52.05 18.3529 54.85 23.3529L51.35 20.4529L46.65 25.1529L53.05 31.5529C48.15 27.6529 42.85 28.0529 38.65 32.2529C34.15 36.7529 34.45 42.2529 37.85 46.7529L37.15 46.0529C32.65 41.5529 27.75 43.1529 25.35 45.5529C23.45 47.4529 22.35 49.9529 22.85 51.7529L13.15 42.0529L7.95001 47.2529L27.15 66.4529H37.45L30.55 59.5529C26.95 55.8529 26.85 53.9529 28.65 52.1529C30.35 50.4529 32.35 51.5529 35.85 54.9529L42.65 61.7529L47.75 56.6529L41.25 50.1529C45.95 53.6529 51.55 53.8529 56.55 48.8529L56.65 48.7529C59.75 45.9529 60.65 43.1529 60.65 43.1529L56.75 40.5529C54.65 43.7529 50.95 48.9529 47.05 45.0529L56.95 35.1529L63.15 41.3529L68.55 35.9529L60.85 28.2529C57.25 24.6529 59.35 21.2529 60.85 19.9529C61.55 21.4529 62.55 22.8529 63.85 24.1529C68.85 29.1529 75.25 30.1529 80.95 24.5529L81.05 24.4529C84.15 21.6529 85.05 18.8529 85.05 18.8529L80.85 16.2529V16.2529Z" fill="white"/>
</svg>
