<svg width="174" height="41" viewBox="0 0 174 41" fill="none" xmlns="http://www.w3.org/2000/svg">
<g clip-path="url(#clip0_533_581)">
<path d="M0 41H174V0H0V41Z" fill="#19252C"/>
<path d="M0 32.9783H174V0H0V32.9783Z" fill="white"/>
<path d="M0 41.0001H174V36.0088H0V41.0001Z" fill="white"/>
<path d="M117.467 26.7837H122.722V21.4805H117.467V26.7837Z" fill="#19252C"/>
<path fill-rule="evenodd" clip-rule="evenodd" d="M9.37073 10.08H14.6592V5.97168H9.37073V10.08ZM9.37073 26.7836H14.6592V12.1969H9.37073V26.7836Z" fill="#19252C"/>
<path fill-rule="evenodd" clip-rule="evenodd" d="M54.1873 17.5504C54.1873 15.5171 53.2378 14.6954 50.0278 14.6954C46.4313 14.6954 45.8627 15.5199 45.8627 17.4251L54.1873 17.5504ZM54.3446 22.5891L59.3046 22.5919C59.3046 26.1878 56.1581 27.0178 52.1338 27.0178H47.977C44.3336 27.0178 40.577 26.3326 40.577 20.1046V18.6758C40.577 13.1497 43.2654 11.459 47.2566 11.459H51.1208C56.9806 11.459 59.3019 13.197 59.3019 18.2413V20.6144H45.8627V21.6421C45.8627 23.344 47.0937 23.7757 49.3929 23.7757H51.0932C53.7264 23.7757 54.3446 23.7757 54.3446 22.5891" fill="#19252C"/>
<path d="M84.8443 26.7838H90.13V5.96631H84.8443V26.7838Z" fill="#19252C"/>
<path fill-rule="evenodd" clip-rule="evenodd" d="M71.8523 23.7699C75.6337 23.7699 76.1305 23.199 76.1305 22.0737C76.1305 20.837 75.6779 20.4331 72.6334 20.4331H70.1796C67.8225 20.4331 67.2263 20.9735 67.2263 22.3076C67.2263 23.4023 68.1316 23.7699 70.268 23.7699H71.8523ZM62.1145 21.6949C62.1145 17.7954 64.7201 17.5447 70.1217 17.5447C73.1716 17.5447 74.7781 17.6367 75.7993 18.6951L76.0146 18.9179V17.2996C76.0146 15.7538 75.504 15.1939 73.2958 15.1939H70.0361C68.3248 15.1939 67.7866 15.1577 67.7866 15.8652H62.661C62.661 12.8431 65.4377 11.9546 69.1722 11.9546H75.6033C79.3516 11.9546 81.3031 13.7456 81.3031 17.1548V26.7781H76.3044V24.9036L76.0919 25.1292C74.5848 26.7057 74.0438 27.0121 71.3058 27.0121H67.5271C64.168 27.0399 62.1145 26.2962 62.1145 22.9176V21.6949" fill="#19252C"/>
<path fill-rule="evenodd" clip-rule="evenodd" d="M18.3992 18.1549C18.3992 14.4393 19.2079 11.9631 26.1442 11.9631C28.5676 11.9631 31.4713 12.7012 31.7997 14.9239L32.1834 14.9323V5.96631H37.4691V26.7838H32.5284V24.0486H32.1806C31.5706 25.9037 29.5667 27.0178 26.2601 27.0178C19.2079 27.0178 18.3992 24.5417 18.3992 20.8316V18.1549V18.1549ZM23.108 20.3637C23.108 22.0822 23.4171 23.0794 26.1497 23.0794H28.7083C30.9275 23.0794 32.1779 22.5641 32.1779 20.2188V18.7621C32.1779 16.4169 30.9275 15.9016 28.7083 15.9016H26.1497C23.4171 15.9016 23.108 16.9015 23.108 18.6173V20.3637Z" fill="#19252C"/>
<path fill-rule="evenodd" clip-rule="evenodd" d="M98.4657 20.1907C98.4657 22.0987 99.0674 23.3298 102.622 23.3298H102.948C106.547 23.3298 107.593 22.912 107.593 20.5111V18.4722C107.593 16.152 106.912 15.6479 102.948 15.6479H102.622C98.8852 15.6479 98.4657 16.8261 98.4657 18.7897V20.1907V20.1907ZM93.4312 17.7146C93.4312 12.9294 96.5943 11.9629 99.3903 11.9629H106.669C109.465 11.9629 112.628 12.9294 112.628 17.7146V21.2659C112.628 26.0483 109.465 27.0176 106.669 27.0176H99.3903C96.5943 27.0176 93.4312 26.0483 93.4312 21.2659V17.7146Z" fill="#19252C"/>
<path fill-rule="evenodd" clip-rule="evenodd" d="M144.508 7.85742H142.283V15.2246H142.231C141.764 13.8403 140.547 13.2415 138.01 13.2415H134.618C129.261 13.2415 127.632 14.7567 127.632 19.0127V21.3635C127.632 25.962 130.45 26.9787 134.491 26.9787H137.596C139.926 26.9787 141.739 26.2712 142.385 24.6529H142.438V26.7698H144.508V7.85742V7.85742ZM129.854 18.723C129.854 15.6424 131.383 15.0686 134.441 15.0686H137.442C140.442 15.0686 142.283 15.5923 142.283 18.7787V21.3105C142.283 23.7421 141.223 25.1515 137.908 25.1515H134.281C130.663 25.1515 129.854 23.9232 129.854 21.3384V18.723Z" fill="#19252C"/>
<path fill-rule="evenodd" clip-rule="evenodd" d="M148.096 21.5192C148.096 26.4325 151.411 26.9784 154.306 26.9784H158.347C162.49 26.9784 165.002 26.0649 165.002 23.0093V22.7503H162.772C162.645 24.7836 161.508 25.1513 158.709 25.1513H155.656C151.775 25.1513 150.321 24.3686 150.321 21.3382V20.4998H165.002V19.0124C165.002 14.2579 162.129 13.2412 158.14 13.2412H154.566C151.411 13.2412 148.096 13.7871 148.096 18.6197V21.5192V21.5192ZM162.772 18.6754H150.321C150.528 15.6422 151.356 15.0684 154.878 15.0684H158.14C161.761 15.0684 162.772 16.4276 162.772 17.7841V18.6754" fill="#19252C"/>
</g>
<defs>
<clipPath id="clip0_533_581">
<rect width="174" height="41" fill="white"/>
</clipPath>
</defs>
</svg>
