<svg width="303" height="120" viewBox="0 0 303 120" fill="none" xmlns="http://www.w3.org/2000/svg">
<path d="M238.268 58.0561L229.721 74.123L270.525 95.917L279.072 79.8501L238.268 58.0561Z" fill="white"/>
<path d="M270.145 23.9949L226.826 40.1875L233.176 57.2449L276.495 41.0523L270.145 23.9949Z" fill="white"/>
<path d="M190.923 60.836V71.9979H186.024V61.5282C186.024 59.3814 184.754 58.0382 182.828 58.0382C180.867 58.0382 179.526 59.4166 179.526 61.4167V71.9979H174.627V61.5282C174.627 59.3814 173.357 58.0382 171.431 58.0382C169.47 58.0382 168.13 59.3814 168.13 61.5282V72.0037H163.23V53.997H167.732V55.5982C168.932 54.3606 170.67 53.5981 172.813 53.5981C175.242 53.5981 177.021 54.5425 178.145 56.1789C179.485 54.6129 181.593 53.5981 184.133 53.5981C188.424 53.5981 190.923 56.5074 190.923 60.836Z" fill="white"/>
<path d="M158.553 64.0733C158.553 69.1645 154.994 72.4374 150.318 72.4374C145.565 72.4374 142.006 69.1645 142.006 64.0733V53.9966H146.905V64.4722C146.905 66.5778 148.392 67.9269 150.318 67.9269C152.167 67.9269 153.654 66.5837 153.654 64.4722V53.9966H158.553V64.0733Z" fill="white"/>
<path d="M137.469 61.3053V71.9979H132.968V70.25C131.698 71.5932 129.813 72.4319 127.489 72.4319C123.567 72.4319 121.284 70.1033 121.284 67.0475C121.284 63.7746 123.936 61.8097 128.068 61.8097H132.57V61.012C132.57 59.0471 131.446 57.8506 129.233 57.8506C127.308 57.8506 125.967 58.7597 124.48 60.3199L121.94 57.3051C124.047 54.7947 126.623 53.5981 129.778 53.5981C134.349 53.5981 137.469 56.1789 137.469 61.3053ZM132.57 65.2703V65.0533H128.724C127.126 65.0533 126.219 65.675 126.219 66.8715C126.219 68.1091 127.272 68.8364 128.794 68.8364C130.866 68.8364 132.57 67.3818 132.57 65.2703Z" fill="white"/>
<path d="M118.562 63.0178C118.562 68.4374 114.933 72.4376 109.852 72.4376C107.382 72.4376 105.316 71.4581 104.081 69.7806V71.9977H99.5795V44.7236H104.479V55.7388C105.749 54.3605 107.599 53.5921 109.852 53.5921C114.933 53.598 118.562 57.5982 118.562 63.0178ZM113.587 62.9826C113.587 59.9267 111.48 58.0381 108.939 58.0381C106.651 58.0381 104.403 59.6041 104.403 63.0178C104.403 66.4725 106.692 67.9623 108.939 67.9623C111.521 67.9623 113.587 66.0326 113.587 62.9826Z" fill="white"/>
<path d="M74.2164 64.6544H61.6255C62.205 66.9478 64.0547 68.2206 66.6712 68.2206C68.6322 68.2206 70.2302 67.5284 71.6818 66.4023L73.713 69.7456C71.6818 71.4524 69.2877 72.4378 66.5249 72.4378C60.8295 72.4378 56.691 68.3261 56.691 63.018C56.691 57.7098 60.7943 53.5981 66.0917 53.5981C71.1375 53.5981 74.5442 57.3051 74.5442 61.9622C74.5383 62.9828 74.3569 64.0327 74.2164 64.6544ZM61.6197 61.1997H69.7853C69.7502 58.9122 67.9707 57.5631 65.9044 57.5631C63.8323 57.5631 62.1641 58.9415 61.6197 61.1997Z" fill="white"/>
<path d="M53.5302 47.4509C53.5302 49.1577 52.1136 50.4716 50.4103 50.4716C48.6659 50.4716 47.2552 49.1636 47.2552 47.4509C47.2552 45.7089 48.6718 44.395 50.4103 44.395C52.1136 44.4009 53.5302 45.7089 53.5302 47.4509ZM52.8395 71.9975H47.9401V53.9967H52.8395C52.8395 53.9967 52.8395 71.9975 52.8395 71.9975Z" fill="white"/>
<path d="M39.1188 71.9978L28.8518 59.4869V71.9978H23.9525V47.9966H28.8518V59.1291L37.995 47.9966H43.8368L34.6585 59.3051L45.0367 71.9978H39.1188Z" fill="white"/>
<path d="M94.8616 60.836V71.9979H89.9974V61.4871C89.9974 59.4166 88.6569 57.9972 86.6609 57.9972C84.6649 57.9972 83.2483 59.4166 83.2483 61.4871V71.9979H78.3489V53.997H82.8503V55.6334C84.0853 54.3958 85.8999 53.5981 88.1126 53.5981C92.3212 53.5981 94.8616 56.5074 94.8616 60.836Z" fill="white"/>
</svg>
