<svg width="263" height="138" viewBox="0 0 263 138" fill="none" xmlns="http://www.w3.org/2000/svg">
<g clip-path="url(#clip0_506_156)">
<path d="M261.786 85.5087L261.572 85.2948C261.358 84.8669 260.93 84.6529 260.074 84.6529C259.859 84.6529 259.431 84.6529 259.217 84.8669C259.217 84.8669 259.003 84.8669 258.789 85.0808C258.361 85.2948 257.933 85.2948 257.505 85.5087C257.077 85.7226 256.863 85.9366 256.435 85.9366L254.722 86.5784C252.796 87.2203 250.013 88.29 247.23 89.3597L245.304 89.7876C241.451 90.8574 237.17 92.141 232.247 92.7829C229.25 93.2108 226.253 93.4247 223.257 93.4247C220.046 93.4247 216.621 92.7829 213.624 92.141C213.196 92.141 212.768 91.9271 212.34 91.9271C211.912 91.9271 211.484 91.7131 211.056 91.7131C210.199 91.4992 209.557 91.2852 208.487 90.8574C206.56 90.2155 204.848 89.5737 202.922 88.9318L200.353 88.0761C202.493 81.8716 203.564 75.4532 203.778 69.4627C203.992 66.2535 203.778 63.2583 203.564 60.477C203.35 58.1236 203.136 55.7702 202.493 52.9889C201.637 47.8542 200.781 44.431 200.353 42.9334C199.925 41.0079 199.497 39.7242 199.283 39.5103C199.283 39.0824 198.855 38.4406 197.784 38.4406C196.928 38.4406 196.072 39.0824 196.072 40.1521C196.072 40.1521 196.072 41.4358 196.286 43.7892C196.5 46.1426 196.714 49.7797 196.928 53.8447V60.6909V60.9049C196.714 63.4722 196.5 66.0396 196.072 68.8209C195.216 74.3835 193.717 80.16 191.577 85.7226C191.149 85.7226 190.935 85.5087 190.507 85.5087C180.874 83.1553 171.456 82.2995 162.466 82.7274C160.111 82.7274 157.757 82.9414 155.188 83.1553H154.76C154.118 83.1553 153.69 83.3692 153.047 83.3692C152.405 83.3692 151.763 83.5832 151.335 83.5832L147.482 83.7971C141.703 84.6529 136.779 86.1505 132.284 87.8621C126.719 90.2155 122.01 93.4247 118.585 97.4897C116.444 99.8431 114.946 102.41 113.876 105.192C112.806 107.973 112.377 111.182 112.591 114.177C113.02 117.387 113.876 119.954 115.374 122.521C116.873 125.089 118.799 127.228 121.154 128.94C123.08 130.437 125.221 131.721 128.217 133.005C130.786 134.074 133.141 134.93 135.709 135.572C138.278 136.214 140.846 136.642 143.415 136.856C144.485 136.856 145.77 137.07 146.626 137.07C148.338 137.07 149.623 136.856 151.121 136.642C153.475 136.428 156.258 135.786 158.827 134.93C161.609 134.074 163.75 133.219 165.891 132.149C170.386 129.796 174.453 127.014 178.091 123.805C181.944 120.168 185.155 116.745 187.51 113.322C189.864 110.113 192.005 106.475 194.359 102.196L196.286 98.3455C196.714 98.5594 197.142 98.5594 197.57 98.7734C198.212 98.9873 199.069 99.2013 199.711 99.4152C200.781 99.6291 201.637 100.057 202.493 100.271C203.564 100.485 204.42 100.699 205.49 101.127C206.56 101.341 207.417 101.555 208.273 101.769H208.487L211.484 102.41C215.551 103.052 219.618 103.266 223.257 103.052C226.467 102.838 229.464 102.196 232.033 101.769L233.531 101.555C233.959 101.555 234.387 101.341 234.601 101.341C235.029 101.341 235.243 101.127 235.672 101.127C236.1 101.127 236.528 100.913 236.742 100.913C237.17 100.913 237.384 100.699 237.812 100.699C238.668 100.485 239.525 100.057 240.381 99.8431C240.809 99.6291 241.237 99.4152 241.879 99.2013C244.448 98.1315 246.802 97.0618 248.729 96.206C252.796 94.0665 255.792 92.355 257.933 91.0713C259.003 90.4295 259.859 89.7876 260.288 89.3597C260.502 89.1458 260.716 88.9318 260.716 88.9318C260.93 88.9318 260.93 88.7179 260.93 88.7179C262.214 86.5784 262.214 85.9366 261.786 85.5087ZM136.137 130.437C131.428 129.368 126.933 127.442 123.722 124.661C122.01 123.163 120.725 121.452 119.869 119.526C119.013 118.029 118.585 116.103 118.371 113.536C118.371 109.899 120.297 106.048 123.722 103.052C126.719 100.271 130.572 98.1315 135.067 96.6339C139.348 94.9223 144.271 94.2805 148.338 93.6387L150.051 93.4247H150.693C150.693 93.4247 150.693 93.4247 150.907 93.4247H151.763C152.405 93.4247 153.047 93.4247 153.69 93.4247C155.402 93.2108 157.114 93.2108 158.613 93.2108C159.683 93.2108 160.967 93.2108 162.038 93.2108C169.529 93.2108 177.235 94.0665 186.654 95.7781C184.727 99.6291 182.158 103.48 179.59 107.545C175.309 113.964 169.958 121.024 162.466 125.945C160.539 127.228 158.399 128.298 156.686 128.94C154.76 129.796 152.619 130.437 150.265 130.865C147.696 131.507 145.341 131.507 143.201 131.293C142.131 131.293 141.06 131.079 139.776 130.865L136.137 130.437Z" fill="black"/>
<path d="M117.943 34.5896C118.157 34.5896 118.371 34.5896 118.799 34.3756C118.799 34.3756 119.227 34.1617 119.655 33.9477C120.083 33.7338 121.368 33.5198 122.438 33.3059C123.936 33.0919 125.435 32.878 127.147 32.878C126.719 36.3011 126.291 39.5103 126.291 42.5056C126.077 44.4311 126.077 46.3566 126.077 48.2821C126.077 49.9937 126.077 52.1331 125.863 54.0587V59.8352C125.863 60.691 125.863 61.7607 125.863 62.6165C125.863 63.4723 125.863 64.542 125.863 65.3978C126.077 68.8209 126.505 71.8162 126.719 74.1696C126.505 74.1696 126.291 74.3835 126.077 74.3835L121.582 76.523C121.154 76.7369 120.725 76.9509 120.297 77.1648C119.655 77.3788 119.227 77.8067 119.013 77.8067C119.013 77.8067 118.799 77.8067 118.799 78.0206C118.371 78.2346 118.157 78.4485 117.943 78.4485C117.515 78.6625 116.873 78.8764 116.873 79.9461C116.873 80.588 117.301 81.0159 117.729 81.2298C118.157 81.4438 118.371 81.4438 118.799 81.2298C119.013 81.2298 119.441 81.2298 119.869 81.0159C120.511 81.0159 121.154 80.8019 122.224 80.8019L123.08 80.588C123.936 80.374 125.007 80.1601 126.291 79.9461C126.719 79.9461 127.361 79.7322 127.789 79.5182C128.003 80.374 128.003 81.2298 128.217 81.6577C128.645 83.1553 128.859 84.2251 128.859 84.2251C129.074 84.8669 129.502 85.2948 130.144 85.2948C130.786 85.2948 131.214 84.8669 131.428 84.2251C131.428 84.2251 131.642 83.1553 132.07 81.6577C132.07 81.2298 132.284 80.8019 132.284 80.1601C132.498 79.5182 132.498 78.8764 132.712 78.2346C132.926 78.2346 133.141 78.0206 133.355 78.0206C133.783 77.8067 134.211 77.8067 134.639 77.5927L135.709 77.1648C137.636 76.523 139.776 75.6672 141.917 74.5975C144.485 73.3138 147.268 71.6022 150.051 69.6767C153.047 67.3233 155.402 64.542 157.114 61.5468C157.971 59.8352 158.827 58.1236 159.255 56.1981C159.469 54.9144 159.683 54.0587 159.683 53.2029C159.683 52.775 159.683 52.3471 159.683 51.9192C159.683 51.4913 159.683 50.8495 159.683 50.4216C159.683 46.9984 158.827 43.1474 157.328 39.7243C155.83 36.3011 153.261 33.3059 150.265 31.3804C147.268 29.4548 144.271 28.1712 141.489 27.5293C138.92 26.8875 136.137 26.6736 133.141 26.6736H132.07C131.856 25.8178 131.856 25.1759 131.642 24.5341C131.214 23.0365 131 21.9667 131 21.9667C131 22.3946 130.572 21.9667 129.93 21.9667C129.288 21.9667 128.859 22.3946 128.645 23.0365C128.645 23.0365 128.431 24.1062 128.003 25.6038V26.0317C127.789 26.6735 127.789 27.3154 127.575 27.9572C127.575 27.9572 127.575 27.9572 127.361 27.9572C126.933 27.9572 126.505 28.1712 126.291 28.1712C124.578 28.5991 122.652 29.027 121.368 29.6688C120.511 29.8827 119.655 30.3106 119.013 30.5246C118.799 30.7385 118.585 30.7385 118.371 30.7385C118.371 30.7385 118.157 30.7385 118.157 30.9525C117.729 31.1664 117.515 31.3804 117.301 31.3804C116.873 31.5943 116.23 31.8083 116.23 32.878C116.23 33.0919 116.23 33.5198 116.444 33.7338C116.873 33.9477 117.301 34.5896 117.943 34.5896ZM134.425 47.8542C134.425 46.9984 134.425 45.9287 134.425 45.0729C134.425 44.2171 134.425 43.1474 134.425 42.2916C134.211 39.5103 133.997 36.5151 133.569 33.5198C136.137 33.7338 138.278 34.1617 140.204 34.8035C142.131 35.4453 144.699 36.5151 146.626 38.0127C148.338 39.5103 149.837 41.4358 150.907 43.7892C151.763 45.9287 152.191 48.4961 151.977 51.2774C151.977 51.4913 151.977 51.7052 151.977 51.9192C151.977 52.3471 151.977 52.561 151.763 52.9889C151.549 53.6308 151.335 54.0587 151.121 54.9144C150.693 55.9842 150.265 57.0539 149.623 58.1236C148.338 60.2631 146.626 62.1886 144.699 63.6862C142.773 65.3978 140.632 67.1094 138.492 68.1791C136.993 69.0349 135.495 69.8907 133.997 70.7465C133.997 70.3186 133.997 69.8907 134.211 69.4628C134.425 68.1791 134.639 66.6815 134.639 65.1839C134.853 63.2583 134.853 61.3328 134.853 59.4073V53.6308C134.639 51.7052 134.639 49.9937 134.425 47.8542Z" fill="black"/>
<path d="M97.6078 30.5246C98.0359 26.0317 97.3938 21.3249 95.6814 17.4739C93.969 13.4089 91.4003 9.77181 87.9755 6.99051C84.7647 4.42316 80.6977 2.49764 76.8448 1.42791C73.2059 0.572125 69.1389 0.786071 65.2859 1.64186C61.8611 2.49764 58.6503 3.99526 56.2957 6.13472C53.9412 7.84629 51.8006 9.98576 50.5163 12.3392C48.8039 14.6926 48.1618 16.832 47.7337 18.3297C47.3055 19.8273 46.8774 21.3249 46.8774 22.3946C46.6634 23.2504 46.6634 23.8923 46.6634 23.8923C46.6634 25.3899 47.9477 25.6038 48.1618 25.6038C49.232 25.6038 49.6601 24.962 49.6601 24.5341C49.6601 24.3201 49.8742 23.6783 49.8742 23.0365C50.0882 22.1807 50.5163 21.111 50.9444 19.8273C51.3725 18.9715 52.2288 17.046 53.7271 15.1205C55.0114 13.4089 56.7239 11.9113 58.8644 10.4136C61.2189 8.91602 64.0016 7.84629 66.3562 7.63235C69.781 7.20445 72.5637 7.4184 75.1323 8.27419C77.915 8.91602 80.4837 10.4136 83.0523 12.7671C85.1928 14.6926 86.9052 17.4739 88.1895 20.6831C88.8317 22.1807 89.0457 23.6783 89.0457 25.1759C89.0457 26.6736 89.0458 28.1712 88.6176 29.8827C88.1895 32.4501 86.9052 35.2314 85.1928 37.7988C83.2663 40.3661 81.3399 42.0777 79.4134 43.3613C79.1993 43.3613 79.1993 43.5753 78.7712 43.5753C78.3431 43.7892 77.701 44.2171 77.4869 44.2171C77.4869 44.2171 77.2729 44.2171 77.2729 44.4311C76.8448 44.645 76.4167 44.859 75.7745 45.0729H75.5605C74.7042 45.5008 73.634 45.9287 72.5637 46.1427L71.9216 46.3566C70.4232 46.7845 68.4967 47.4263 66.3562 47.8542C66.3562 47.6403 66.3562 47.2124 66.3562 46.9984C66.3562 46.1427 66.3562 45.2869 66.5703 44.4311V44.2171C66.7843 41.8637 66.9984 39.5103 66.9984 37.1569C66.9984 34.8035 66.7843 32.664 66.5703 30.3106C66.3562 28.1712 66.1422 26.0317 65.9281 24.3201C65.714 23.2504 65.5 21.9667 65.5 20.897C65.2859 20.2552 65.2859 19.6133 65.2859 19.1854C65.0719 18.1157 64.8578 17.2599 64.8578 16.4041C64.6438 15.9762 64.6438 15.5484 64.6438 14.9065C64.6438 14.4786 64.4297 14.0507 64.2157 13.6228C64.2157 12.5531 64.2157 12.1252 64.2157 11.9113C64.2157 11.6973 64.2157 11.6973 64.2157 11.4834C64.2157 11.2694 64.0016 11.0555 64.0016 11.0555C64.0016 10.1997 63.3595 9.55786 62.5033 9.55786C61.433 9.55786 61.0049 10.1997 61.0049 10.6276C61.0049 10.8415 60.7908 11.2694 60.7908 11.6973C60.5768 12.3392 60.3627 13.1949 60.1487 14.2647C60.1487 14.4786 59.9346 14.9065 59.9346 15.3344C59.7206 16.1902 59.5065 17.2599 59.2925 18.3297V18.5436C59.0784 20.0412 58.8644 21.5388 58.4363 23.2504C58.2222 24.962 58.0082 27.1014 57.7941 29.2409C57.7941 31.8083 57.7941 34.1617 57.7941 36.3011C57.7941 38.6545 58.0082 41.0079 58.2222 43.5753C58.2222 44.645 58.4363 45.5008 58.4363 46.3566C58.4363 46.9984 58.4363 47.6403 58.6503 48.2821C57.7941 48.4961 56.9379 48.2821 56.2957 48.4961H55.2255C54.5833 48.4961 54.3693 48.71 53.9412 48.9239C53.7271 49.1379 53.5131 49.5658 53.5131 49.7797C53.5131 50.8495 54.1552 51.2774 54.5833 51.2774C54.7974 51.2774 55.2255 51.4913 56.0817 51.7053C56.5098 51.7053 56.7238 51.9192 57.366 52.1331C57.7941 52.3471 58.2222 52.3471 58.8644 52.561C58.8644 53.4168 58.8644 54.2726 58.8644 54.9144C58.8644 55.9842 58.8644 57.0539 58.8644 58.1236C58.8644 60.691 59.0784 63.2583 59.2925 65.3978C59.5065 70.1046 59.7206 74.3835 59.9346 78.2346L61.0049 90.6434C61.0049 91.4992 61.6471 92.355 62.7173 92.355C63.5735 92.355 64.4297 91.7132 64.2157 90.8574L65.2859 78.4485C65.5 75.4533 65.714 72.2441 65.9281 68.8209L66.1422 65.1839C66.3562 62.8304 66.5703 60.477 66.5703 58.3376C66.5703 57.2678 66.7843 56.4121 66.7843 55.3423C66.7843 54.7005 66.7843 54.0587 66.9984 53.4168H70.4232C71.0654 53.4168 71.9216 53.4168 72.7778 53.2029C73.2059 53.2029 73.634 53.2029 73.848 52.9889C74.0621 52.9889 74.4902 52.9889 74.9183 52.9889C76.4167 52.775 78.1291 52.3471 79.6274 51.7053C80.0556 51.4913 80.4837 51.4913 80.9118 51.2774C81.3399 51.0634 81.5539 51.0634 81.982 50.8495C82.1961 50.8495 82.4101 50.6355 82.6242 50.6355C82.6242 50.6355 82.6242 50.6355 82.8382 50.6355L84.1225 50.2076C84.1225 50.2076 84.3366 50.2076 84.3366 49.9937C84.5507 49.9937 84.5506 49.9937 84.7647 49.7797C88.4036 48.0682 91.6144 45.2869 94.183 41.6498C95.8954 39.2964 97.3938 34.8035 97.6078 30.5246Z" fill="black"/>
<path d="M166.319 67.1094C166.747 68.607 167.389 70.1046 168.245 71.6022C169.101 72.8859 169.958 74.1696 171.242 75.2393C172.312 76.3091 173.81 77.1648 175.309 77.8067C176.593 78.2346 177.663 78.2346 178.734 78.2346C179.162 78.2346 179.59 78.2346 179.804 78.2346C180.66 78.2346 181.302 78.0206 181.73 77.8067C181.944 77.8067 181.944 77.5927 182.158 77.5927C183.015 77.3788 183.657 76.7369 184.299 76.523C185.369 75.8812 186.44 74.8114 187.296 73.9556C189.008 72.0301 190.078 70.3186 190.721 68.1791C190.935 67.7512 190.935 67.3233 191.149 66.8954C191.577 65.6118 192.005 64.542 192.219 63.4723V63.2583C192.433 61.9747 192.647 60.9049 192.647 60.2631V55.1284V54.7005C192.433 53.4168 192.219 51.9192 191.791 50.2076L191.577 49.5658C190.935 47.8542 190.078 46.1427 188.794 44.2171C188.152 43.1474 187.296 42.2916 186.225 41.4358C185.583 40.794 184.941 40.3661 184.085 40.1522C183.871 40.1522 183.657 39.9382 183.229 39.7243C182.801 39.5103 182.587 39.2964 182.373 39.2964L181.944 39.0824C181.73 39.0824 181.516 38.8685 181.516 38.8685H180.874C180.66 38.8685 180.446 38.6545 180.018 38.6545H178.948C178.52 38.6545 178.091 38.6545 177.877 38.8685C177.663 38.8685 177.663 38.8685 177.449 38.8685C175.737 39.2964 174.239 39.9382 173.168 40.794C171.884 41.6498 170.814 42.7195 169.743 44.4311C168.887 45.7148 168.031 46.9984 167.389 48.4961C166.319 51.2774 165.462 54.2726 165.248 57.9097V60.0492C165.034 61.1189 165.034 61.9747 165.034 62.8305C165.034 62.8305 165.034 62.8305 165.034 63.0444C165.462 64.3281 165.891 65.8257 166.319 67.1094ZM174.881 59.6213C174.881 59.6213 174.881 59.4073 174.881 58.9794V56.4121C174.881 56.1981 174.881 55.9842 174.881 55.5563C174.881 55.1284 174.881 54.9144 174.881 54.7005C174.881 54.2726 175.095 53.8447 175.095 53.6308C175.095 53.4168 175.309 53.2029 175.309 52.9889C175.309 52.775 175.309 52.561 175.523 52.1331V51.9192C175.737 51.2774 175.951 50.8495 176.165 50.2076C176.379 49.7797 176.379 49.3518 176.593 48.71C177.021 47.6403 177.235 46.9984 177.663 46.7845L177.877 46.5705L178.091 46.3566C178.306 46.1427 178.52 45.9287 178.734 45.7148C178.734 45.7148 178.948 45.7148 178.948 45.5008C178.948 45.5008 179.376 45.0729 180.232 44.859C180.446 44.859 181.516 44.645 181.944 44.859C184.941 46.5705 187.51 51.9192 187.296 58.7655C186.868 64.756 184.299 70.3186 180.874 72.0301H179.59C179.376 71.8162 179.162 71.8162 178.948 71.8162H178.734C178.734 71.8162 178.734 71.8162 178.52 71.8162L178.306 71.6022C177.877 71.1744 177.663 70.7465 177.235 70.3186L176.379 69.4628C176.379 69.2488 176.379 69.0349 176.165 68.8209C176.165 68.607 176.165 68.3931 175.951 68.1791C175.951 67.9652 175.951 67.9652 175.951 67.7512C175.523 66.8954 175.523 66.0396 175.523 65.1839C175.523 64.756 175.523 64.542 175.309 64.1141C175.309 63.9002 175.309 63.6862 175.309 63.4723C175.309 63.0444 175.309 62.6165 175.095 62.4026C175.095 62.1886 175.095 62.1886 175.095 61.9747V60.2631C175.095 60.0492 174.881 59.8352 174.881 59.6213Z" fill="black"/>
<path d="M114.946 74.3835C115.374 73.9556 115.588 73.5277 115.802 73.3138L116.016 72.8859C117.301 70.9604 117.943 69.2488 118.585 67.7512C118.799 67.5372 118.799 67.3233 118.799 66.8954C118.799 66.8954 118.799 66.6814 119.013 66.6814C119.227 66.2536 119.227 65.6117 119.227 65.3978C119.441 64.7559 119.655 64.1141 119.655 63.6862C119.655 63.2583 119.869 63.0444 119.869 62.6165C120.083 61.9746 120.083 61.3328 120.083 60.6909C120.297 60.477 120.297 60.2631 120.297 60.0491V58.7654C120.297 58.1236 120.297 57.4818 120.511 56.1981V52.1331V51.9192C120.511 51.4913 120.297 51.0634 120.297 50.4215C120.083 49.1379 119.655 47.6402 119.013 45.9287C118.799 45.5008 118.585 45.0729 118.371 44.2171C118.157 43.7892 117.729 43.1474 117.301 42.5055C116.873 41.8637 116.444 41.4358 116.016 41.0079C116.016 41.0079 115.802 41.0079 115.802 40.794C115.588 40.58 115.374 40.58 115.374 40.3661C114.946 39.9382 114.518 39.7242 113.876 39.2963C113.662 39.2963 113.448 39.0824 113.234 39.0824H112.806L112.163 38.8684C111.949 38.8684 111.521 38.6545 111.521 38.6545H110.879H110.665C110.451 38.6545 110.023 38.4406 109.809 38.4406H108.525C106.384 38.6545 104.672 39.0824 103.173 39.9382C99.7484 41.6497 97.6078 44.8589 96.1095 47.2123C95.2533 48.71 94.6111 50.2076 94.183 51.7052C93.9689 52.1331 93.9689 52.7749 93.7549 53.4168L93.3268 54.4865C93.1127 54.9144 93.1127 55.3423 93.1127 55.5562L92.8987 56.1981C92.8987 56.412 92.6846 56.626 92.6846 56.8399V61.7607C92.8987 63.4722 93.1127 64.9699 93.5408 66.6814C94.8252 70.5325 96.5376 73.0998 98.8922 75.2393C99.9624 76.309 101.675 77.3787 103.815 78.2345C104.243 78.4485 104.458 78.2345 104.886 78.4485C105.314 78.4485 105.528 78.6624 105.956 78.6624H108.096C108.525 78.6624 108.739 78.6624 108.953 78.4485C109.381 78.4485 109.381 78.4485 109.595 78.2345C111.093 77.8066 112.806 76.9509 113.662 75.8811L114.946 74.3835ZM114.732 58.9794C114.09 66.0396 110.665 70.3185 107.882 70.3185H107.668C106.598 70.1046 105.742 69.4627 105.314 68.8209C103.387 66.4675 102.317 61.9746 102.959 57.6957C103.601 50.6355 107.668 46.3566 110.023 46.3566H110.237C112.163 46.5705 113.234 48.71 113.662 49.7797C114.946 52.1331 115.16 54.9144 114.732 58.9794Z" fill="black"/>
<path d="M207.631 60.691C207.631 61.5468 207.845 62.6165 208.059 63.2583C208.273 64.9699 208.915 66.4675 209.557 67.9652C211.056 71.3883 213.196 74.1696 215.765 75.8812C217.049 76.9509 218.761 77.5927 220.902 78.0206C221.116 78.0206 221.33 78.0206 221.758 78.2346C222.186 78.2346 222.4 78.4485 222.614 78.4485H223.899C223.899 78.4485 223.899 78.4485 224.113 78.4485C224.327 78.4485 224.327 78.4485 224.541 78.4485L224.969 78.2346C225.611 78.2346 226.039 78.0206 226.467 77.8067C227.324 77.5927 228.18 77.1648 228.822 76.737C229.464 76.3091 230.106 75.8812 230.534 75.0254C230.748 74.8114 230.962 74.5975 231.176 74.3835C231.391 74.1696 231.605 73.9557 231.605 73.7417C232.033 73.3138 232.247 72.672 232.461 72.2441L232.675 72.0301C233.745 70.1046 234.387 68.1791 234.601 66.4675C234.815 65.6118 235.029 64.9699 235.029 64.3281C235.243 63.6862 235.243 62.8305 235.243 62.4026C235.243 61.7607 235.243 61.3328 235.458 60.691C235.458 60.2631 235.458 60.0492 235.458 59.6213V57.6957C235.458 57.0539 235.458 56.1981 235.243 55.1284C235.243 54.7005 235.243 54.4866 235.029 54.0587C235.029 53.8447 235.029 53.6308 235.029 53.4168C235.029 53.2029 235.029 53.2029 235.029 52.9889C235.029 52.775 234.815 52.3471 234.815 52.1331C234.815 51.7053 234.601 51.2774 234.601 50.8495C234.173 49.1379 233.531 47.2124 232.675 45.2869C232.461 45.0729 232.461 44.859 232.247 44.4311C232.033 44.2171 232.033 44.0032 231.819 43.7892C231.819 43.5753 231.605 43.5753 231.605 43.5753C231.605 43.5753 231.391 43.3614 231.391 43.1474C231.176 42.7195 230.962 42.2916 230.32 42.0777C230.106 41.8637 230.106 41.8637 229.892 41.6498C229.678 41.4358 229.25 41.2219 229.036 40.794C229.036 40.5801 228.822 40.5801 228.608 40.3661C227.966 39.9382 227.324 39.5103 226.253 39.2964L224.969 38.8685C224.755 38.8685 224.327 38.6545 224.327 38.6545H222.614C222.186 38.6545 221.758 38.6545 221.116 38.8685C219.618 39.0824 217.905 39.9382 216.193 41.0079C213.624 42.7195 211.484 45.2869 209.985 48.924C209.557 50.2076 208.701 51.9192 208.487 53.6308C208.273 54.0587 208.273 54.4866 208.273 54.9144C208.273 55.3423 208.273 55.5563 208.059 55.9842V56.1981V58.7655C208.059 58.7655 208.059 58.7655 208.059 58.9794V60.691H207.631ZM223.471 70.9604C219.618 70.9604 216.193 65.1839 216.193 58.5515C216.193 51.7053 219.618 46.1427 223.471 46.1427C227.324 46.1427 230.748 51.9192 230.748 58.5515C230.748 65.1839 227.324 70.9604 223.471 70.9604Z" fill="black"/>
<path d="M43.0245 48.71L41.098 48.0682C40.4559 47.8542 39.8137 47.6403 39.1716 47.4263H38.7435C38.1013 47.2124 37.2451 46.9984 36.3889 46.9984L33.6062 46.3566C33.6062 44.859 33.6062 43.1474 33.3922 41.6498C33.1781 39.9382 32.9641 38.4406 32.75 36.943C32.5359 35.8732 32.3219 34.8035 32.3219 33.7338L32.1078 33.0919C31.8938 31.8083 31.6797 30.7385 31.4657 29.8828C31.0376 28.5991 30.8235 27.5293 30.6095 27.3154C30.3954 26.6736 29.9673 26.2457 29.3252 26.2457C28.2549 26.2457 27.8268 26.8875 27.8268 27.3154C27.6127 27.7433 27.3987 28.5991 27.1846 29.8828C26.9706 30.7385 26.7565 31.8083 26.5425 33.0919V33.7338C26.3284 34.8035 26.1144 35.8732 26.1144 36.943C25.9003 38.4406 25.6863 39.9382 25.6863 41.6498C25.4722 42.7195 25.4722 44.0032 25.4722 45.0729C25.0441 45.0729 24.8301 45.0729 24.402 45.0729C23.7598 45.0729 23.1176 45.0729 22.4755 44.859C21.1912 44.645 19.6928 44.645 18.4085 44.645H17.7663C17.7663 44.4311 17.7663 44.2171 17.7663 44.2171C17.7663 43.7893 17.7663 43.3614 17.7663 42.9335C17.7663 42.0777 17.5523 41.4358 17.5523 40.5801C17.5523 39.7243 17.3382 38.8685 17.3382 38.0127C17.1242 36.943 17.1242 36.0872 16.9101 35.2314L16.6961 33.7338C16.482 32.6641 16.268 31.8083 16.268 30.9525V30.5246C15.8399 29.027 15.6258 27.9572 15.4118 27.7433C15.1977 27.1015 14.7696 26.6736 14.1274 26.6736C13.0572 26.6736 12.6291 27.3154 12.6291 27.7433C12.415 27.9572 12.201 29.027 11.7729 30.5246C11.5588 31.3804 11.3448 32.6641 11.1307 33.7338C10.9167 35.0175 10.7026 36.3011 10.4886 37.7988V38.0127C10.2745 39.5103 10.0605 41.2219 10.0605 42.7195C10.0605 42.9335 10.0605 42.9335 10.0605 43.1474C10.0605 43.3614 10.0605 43.7893 10.2745 44.2171C9.63235 44.2171 8.9902 44.2171 8.56209 44.4311C6.63562 44.645 4.9232 44.859 3.63889 45.0729C2.35458 45.2869 1.71242 45.5008 1.71242 45.5008C1.28431 45.7148 0.856209 46.1427 0.856209 46.5705C0.856209 46.9984 1.28431 47.6403 1.71242 47.6403L3.63889 48.2821C4.28105 48.4961 4.9232 48.71 5.56536 48.924C5.99346 48.924 6.20752 49.1379 6.63562 49.3518C7.06372 49.5658 7.49183 49.7797 7.91993 49.7797C8.34804 49.7797 8.77614 49.9937 9.20425 50.2076C9.4183 50.2076 9.8464 50.4216 10.2745 50.4216C10.2745 51.4913 10.2745 52.775 10.4886 53.8447C10.4886 54.9144 10.7026 55.7702 10.7026 56.84C10.7026 57.9097 10.7026 58.9794 10.9167 59.8352C10.9167 60.9049 10.9167 61.7607 10.9167 62.8305C9.8464 63.0444 8.77614 63.0444 7.70588 63.2583L6.20752 63.4723C4.9232 63.6862 3.85294 63.9002 2.99673 64.1141C1.49837 64.542 0.856209 64.756 0.856209 64.756C0.428105 64.756 0 65.3978 0 65.8257C0 66.2536 0.428105 66.8954 0.856209 66.8954L2.56863 67.5373C3.63889 67.9652 5.35131 68.3931 7.49183 68.607C8.13399 68.607 8.77614 68.8209 9.4183 69.0349C9.8464 69.0349 10.4886 69.2488 10.9167 69.2488C10.9167 70.1046 10.9167 70.7465 11.1307 71.6022C11.1307 72.458 11.1307 73.5278 11.1307 74.3835C11.1307 75.2393 11.1307 76.0951 11.1307 76.9509C11.1307 78.0206 11.1307 78.8764 11.3448 79.7322C11.3448 80.374 11.3448 81.2298 11.3448 81.8717C11.7729 87.8622 11.9869 91.9271 11.9869 91.9271C11.9869 92.7829 12.6291 93.4248 13.4853 93.4248C14.3415 93.4248 14.9837 92.7829 14.9837 91.9271C14.9837 91.9271 14.9837 90.8574 15.1977 89.1458C15.4118 87.2203 15.6258 84.653 15.8399 81.8717C15.8399 81.0159 16.0539 80.1601 16.0539 79.5183C16.0539 78.6625 16.0539 78.0206 16.268 77.1648C16.268 76.3091 16.482 75.4533 16.482 74.3835C16.482 73.5278 16.482 72.672 16.6961 71.6022C16.6961 71.1744 16.6961 70.5325 16.6961 70.1046C17.5523 70.3186 18.6225 70.1046 19.6928 70.3186C20.335 70.3186 20.9771 70.3186 21.6193 70.3186H26.7565C26.7565 70.7465 26.7565 71.1744 26.7565 71.6022C26.7565 72.458 26.7565 73.0999 26.7565 73.9557C26.7565 74.8114 26.7565 75.6672 26.7565 76.523C26.7565 77.1648 26.7565 78.0206 26.7565 78.6625C27.1846 84.2251 27.6127 88.0761 27.6127 88.0761C27.6127 88.9319 28.2549 89.5737 29.1111 89.5737C29.9673 89.5737 30.6095 88.9319 30.6095 88.0761C30.6095 88.0761 30.6095 87.0064 30.8235 85.5087C31.0376 84.653 31.0376 83.3693 31.0376 82.0856C31.0376 81.0159 31.0376 79.9461 31.2516 78.6625C31.2516 78.0206 31.4657 77.1648 31.4657 76.3091C31.4657 75.6672 31.4657 74.8114 31.6797 73.9557C31.8938 73.0999 31.8938 72.2441 31.8938 71.3883C31.8938 70.9604 31.8938 70.3186 31.8938 69.8907C32.1078 69.8907 32.1078 69.8907 32.3219 69.8907C33.6062 69.6767 34.6765 69.4628 35.3186 69.2488C36.3889 69.0349 37.4591 68.8209 38.3154 68.607C38.9575 68.3931 39.3856 68.3931 40.0278 68.1791L41.7402 67.5373C42.1683 67.3233 42.5964 66.8954 42.5964 66.4675C42.5964 66.0396 42.1683 65.3978 41.7402 65.3978L40.0278 64.756C39.1716 64.542 38.3154 64.3281 37.2451 64.1141C36.6029 63.9002 35.9608 63.9002 35.1046 63.6862C34.0343 63.4723 33.1781 63.2583 32.1078 63.2583C32.5359 61.5468 32.75 59.8352 32.75 57.9097C32.75 57.0539 32.964 55.9842 32.964 55.1284C32.964 54.2726 32.964 53.6308 33.1781 52.775C34.4624 52.775 35.5327 52.561 36.3889 52.3471H36.817C37.6732 52.1331 38.1013 52.1331 38.7435 52.1331H38.9575L39.5997 51.9192C40.2418 51.7053 40.6699 51.7053 41.098 51.7053L42.8105 51.0634C43.2386 50.8495 43.6667 50.4216 43.6667 49.9937C43.8807 49.1379 43.4526 48.71 43.0245 48.71ZM26.3284 62.1886C25.9003 62.1886 25.2582 61.9747 24.8301 62.1886C24.1879 62.4026 23.1176 62.6165 21.8333 62.4026H21.6193H17.1242C17.1242 62.1886 17.1242 62.1886 17.1242 61.9747C17.1242 61.3328 17.3382 60.691 17.1242 60.0492C17.1242 58.9794 17.3382 58.1236 17.3382 57.0539C17.3382 55.9842 17.3382 55.1284 17.5523 53.8447C17.5523 53.4168 17.5523 52.775 17.5523 52.3471C17.5523 52.1331 17.5523 52.1331 17.5523 51.9192C18.8366 52.1331 20.335 52.3471 21.4052 52.3471C22.9036 52.3471 24.402 52.3471 25.6863 52.3471C25.6863 52.9889 25.6863 53.8447 25.9003 54.4866C25.9003 55.5563 25.9003 56.4121 26.1144 57.2679C26.1144 58.3376 26.1144 59.4073 26.1144 60.2631C26.3284 60.9049 26.3284 61.5468 26.3284 62.1886Z" fill="black"/>
<path d="M186.868 22.3946C187.082 22.6086 187.082 22.6086 187.296 22.6086L187.51 22.8225C187.724 23.0365 187.724 23.2504 187.938 23.2504C187.938 23.4643 188.152 23.4643 188.152 23.6783C188.152 23.6783 188.152 23.8922 188.366 24.1062C188.366 24.1062 188.366 24.3201 188.58 24.3201C188.794 24.748 189.008 24.962 189.008 25.1759C189.008 25.1759 189.222 25.3899 189.222 25.6038L190.935 29.2409C190.935 29.2409 190.935 29.4548 191.149 29.4548C191.149 29.6688 191.363 29.8827 191.577 30.0967L191.791 30.5246C192.005 30.7385 192.219 31.1664 192.219 31.5943C192.433 32.0222 192.647 32.4501 192.861 32.664C193.075 33.3059 193.503 33.5198 193.717 33.7338V33.9477C193.717 34.1617 193.931 34.3756 194.145 34.5895L194.788 35.2314C195.002 35.4453 195.43 35.8732 196.072 35.8732C196.286 35.8732 196.714 35.8732 196.928 35.6593C197.142 35.6593 197.142 35.4453 197.356 35.4453C197.57 35.2314 197.784 34.8035 197.998 33.9477C198.212 33.7338 198.212 33.3059 198.212 33.0919C198.212 32.878 198.212 32.664 198.426 32.2361V32.0222C198.426 31.1664 198.426 30.0967 198.212 29.2409C198.212 28.5991 197.998 27.9572 197.784 27.5293C197.784 27.5293 197.784 27.3154 197.57 27.1014C197.57 26.8875 197.57 26.6735 197.356 26.4596V26.2456C197.356 26.0317 197.356 25.8178 197.142 25.8178C196.5 24.5341 195.858 23.6783 195.216 22.8225L195.002 22.6086L193.717 21.3249C193.503 21.1109 193.503 21.1109 193.289 21.1109C193.075 20.897 192.647 20.683 192.433 20.4691L192.005 20.2552C191.791 20.0412 191.577 20.0412 191.149 19.8273C190.935 19.8273 190.721 19.6133 190.507 19.6133C190.292 19.6133 190.078 19.6133 189.864 19.3994C189.65 19.1854 189.436 19.1854 189.222 19.1854H187.51C187.296 19.1854 186.011 19.1854 186.011 20.897C186.011 21.5388 186.44 22.1807 186.868 22.3946Z" fill="black"/>
</g>
<defs>
<clipPath id="clip0_506_156">
<rect width="263" height="138" fill="white"/>
</clipPath>
</defs>
</svg>
