<svg width="154" height="39" viewBox="0 0 154 39" fill="none" xmlns="http://www.w3.org/2000/svg">
<g clip-path="url(#clip0_531_557)">
<path d="M0 14.1958V38.3183H22.946V25.4935H9.50693V21.4087H17.9092V17.755H9.50693V13.9679H22.946V0.847506H0V14.1958ZM122.292 1.05482H112.786V38.4538H122.292V1.05482ZM25.6954 19.432V19.664C25.6954 30.1858 28.5701 38.7124 39.4117 38.7124C43.8181 38.7124 48.6414 36.9861 50.7379 34.8165V22.5295C47.241 24.9146 44.9352 26.4356 41.2453 26.4356C38.1407 26.4356 35.0627 24.7155 35.0627 19.6783V19.4177C35.0627 14.3805 38.153 12.6625 41.2433 12.6625C44.9352 12.6625 47.241 14.1814 50.7379 16.5666V4.27745C48.6435 2.10782 43.8181 0.379506 39.4117 0.379506C28.5701 0.379506 25.6954 8.91024 25.6954 19.432ZM99.137 18.182C98.1555 17.8741 97.5272 17.6688 95.5108 16.9976C94.1207 16.5358 92.9544 16.039 92.8825 14.8978C92.784 13.3993 94.5848 13.0976 96.6976 13.1489C101.539 13.2618 107.991 16.039 108.081 16.0493V2.54708C108.081 2.54708 102.95 0.256348 96.0262 0.256348C85.8088 0.256348 83.4085 6.0304 83.4085 10.4271C83.4085 15.6613 87.6281 18.4324 94.2008 20.8135C95.209 21.1357 95.8106 21.3225 97.827 21.9958C99.2171 22.4576 100.383 22.9543 100.455 24.0956C100.554 25.594 98.753 25.8958 96.6401 25.8445C91.7984 25.7316 84.0737 22.0409 83.9854 22.0307V35.5349C83.9854 35.5349 90.3877 38.737 97.3116 38.737C107.529 38.737 110.535 32.9609 110.383 28.5662C110.248 24.695 107.765 20.7868 99.137 18.1799V18.182ZM147.323 1.05482H131.598L124.915 38.4538H135.099L136.138 32.0372H142.774L143.813 38.4517H153.998L147.325 1.05482H147.323ZM136.736 28.3877L139.458 11.3098L142.185 28.3836L136.736 28.3877ZM67.5136 0.365137C56.6084 0.365137 53.7973 8.9554 53.7973 19.5511C53.7973 30.1468 56.6084 38.737 67.5136 38.737C78.423 38.737 81.2299 30.1468 81.2299 19.5511C81.2299 8.95745 78.423 0.365137 67.5136 0.365137V0.365137ZM72.5176 19.5613C72.5176 23.564 71.0453 26.8112 67.5218 26.8112C63.9962 26.8112 62.7519 23.566 62.7499 19.5613V19.5408C62.7499 15.5382 63.9962 12.2909 67.5218 12.2909C71.0453 12.2909 72.5155 15.5361 72.5176 19.5408V19.5613Z" fill="white"/>
</g>
<defs>
<clipPath id="clip0_531_557">
<rect width="154" height="39" fill="white"/>
</clipPath>
</defs>
</svg>
