<svg width="175" height="17" viewBox="0 0 175 17" fill="none" xmlns="http://www.w3.org/2000/svg">
<g clip-path="url(#clip0_533_604)">
<path d="M6.544 6.834C5.274 6.235 4.177 5.719 4.177 4.72C4.177 3.901 4.706 3.074 5.885 3.074C6.741 3.074 7.756 3.359 9.078 3.971L10.395 1.331C8.866 0.435 7.299 0 5.605 0C2.318 0 0.356 1.773 0.356 4.741C0.356 7.709 2.651 8.854 4.495 9.776C5.833 10.444 6.988 11.022 6.988 12.11C6.988 13.048 6.156 13.678 4.919 13.678C3.927 13.678 2.716 13.313 1.318 12.59L0 15.418C1.767 16.425 3.381 16.874 5.226 16.874C8.64 16.874 10.679 14.974 10.679 11.791C10.679 8.781 8.386 7.701 6.544 6.834ZM17.558 1.899C16.129 1.899 13.979 1.899 12.739 1.941V16.555H16.365V12.097H17.467C19.117 12.097 22.956 11.563 22.956 6.611C22.956 3.572 21.039 1.899 17.558 1.899ZM17.444 9.354C16.988 9.354 16.687 9.354 16.411 9.331L16.364 9.327V4.665L16.411 4.662C16.732 4.64 17.152 4.64 17.488 4.64C19.166 4.64 19.503 5.609 19.503 7.172C19.505 8.682 18.869 9.354 17.444 9.354ZM33.478 10.899L33.514 10.872C34.723 9.906 35.389 8.411 35.389 6.663C35.389 3.15 32.397 1.899 29.596 1.899C28.167 1.899 26.016 1.899 24.778 1.941V16.555H28.404V12.097H29.506C29.726 12.097 29.934 12.085 30.125 12.073L30.155 12.07L30.171 12.095C30.773 13.06 31.54 14.614 31.787 16.555C32.582 16.555 35.754 16.555 35.754 16.555C35.418 14.321 34.202 12.078 33.503 10.936L33.478 10.899ZM29.482 9.354C29.026 9.354 28.726 9.354 28.45 9.333L28.403 9.329V4.667L28.45 4.664C28.771 4.641 29.191 4.641 29.527 4.641C31.205 4.641 31.542 5.611 31.542 7.175C31.542 8.682 30.907 9.354 29.482 9.354ZM38.047 16.555L41.669 16.557V1.922H38.047V16.555ZM53.162 11.497L48.82 1.921H44.856V16.554H48.047V7.323L52.55 16.554H56.371V1.921H53.162V11.497ZM65.1 11.049H66.609V14.039L66.575 14.051C66.211 14.182 65.342 14.251 64.98 14.251C63.065 14.251 62.318 12.832 62.318 9.189C62.318 5.989 63.42 4.433 65.687 4.433C66.444 4.433 67.549 4.772 68.726 5.365L69.708 2.925C68.392 2.095 66.679 1.6 65.116 1.6C62.918 1.6 61.334 2.219 60.272 3.493C59.219 4.758 58.706 6.635 58.706 9.232C58.706 14.903 60.351 17.011 64.772 17.011C66.18 17.011 68.3 16.645 69.879 15.828V8.554H65.1V11.049ZM75.822 10.487H80.523V7.658H75.822V4.773H80.956V1.921H72.353V13.966C72.353 13.979 72.332 15.124 73.088 15.908C73.56 16.399 74.234 16.649 75.09 16.654C77.728 16.669 80.617 16.572 81.024 16.557V13.699H75.821V10.487H75.822V10.487ZM92.416 10.937L92.392 10.899L92.428 10.872C93.637 9.906 94.303 8.411 94.303 6.663C94.303 3.15 91.311 1.899 88.511 1.899C87.082 1.899 84.931 1.899 83.693 1.941V16.555H87.319V12.097H88.421C88.641 12.097 88.848 12.085 89.04 12.073L89.07 12.07L89.086 12.095C89.688 13.06 90.455 14.614 90.702 16.555C91.497 16.555 94.669 16.555 94.669 16.555C94.331 14.322 93.115 12.079 92.416 10.937ZM88.396 9.354C87.94 9.354 87.64 9.354 87.364 9.333L87.317 9.329V4.667L87.364 4.664C87.685 4.641 88.105 4.641 88.441 4.641C90.119 4.641 90.457 5.611 90.457 7.175C90.457 8.682 89.822 9.354 88.396 9.354Z" fill="white"/>
<path d="M109.153 11.5949L103.82 0.149902H99.59V16.5549H102.918L102.919 5.2339L108.211 16.5549H112.499V0.149902H109.153V11.5949V11.5949ZM127.414 4.9039H130.681V16.5549H134.459V4.9039H137.243V1.9199H127.414V4.9039V4.9039ZM146.8 11.6659C146.8 13.1639 146.715 14.0809 145.047 14.0809C143.448 14.0809 143.178 13.3289 143.178 11.6439V1.9209H139.424V11.8409C139.424 15.3319 141.109 16.8889 144.887 16.8889C148.754 16.8889 150.555 15.1179 150.555 11.3149V1.9209H146.8V11.6659ZM169.797 13.6989V10.4859H174.497V7.6569H169.797V4.7719H174.931V1.9209H166.329V13.9659C166.329 13.9789 166.308 15.1239 167.064 15.9079C167.536 16.3989 168.21 16.6489 169.066 16.6539C171.703 16.6689 174.593 16.5719 175 16.5569V13.6989H169.797V13.6989ZM118.127 1.9209L114.583 16.5549H118.282L118.803 14.2309H122.858L123.379 16.5549H127.28L123.782 1.9209C123.782 1.9209 118.127 1.9209 118.127 1.9209ZM119.23 11.4659L120.737 5.1019H120.888L122.43 11.4659H119.23ZM161.936 10.8989L161.971 10.8719C163.179 9.9059 163.846 8.4109 163.846 6.6629C163.846 3.1499 160.854 1.8989 158.053 1.8989C156.624 1.8989 154.473 1.8989 153.235 1.9409V16.5549H156.861V12.0969H157.963C158.183 12.0969 158.39 12.0849 158.582 12.0729L158.612 12.0699L158.628 12.0949C159.23 13.0599 159.997 14.6139 160.245 16.5549C161.039 16.5549 164.212 16.5549 164.212 16.5549C163.876 14.3209 162.66 12.0779 161.961 10.9359L161.936 10.8989ZM157.941 9.3539C157.485 9.3539 157.185 9.3539 156.908 9.3329L156.861 9.3289V4.6669L156.908 4.6639C157.229 4.6409 157.648 4.6409 157.985 4.6409C159.663 4.6409 160 5.6109 160 7.1749C160.001 8.6819 159.366 9.3539 157.941 9.3539Z" fill="white"/>
</g>
<defs>
<clipPath id="clip0_533_604">
<rect width="175" height="17" fill="white"/>
</clipPath>
</defs>
</svg>
