<svg width="160" height="60" viewBox="0 0 160 60" fill="none" xmlns="http://www.w3.org/2000/svg">
<g clip-path="url(#clip0_547_393)">
<path d="M105.217 27.3315C104.389 26.9999 103.105 26.7107 102.07 26.7107C100.87 26.7107 99.9171 27.0423 99.9171 28.1189C99.9171 30.6857 106.584 29.1123 106.584 34.4139C106.584 38.0164 103.644 39.3823 100.373 39.3823C98.8405 39.3823 97.3504 39.134 95.9831 38.7191L96.2314 35.5724C96.2314 35.5724 98.3847 36.3174 100.206 36.3174C101.49 36.3174 102.525 35.9449 102.525 34.785C102.525 32.0107 95.8575 33.7916 95.8575 28.4901C95.8575 25.1768 98.6316 23.8108 101.737 23.8108C103.559 23.8108 105.051 24.1424 105.92 24.4741L105.217 27.3315ZM93.0438 27.3315C92.1746 26.9999 90.9315 26.7107 89.8972 26.7107C88.6963 26.7107 87.7439 27.0423 87.7439 28.1189C87.7439 30.6857 94.4111 29.1123 94.4111 34.4139C94.4111 38.0164 91.4705 39.3823 88.1997 39.3823C86.6672 39.3823 85.1772 39.134 83.728 38.7191L84.0173 35.5724C84.0173 35.5724 86.2115 36.3174 88.0346 36.3174C89.2763 36.3174 90.312 35.9449 90.312 34.785C90.312 32.0107 83.6448 33.7916 83.6448 28.4901C83.6448 25.1768 86.4598 23.8108 89.5246 23.8108C91.3463 23.8108 92.8787 24.1424 93.7479 24.4741L93.0438 27.3315ZM154.493 23.8123C157.391 23.8123 159.088 25.3856 159.088 28.7807V39.0507H155.238V29.5681C155.238 28.0357 154.782 27.0013 153.168 27.0013C151.511 27.0013 150.103 28.4505 150.103 31.0187V39.0521H146.293V29.5695C146.293 28.1203 145.837 27.0028 144.181 27.0028C142.441 27.0028 141.116 28.5761 141.116 31.1853V39.0536H137.182V24.1015C139.748 23.7699 140.701 24.8466 140.825 26.5032C141.778 24.8466 143.392 23.8123 145.504 23.8123C148.195 23.8123 149.272 25.3024 149.646 26.7107C150.269 25.2205 151.967 23.8123 154.493 23.8123ZM75.8585 24.1015C75.0302 28.5324 72.877 35.53 71.5111 39.0507H67.4529L64.5955 29.0714H64.5545L61.6971 39.0507H57.6389C56.3549 35.5724 53.9956 28.3673 53.2915 24.1015H57.1422L59.668 34.3715H59.709L62.7314 24.1015H66.5822L69.5229 34.2883H69.5652L72.1319 24.1015H75.8585ZM51.014 27.3315C50.1857 26.9999 48.9017 26.7107 47.8673 26.7107C46.6665 26.7107 45.755 27.0423 45.755 28.1189C45.755 30.6857 52.3799 29.1123 52.3799 34.4139C52.3799 38.0164 49.4393 39.3823 46.1684 39.3823C44.636 39.3823 43.1459 39.134 41.7786 38.7191L42.027 35.5724C42.027 35.5724 44.2212 36.3174 46.0443 36.3174C47.3283 36.3174 48.3626 35.9449 48.3626 34.785C48.3626 32.0107 41.6954 33.7916 41.6954 28.4901C41.6954 25.1768 44.4695 23.8108 47.5753 23.8108C49.3969 23.8108 50.8461 24.1424 51.7576 24.4741L51.014 27.3315ZM127.702 39.3823C123.437 39.3823 120.497 37.0639 120.497 31.8456C120.497 27.1664 123.644 23.8123 128.158 23.8123C132.381 23.8123 135.115 26.173 135.115 31.2657C135.072 36.1523 132.133 39.3823 127.702 39.3823ZM127.826 27.0832C126.087 27.0832 124.472 28.3673 124.472 31.6382C124.472 34.4957 125.549 36.0691 127.786 36.0691C129.69 36.0691 131.14 34.5366 131.14 31.514C131.14 28.6156 130.104 27.0832 127.826 27.0832ZM77.6393 39.0507H81.4901V24.1015C79.7093 23.9364 77.6393 24.4331 77.6393 27.2483V39.0507ZM79.7516 22.2389C81.1175 22.2389 82.1942 21.2031 82.1942 19.8781C82.1942 18.594 81.1175 17.6006 79.7516 17.6006C78.5099 17.6006 77.3909 18.594 77.3909 19.8781C77.35 21.2031 78.4676 22.2389 79.7516 22.2389ZM115.487 39.34C111.056 39.34 108.158 37.1034 108.158 31.8442C108.158 27.3725 110.643 23.8941 116.067 23.8941C117.227 23.8941 118.717 24.1424 119.71 24.515L118.882 27.6617C118.013 27.3301 117.142 27.1241 116.149 27.1241C113.374 27.1241 112.214 28.9458 112.214 31.6791C112.214 34.3292 113.25 36.11 115.982 36.11C117.266 36.11 118.135 35.7784 119.004 35.4468L119.46 38.5117C118.758 38.9675 117.184 39.34 115.487 39.34Z" fill="white"/>
<path d="M31.1802 32.0106C30.9728 31.7622 30.7668 31.5548 30.5593 31.3065H27.4127C27.4536 31.2232 27.4536 31.1414 27.4959 31.0581H15.9012V31.3065V32.0106V32.259H27.0811C27.0811 32.259 27.0811 32.218 27.122 32.218C27.1629 32.1348 27.1629 32.0939 27.2052 32.0106H31.1802Z" fill="white"/>
<path d="M32.8777 34.4544C32.7944 34.2893 32.7126 34.1228 32.5884 33.9577C32.5475 33.8745 32.5052 33.7926 32.4643 33.7503H26.4193C26.4602 33.6671 26.5025 33.5852 26.5435 33.502H15.9012V34.7028H26.0044C26.0454 34.6195 26.0877 34.5377 26.1286 34.4544C26.1286 34.4544 32.8777 34.4544 32.8777 34.4544Z" fill="white"/>
<path d="M33.9543 36.8973C33.871 36.649 33.7892 36.4415 33.7059 36.1932H25.2579C25.2988 36.1099 25.3412 36.0281 25.3821 35.9448H15.8998V36.1932V36.5248V37.1047H24.7612C24.7612 37.1047 24.7612 37.1048 24.7612 37.0638L24.8854 36.8564H33.9543V36.8973V36.8973Z" fill="white"/>
<path d="M34.3269 39.3397C34.3269 39.0913 34.3269 38.8839 34.2859 38.6356H23.9344C23.9753 38.5523 24.0177 38.4705 24.0995 38.3872H15.9012V39.5881H23.3545V39.5471L23.4786 39.3397C23.4772 39.3397 34.3269 39.3397 34.3269 39.3397Z" fill="white"/>
<path d="M15.238 9.27783C14.7413 9.31875 14.1205 9.40201 13.6238 9.60944C13.374 9.69128 13.1257 9.81546 12.8773 9.93964H15.8589V9.31875C15.7347 9.27783 15.4864 9.27783 15.238 9.27783Z" fill="white"/>
<path d="M11.5114 11.7202C11.4691 11.9276 11.4691 12.176 11.4691 12.4244H15.8998V11.7202H11.5114Z" fill="white"/>
<path d="M25.0096 51.5982C25.5063 51.3908 25.962 51.1424 26.4178 50.894H15.8998V51.5982H25.0096Z" fill="white"/>
<path d="M15.8998 53.3364V53.9996C17.2248 53.8755 18.5907 53.668 19.958 53.3364H15.8998Z" fill="white"/>
<path d="M21.6979 42.0322L21.8629 41.7839H34.0376C34.0785 41.5355 34.1208 41.3281 34.1617 41.0797H22.3611L22.402 40.9965L22.5261 40.8314H15.9012V41.0797V41.4113C15.9012 41.4113 15.9012 41.4113 15.8603 41.4113L15.7361 41.3704C15.6529 41.3704 15.571 41.3295 15.571 41.3295C13.8707 40.7904 13.5814 39.2989 13.2498 37.6846C13.0847 36.8563 12.9182 35.9871 12.5048 35.2829C12.0081 34.4137 11.0556 33.7505 10.1441 33.1296C8.81912 32.218 7.41088 31.2655 7.41088 29.527C7.41088 27.663 8.69494 27.1663 10.0199 26.6696C10.8891 26.3379 11.7598 26.0063 12.3383 25.2613C12.7941 24.6813 13.0015 24.0195 13.2498 23.3972C13.7056 22.1554 14.1191 20.9955 15.8589 20.7472C15.8589 20.5821 15.7756 20.3337 15.7347 20.2505C15.6938 20.1672 15.6515 20.0854 15.6105 19.9612H17.3913L17.4746 20.0444L17.9712 20.5002L18.6344 21.0802L18.8419 21.2453H15.8603V21.5769V22.4461H20.291L20.7045 22.7777L20.9119 22.9428L21.8234 23.6879H15.9026V24.2679V24.5995V24.8478H23.3982L23.5633 25.0129C23.6874 25.0962 24.2674 25.5929 24.9292 26.1305H15.9026V26.3789V27.083V27.3314H26.3783C26.4193 27.3723 26.5025 27.4146 26.5434 27.4555C27.0401 27.9113 27.5368 28.3248 27.8275 28.5731H15.9026V28.8215V29.1531V29.7331H27.8698C27.9107 29.6498 27.9107 29.568 27.9531 29.4847H28.8646C28.6163 29.2773 28.3679 29.0289 28.1196 28.7806C28.2847 28.0355 28.4089 27.2481 28.4921 26.4621C28.5754 25.4687 28.6163 24.4739 28.533 23.5637C28.4089 22.0736 28.0773 20.7486 27.4973 19.5054C27.0006 18.3878 26.2965 17.393 25.4273 16.5237L25.138 16.3163C24.6413 15.8605 24.1023 15.4471 23.5647 15.1155C23.0271 14.7839 22.4471 14.4522 21.8248 14.2039C20.7891 13.7904 19.6716 13.5407 18.6782 13.4998C17.3123 13.4165 16.6082 13.7481 15.8631 14.1206H11.9658C11.9249 14.0388 11.8839 13.9146 11.8416 13.8328C11.7993 13.7509 11.7598 13.6663 11.7174 13.5421L10.3515 14.6611L9.89575 14.9927C8.94329 15.6968 7.9499 16.4419 6.99744 17.187C6.21007 17.8078 5.50736 18.3878 4.88508 18.9678C4.14004 19.631 3.51918 20.2519 3.02107 20.8728C1.73701 22.4052 1.07522 23.8544 0.95105 25.3445C0.95105 25.6338 0.95105 25.8822 0.95105 26.1728C0.95105 26.4621 0.991971 26.7528 1.07522 27.0421C1.28265 28.0355 1.69609 28.9471 2.35929 29.8572C3.06341 30.8097 3.93262 31.5971 4.76091 32.3422L5.21668 32.7147L5.71337 33.1282C6.58259 33.8732 7.45321 34.6183 8.28009 35.4057C8.56936 35.654 8.8177 35.9433 9.06746 36.1931C8.86004 36.4005 8.65402 36.6065 8.4466 36.8972H9.68833C10.185 37.4772 10.6408 38.0571 11.0133 38.6371H7.57738C7.49413 38.8855 7.45321 39.0929 7.41229 39.3412H11.4296C11.5947 39.6305 11.7188 39.8789 11.8853 40.1696C12.0095 40.4588 12.1337 40.7904 12.2579 41.0811H7.36996C7.41088 41.3295 7.45321 41.5369 7.49413 41.7853H12.5048C12.6699 42.3652 12.8364 42.9452 12.9606 43.5252H8.23917C8.23917 43.5661 8.28009 43.6084 8.28009 43.6493C8.40427 43.8568 8.52844 44.0628 8.65261 44.2293H13.1243C13.2484 44.726 13.3726 45.2227 13.4968 45.7194C13.4968 45.7194 13.5377 45.8436 13.58 45.9678H10.1864C10.2274 46.0087 10.2274 46.0087 10.2697 46.051C10.518 46.2585 10.7255 46.4645 11.0147 46.6719H13.8298C13.913 46.837 13.954 47.0444 14.0372 47.1686C14.1205 47.376 14.3688 47.956 14.5748 48.4104H13.7465C13.7465 48.4104 13.7465 48.4104 13.7875 48.4104C14.0767 48.5755 14.4507 48.742 14.8641 48.9071C15.0292 49.2387 15.2366 49.5703 15.485 49.7354C15.6091 49.8187 15.7742 49.9005 15.9407 49.9428V49.322C15.9407 49.322 16.024 49.2387 16.0649 49.1978C16.1058 49.1569 16.1891 49.0736 16.1891 49.0736H29.1087C29.3162 48.9085 29.5222 48.742 29.7296 48.536C29.8129 48.495 29.8538 48.4118 29.937 48.3709H16.7281L16.9355 48.1225H15.8998V46.8807H18.0122C18.0531 46.7975 18.1363 46.7157 18.2196 46.6324H31.6359C31.8434 46.384 32.0085 46.1766 32.1736 45.9283H18.7572C18.8405 45.845 18.8814 45.7632 18.9646 45.6799H15.8998V44.4381H19.9171C20.0003 44.3549 20.0413 44.273 20.1245 44.1898H33.2093C33.3334 43.9414 33.4167 43.734 33.5409 43.4856H20.6212L20.7863 43.2373H15.8998V41.9955H21.6964V42.0322H21.6979ZM15.0306 18.8013C14.9064 18.5938 14.7823 18.3455 14.6172 18.138C14.4521 17.8897 14.2856 17.6004 14.1614 17.4339L14.0781 17.3506H15.8589V18.7998H15.0306V18.8013ZM15.8998 14.8671V16.607H13.6224L13.4149 16.3177L13.374 16.2345L12.6699 15.1987C12.5866 15.0745 12.5048 14.9913 12.4216 14.8671C12.4216 14.8671 15.8998 14.8671 15.8998 14.8671Z" fill="white"/>
</g>
<defs>
<clipPath id="clip0_547_393">
<rect width="160" height="60" fill="white"/>
</clipPath>
</defs>
</svg>
