<svg width="172" height="62" viewBox="0 0 172 62" fill="none" xmlns="http://www.w3.org/2000/svg">
<g clip-path="url(#clip0_527_256)">
<path d="M42.5304 0H48.2397C52.3088 9.36959 56.3639 18.7468 60.4278 28.1176C58.2724 28.1202 56.1183 28.1189 53.9629 28.1189C53.1023 26.0349 52.2569 23.9434 51.3962 21.8594C47.3361 21.8594 43.2759 21.8594 39.2145 21.8594C38.3538 23.9459 37.5147 26.0413 36.644 28.1227C34.5455 28.1151 32.4471 28.1227 30.3487 28.1189C34.4051 18.7442 38.4728 9.37465 42.5304 0ZM45.2743 7.48555C43.9847 10.459 42.7089 13.4376 41.423 16.4123C44.0125 16.411 46.602 16.4136 49.1915 16.411C47.9043 13.435 46.6286 10.4552 45.3389 7.48176C45.3224 7.48302 45.2895 7.48429 45.2743 7.48555Z" fill="white"/>
<path d="M-3.8147e-06 0.188477C2.21739 0.189742 4.43479 0.189742 6.65218 0.188477C9.10245 4.11599 11.5515 8.0435 14.0017 11.971C16.4507 8.0435 18.901 4.11852 21.3488 0.191007C23.5674 0.188477 25.7861 0.188477 28.006 0.191007C28.006 9.49986 28.0073 18.8087 28.0047 28.1176C25.962 28.1201 23.9205 28.1188 21.8778 28.1188C21.8765 22.0479 21.874 15.9757 21.8791 9.90476C19.3389 13.7576 16.7874 17.6042 14.2473 21.457C14.1473 21.605 14.0346 21.743 13.922 21.8822C13.8245 21.7657 13.7309 21.6468 13.6423 21.5253C11.1098 17.6927 8.57721 13.8601 6.04468 10.0288C6.04974 16.0579 6.04594 22.0884 6.04594 28.1188C4.03105 28.1201 2.01489 28.1176 -3.8147e-06 28.1201V0.188477Z" fill="white"/>
<path d="M93.909 0.189687C95.8137 0.192217 97.7185 0.182095 99.6246 0.196013C104.238 5.92152 108.873 11.6319 113.495 17.3523C113.49 11.6319 113.492 5.9114 113.492 0.189687C115.524 0.188421 117.555 0.189687 119.586 0.189687C119.585 9.49981 119.587 18.8087 119.585 28.1188C117.832 28.1188 116.08 28.1201 114.327 28.1188C109.565 22.2073 104.785 16.3097 100.019 10.3994C100.035 16.3059 99.9979 22.2123 100.004 28.1188C97.9729 28.1201 95.9428 28.1188 93.9128 28.1188C93.9064 18.8099 93.914 9.49981 93.909 0.189687Z" fill="white"/>
<path d="M140.439 0.14314C142.389 0.141875 144.34 0.14314 146.291 0.14314C146.29 3.83151 146.292 7.51987 146.29 11.2095C150.099 11.212 153.908 11.2082 157.717 11.2108C157.717 13.1568 157.719 15.1016 157.716 17.0464C153.908 17.0464 150.099 17.0451 146.291 17.0476C146.289 20.7373 146.294 24.4282 146.29 28.1191C144.34 28.1191 142.389 28.1203 140.44 28.1191C140.436 24.4282 140.443 20.7373 140.436 17.0464C136.615 17.0476 132.793 17.0438 128.971 17.0476C128.966 15.1016 128.97 13.1568 128.968 11.2108C132.792 11.2095 136.615 11.2108 140.439 11.2095C140.44 7.52114 140.438 3.83277 140.439 0.14314Z" fill="white"/>
<path d="M62.9477 28.1191C62.9452 18.809 62.9452 9.49889 62.9477 0.188765C64.8462 0.188765 66.7459 0.191296 68.6443 0.1875C73.2816 5.90542 77.8987 11.6373 82.5385 17.3514C82.5322 11.6309 82.5385 5.91048 82.536 0.190031C84.5673 0.190031 86.5987 0.188765 88.63 0.190031C88.63 9.50015 88.63 18.809 88.63 28.1191C86.8784 28.1204 85.128 28.1179 83.3776 28.1204C78.5922 22.2127 73.8221 16.2948 69.0417 10.3846C69.0379 16.2961 69.043 22.2076 69.0392 28.1191C67.0091 28.1204 64.9778 28.1191 62.9477 28.1191Z" fill="white"/>
<path d="M-3.8147e-06 33.6392C2.06045 33.6355 4.12091 33.638 6.18136 33.6367C6.18136 37.32 6.16618 41.0021 6.17504 44.6854C10.2959 44.6892 14.4181 44.6841 18.539 44.6879C18.5479 41.0046 18.5352 37.3213 18.5454 33.638C20.6008 33.6367 22.6574 33.6367 24.7141 33.638C24.7179 42.9506 24.7153 52.2633 24.7153 61.5759C22.6574 61.5772 20.5995 61.5785 18.5416 61.5759C18.5416 57.8433 18.5428 54.1106 18.5416 50.378C14.4181 50.3742 10.2959 50.3767 6.1725 50.3767C6.17377 54.1106 6.17377 57.8433 6.1725 61.5772C4.11585 61.5785 2.05792 61.5759 -3.8147e-06 61.5772V33.6392Z" fill="white"/>
<path d="M30.2145 33.6382C32.2775 33.6369 34.3405 33.6369 36.4035 33.6382C36.4098 38.4109 36.4035 43.1836 36.406 47.9564C36.4149 49.1812 36.3453 50.4212 36.6022 51.6283C36.8655 53.0087 37.5198 54.374 38.6652 55.2319C39.9726 56.2226 41.704 56.4428 43.2949 56.2682C44.7137 56.1252 46.1223 55.471 46.9842 54.3069C47.9955 52.9682 48.2676 51.2373 48.2802 49.6C48.2916 44.2794 48.2777 38.9588 48.2878 33.6382C50.3432 33.6382 52.3999 33.6369 54.4553 33.6382C54.4603 38.2831 54.4565 42.9293 54.4578 47.5742C54.4844 49.8315 54.4755 52.1306 53.8123 54.3107C53.1833 56.5073 51.886 58.547 50.0015 59.8705C47.9626 61.3243 45.4326 61.9076 42.9608 62H41.5812C39.055 61.9114 36.4592 61.2977 34.4114 59.7553C32.637 58.4369 31.4245 56.4655 30.8334 54.3537C30.3221 52.6064 30.1968 50.7742 30.2133 48.9623C30.2145 43.8542 30.2107 38.7462 30.2145 33.6382Z" fill="white"/>
<path d="M59.9456 33.6367C62.163 33.6367 64.3791 33.638 66.5953 33.6367C68.9114 37.5642 71.2174 41.4981 73.5309 45.4268C75.8483 41.4993 78.1518 37.563 80.4717 33.6367C82.6878 33.638 84.904 33.6367 87.1214 33.638C87.1252 42.9506 87.1201 52.2633 87.1226 61.5759C85.0774 61.5797 83.0308 61.5759 80.9856 61.5772C80.978 55.5126 80.9818 49.4467 80.983 43.3808C78.4998 47.3438 76.0293 51.3156 73.5322 55.2697C73.4879 55.2659 73.4006 55.2583 73.3576 55.2545C70.901 51.3434 68.4558 47.4222 66.0042 43.5074C66.0017 49.5302 66.0029 55.5531 66.0029 61.5759C63.983 61.5785 61.963 61.5785 59.9431 61.5759C59.9469 52.2633 59.9418 42.9494 59.9456 33.6367Z" fill="white"/>
<path d="M92.4396 33.6395C94.6582 33.6357 96.8781 33.6383 99.0968 33.637C101.414 37.5645 103.718 41.4996 106.034 45.4271C108.35 41.4984 110.655 37.562 112.975 33.6357C115.191 33.6408 117.406 33.6357 119.62 33.6383C119.617 42.9522 119.636 52.2674 119.612 61.5813C117.568 61.5724 115.523 61.5813 113.481 61.5762C113.481 55.5154 113.482 49.4546 113.479 43.3938C111.128 47.1467 108.779 50.9009 106.429 54.655C106.275 54.8891 106.154 55.1548 105.927 55.3307C103.416 51.4108 100.981 47.4415 98.502 43.5013C98.502 49.5267 98.502 55.5508 98.502 61.5762C96.4795 61.5788 94.4582 61.5775 92.4358 61.5762C92.4383 52.2636 92.4307 42.9522 92.4396 33.6395Z" fill="white"/>
<path d="M124.925 33.6367C132.058 33.638 139.192 33.6355 146.325 33.638C146.328 35.4651 146.327 37.2935 146.327 39.1206C141.231 39.1231 136.136 39.1206 131.04 39.1231C131.04 41.0033 131.04 42.8836 131.04 44.7638C135.571 44.7651 140.103 44.7626 144.634 44.7651C144.633 46.596 144.636 48.4269 144.633 50.2578C140.102 50.259 135.571 50.2578 131.041 50.2578C131.048 52.2026 131.021 54.1473 131.054 56.0908C136.145 56.0757 141.236 56.087 146.327 56.0845C146.328 57.9154 146.325 59.745 146.328 61.5759C139.192 61.5797 132.055 61.5747 124.92 61.5785C124.921 52.2646 124.911 42.9506 124.925 33.6367Z" fill="white"/>
<path d="M151.606 33.638C153.662 33.6355 155.719 33.6392 157.776 33.6367C157.787 41.0818 157.778 48.5268 157.781 55.9719C162.436 55.9706 167.091 55.9732 171.746 55.9706C171.748 57.8395 171.748 59.7084 171.746 61.5785C165.03 61.5684 158.313 61.5937 151.599 61.5658C151.612 52.257 151.598 42.9468 151.606 33.638Z" fill="white"/>
</g>
<defs>
<clipPath id="clip0_527_256">
<rect width="172" height="62" fill="white"/>
</clipPath>
</defs>
</svg>
