<svg width="205" height="231" viewBox="0 0 205 231" fill="none" xmlns="http://www.w3.org/2000/svg">
<g clip-path="url(#clip0_533_1156)">
<path d="M19.3158 194.059C19.3158 193.425 19.7913 192.791 20.5832 192.791H21.851C22.4845 192.791 22.8017 193.108 22.9601 193.583L23.594 195.803C24.0691 195.169 26.7627 192.315 31.6744 192.315C35.3187 192.315 37.5372 193.742 39.2802 196.278C39.9137 195.645 42.924 192.315 47.8362 192.315C55.4415 192.315 57.3428 197.706 57.3428 204.206V216.89C57.3428 217.524 56.8673 218.158 56.0754 218.158H53.0646C52.2728 218.158 51.7972 217.682 51.7972 216.89V204.047C51.7972 200.083 50.2126 197.547 46.8855 197.547C43.0829 197.547 41.3399 200.083 40.8643 200.559C41.0227 201.035 41.0227 202.62 41.0227 203.889V216.89C41.0227 217.524 40.5476 218.158 39.9137 218.158H36.7449C36.111 218.158 35.4771 217.682 35.4771 216.89V204.047C35.4771 199.925 34.0513 197.547 30.5654 197.547C26.7627 197.547 24.8614 200.401 24.703 201.194V216.89C24.703 217.524 24.0691 218.158 23.4352 218.158H20.4248C19.7913 218.158 19.1574 217.682 19.1574 216.89V194.059H19.3158V194.059Z" fill="white"/>
<path d="M60.1949 194.535C59.8781 193.742 60.3532 192.949 61.3039 192.949H64.9482C65.2649 192.949 65.8989 193.267 66.0572 193.584L71.92 210.865H72.0784L79.2086 193.584C79.367 192.949 79.8421 192.949 80.476 192.949H83.8031C84.9126 192.949 85.2294 193.742 84.9126 194.535L69.5432 230.207C69.3848 230.525 69.0681 231 68.4341 231H64.9482C63.9975 231 63.3636 230.207 63.8392 229.256L68.9092 217.048L60.1949 194.535Z" fill="white"/>
<path d="M88.0814 212.609L89.5076 210.389C89.9827 209.755 90.775 209.438 91.409 209.914C93.9438 211.975 96.0039 213.719 100.123 213.719C103.926 213.719 106.303 211.499 106.303 208.645C106.303 205.316 103.451 203.255 98.0636 201.035C92.518 198.657 88.0814 195.803 88.0814 189.461C88.0814 185.18 91.409 179.314 99.9649 179.314C105.352 179.314 109.472 182.168 110.106 182.486C110.581 182.803 110.898 183.595 110.422 184.388L108.996 186.449C108.521 187.083 107.887 187.559 107.095 186.925C105.035 185.498 102.975 184.229 99.8066 184.229C95.2116 184.229 93.627 187.083 93.627 189.144C93.627 192.315 96.0039 194.218 100.599 195.962C106.936 198.499 112.324 201.511 112.324 208.17C112.324 213.877 107.254 218.475 100.123 218.475C93.4687 218.475 89.3488 214.987 88.3981 214.195C87.923 213.877 87.4475 213.402 88.0814 212.609" fill="white"/>
<path d="M116.126 194.059C116.126 193.425 116.76 192.791 117.394 192.791H120.405C121.038 192.791 121.672 193.425 121.672 194.059V207.536C121.672 211.658 123.415 213.56 126.584 213.56C130.228 213.56 132.288 210.548 132.446 209.438V194.218C132.446 193.108 132.922 192.949 133.872 192.949H136.566C137.2 192.949 137.833 193.583 137.833 194.218V217.048C137.833 217.682 137.2 218.317 136.566 218.317H135.298C134.665 218.317 134.348 217.841 134.189 217.207L133.555 215.463C133.08 215.939 130.704 218.951 125.633 218.951C118.186 218.951 116.285 214.036 116.285 207.377V194.059H116.126V194.059Z" fill="white"/>
<path d="M166.512 218.158C166.512 225.927 161.442 229.891 154.787 229.891C150.668 229.891 147.182 227.829 146.073 226.719C145.597 226.402 145.597 225.61 145.756 225.293L147.023 222.914C147.34 222.28 148.132 222.122 148.766 222.597C149.717 223.231 151.777 224.975 154.629 224.975C157.956 224.975 160.967 223.39 160.967 218.158V216.731C160.491 217.048 157.798 218.475 154.47 218.475C147.657 218.475 142.27 212.609 142.27 205.316C142.27 198.181 147.182 192.157 154.154 192.157C158.907 192.157 161.601 194.694 162.076 195.169L162.71 193.584C162.868 193.108 163.026 192.633 163.66 192.633H165.086C165.72 192.633 166.354 193.266 166.354 193.901V218.158H166.512V218.158ZM155.263 213.402C158.59 213.402 161.125 211.341 161.125 211.341V200.877C160.65 199.925 158.431 197.389 155.104 197.389C150.826 197.389 147.974 201.035 147.974 205.316C147.816 209.755 151.143 213.402 155.263 213.402" fill="white"/>
<path d="M172.533 194.059C172.533 193.425 173.009 192.791 173.8 192.791H175.068C175.543 192.791 176.019 193.108 176.177 193.742L176.811 195.961C177.286 195.327 179.822 192.315 184.417 192.315C186.793 192.315 189.804 192.949 189.012 194.693L187.744 197.389C187.427 198.022 186.793 198.34 186.16 198.022C185.842 197.864 184.575 197.547 183.941 197.547C180.297 197.547 178.237 200.559 178.079 200.876V216.89C178.079 217.999 177.445 218.158 176.336 218.158H173.8C173.167 218.158 172.533 217.682 172.533 216.89V194.059V194.059Z" fill="white"/>
<path d="M199.944 33.2945H189.962C188.061 23.9404 180.772 16.6472 171.424 14.7447V4.75629C171.424 2.06098 169.364 0 166.671 0C163.977 0 161.917 2.06098 161.917 4.75629V14.7447C151.143 16.9642 142.903 26.4772 142.903 38.0508C142.903 42.9655 144.33 47.4049 146.865 51.2099L141.002 57.0764C130.703 48.1977 117.236 42.8071 102.5 42.8071C87.7645 42.8071 74.2963 48.1977 63.9974 57.0764L58.1351 51.2099C60.6703 47.4049 62.0961 42.9655 62.0961 38.0508C62.0961 24.8916 51.4804 14.2689 38.3295 14.2689C33.4173 14.2689 28.9812 15.696 25.1781 18.2328L17.89 10.9397C15.9886 9.03718 12.9778 9.03718 11.2348 10.9397C9.33351 12.8422 9.33351 15.8545 11.2348 17.5985L18.5234 24.8916C16.9393 27.4285 15.6714 30.2823 15.038 33.2945H5.05575C2.36213 33.2945 0.302429 35.3555 0.302429 38.0508C0.302429 40.7461 2.36213 42.8071 5.05575 42.8071H15.038C17.256 53.5883 26.7627 61.8327 38.3295 61.8327C43.2412 61.8327 47.6777 60.4056 51.4804 57.8687L57.3428 63.7352C48.47 74.0406 43.0828 87.5167 43.0828 102.261C43.0828 135.08 69.7019 161.716 102.5 161.716C135.298 161.716 161.917 135.08 161.917 102.261C161.917 87.5167 156.53 74.0406 147.657 63.7352L153.52 57.8687C157.322 60.4056 161.759 61.8327 166.671 61.8327C178.237 61.8327 187.744 53.5883 189.962 42.8071H199.944C202.638 42.8071 204.698 40.7461 204.698 38.0508C204.698 35.3555 202.638 33.2945 199.944 33.2945M47.8361 42.8071H28.8224C26.1292 42.8071 24.069 40.7461 24.069 38.0508C24.069 35.3555 26.1292 33.2945 28.8224 33.2945H47.8361C50.5297 33.2945 52.5894 35.3555 52.5894 38.0508C52.5894 40.7461 50.5297 42.8071 47.8361 42.8071ZM142.745 105.274C141.161 125.885 123.098 142.691 102.5 142.691C81.9021 142.691 63.839 125.885 62.2544 105.274C62.0961 102.737 62.8884 100.042 64.7897 98.1394C66.5327 96.2369 69.0679 95.1272 71.7616 95.1272H81.2682V102.261C81.2682 104.957 83.3279 107.018 86.0215 107.018H95.5282C98.2218 107.018 100.281 104.957 100.281 102.261V95.1272H133.555C136.249 95.1272 138.784 96.2369 140.527 98.1394C142.112 100.042 143.062 102.737 142.745 105.274M176.177 42.8071H171.424V47.5634C171.424 50.2587 169.364 52.3201 166.671 52.3201C163.977 52.3201 161.917 50.2587 161.917 47.5634V42.8071H157.164C154.47 42.8071 152.411 40.7461 152.411 38.0508C152.411 35.3555 154.47 33.2945 157.164 33.2945H161.917V28.5382C161.917 25.8429 163.977 23.7819 166.671 23.7819C169.364 23.7819 171.424 25.8429 171.424 28.5382V33.2945H176.177C178.871 33.2945 180.931 35.3555 180.931 38.0508C180.931 40.7461 178.871 42.8071 176.177 42.8071" fill="white"/>
</g>
<defs>
<clipPath id="clip0_533_1156">
<rect width="205" height="231" fill="white"/>
</clipPath>
</defs>
</svg>
