<?xml version="1.0" encoding="utf-8"?>
<!-- Generator: Adobe Illustrator 23.0.0, SVG Export Plug-In . SVG Version: 6.00 Build 0)  -->
<svg version="1.1"
	 id="Layer_1" xmlns:cc="http://creativecommons.org/ns#" xmlns:dc="http://purl.org/dc/elements/1.1/" xmlns:inkscape="http://www.inkscape.org/namespaces/inkscape" xmlns:rdf="http://www.w3.org/1999/02/22-rdf-syntax-ns#" xmlns:sodipodi="http://sodipodi.sourceforge.net/DTD/sodipodi-0.dtd" xmlns:svg="http://www.w3.org/2000/svg"
	 xmlns="http://www.w3.org/2000/svg" xmlns:xlink="http://www.w3.org/1999/xlink" x="0px" y="0px" viewBox="0 0 240 66.2"
	 style="enable-background:new 0 0 240 66.2;" xml:space="preserve">
<style type="text/css">
	.st0{fill:#FFFFFF;}
</style>
<sodipodi:namedview  bordercolor="#666666" borderopacity="1" fit-margin-bottom="0" fit-margin-left="0" fit-margin-right="0" fit-margin-top="0" gridtolerance="10" guidetolerance="10" id="namedview16" inkscape:current-layer="Layer_1" inkscape:cx="-283.46929" inkscape:cy="80.449994" inkscape:pageopacity="0" inkscape:pageshadow="2" inkscape:window-height="1056" inkscape:window-maximized="1" inkscape:window-width="1855" inkscape:window-x="65" inkscape:window-y="24" inkscape:zoom="0.58604418" objecttolerance="10" pagecolor="#ffffff" showgrid="false">
	</sodipodi:namedview>
<g id="green">
</g>
<g id="gray-100">
</g>
<g>
	<g id="gray-7_1_">
		<g id="g8_1_">
			<g id="g10_1_">
				<g id="g12_1_">
					<path id="path14_1_" inkscape:connector-curvature="0" class="st0" d="M72.1,17.5h-2v2c0,1.1-0.8,2-2,2c-1.1,0-2-0.8-2-2v-2h-2
						c-1.1,0-2-0.8-2-2s0.8-2,2-2h2v-2c0-1.1,0.8-2,2-2c1.1,0,2,0.8,2,2v2h2c1.1,0,2,0.8,2,2S73.2,17.5,72.1,17.5 M58.4,43.1
						c-0.7,8.4-8.1,15.3-16.5,15.3c-8.4,0-15.8-6.9-16.5-15.3c-0.1-1,0.3-2.1,1-2.9c0.7-0.8,1.8-1.2,2.9-1.2h3.9v2.9
						c0,1.1,0.8,2,2,2h3.9c1.1,0,2-0.8,2-2V39h13.6c1.1,0,2.1,0.4,2.9,1.2C58.2,41,58.5,42.1,58.4,43.1 M19.5,17.5h-7.8
						c-1.1,0-2-0.8-2-2s0.8-2,2-2h7.8c1.1,0,2,0.8,2,2C21.4,16.7,20.6,17.5,19.5,17.5 M81.9,13.6h-4.1C77,9.8,74,6.8,70.2,6V2
						c0-1.1-0.8-2-2-2c-1.1,0-2,0.8-2,2V6c-4.4,0.9-7.8,4.8-7.8,9.5c0,2,0.6,3.8,1.6,5.4l-2.4,2.4c-4.2-3.6-9.8-5.9-15.8-5.9
						s-11.6,2.2-15.8,5.9L23.7,21c1-1.6,1.6-3.4,1.6-5.4c0-5.4-4.3-9.8-9.8-9.8c-2,0-3.8,0.6-5.4,1.6l-3-3c-0.8-0.8-2-0.8-2.7,0
						c-0.8,0.8-0.8,2,0,2.7l3,3c-0.7,1-1.2,2.2-1.4,3.4H2c-1.1,0-2,0.8-2,2s0.8,2,2,2H6c0.9,4.4,4.8,7.8,9.5,7.8
						c2,0,3.8-0.6,5.4-1.6l2.4,2.4c-3.6,4.2-5.9,9.8-5.9,15.8c0,13.4,10.9,24.4,24.4,24.4s24.4-10.9,24.4-24.4
						c0-6-2.2-11.6-5.9-15.8l2.4-2.4c1.6,1,3.4,1.6,5.4,1.6c4.7,0,8.7-3.4,9.5-7.8h4.1c1.1,0,2-0.8,2-2C83.8,14.5,83,13.6,81.9,13.6
						"/>
				</g>
			</g>
		</g>
	</g>
	<g>
		<path class="st0" d="M96.6,28.5c0-0.5,0.5-1,1-1h1.1c0.5,0,0.8,0.2,0.9,0.6l0.6,1.8c0.5-0.5,2.7-3,6.8-3c3.1,0,4.9,1.2,6.5,3.3
			c0.6-0.6,3.1-3.3,7.1-3.3c6.5,0,8.1,4.5,8.1,10v10.7c0,0.6-0.4,1-1,1h-2.6c-0.6,0-1-0.5-1-1V36.8c0-3.4-1.3-5.5-4.2-5.5
			c-3.2,0-4.8,2.2-5.1,2.5c0.1,0.5,0.1,1.7,0.1,2.8v11c0,0.6-0.5,1-1,1h-2.6c-0.6,0-1-0.5-1-1V36.8c0-3.5-1.2-5.5-4.2-5.5
			c-3.2,0-4.8,2.3-5,3.1v13.2c0,0.6-0.5,1-1,1h-2.5c-0.6,0-1-0.5-1-1V28.5z"/>
		<path class="st0" d="M131.3,28.8c-0.3-0.7,0.1-1.4,0.9-1.4h3c0.4,0,0.8,0.2,0.9,0.6l4.9,14.6h0.1l6-14.6c0.1-0.5,0.6-0.6,1.1-0.6
			h2.8c0.9,0,1.2,0.6,0.9,1.4L139,59c-0.1,0.4-0.5,0.6-0.9,0.6h-3c-0.8,0-1.3-0.6-0.9-1.4l4.3-10.2L131.3,28.8z"/>
		<path class="st0" d="M154.7,44l1.2-1.9c0.4-0.6,1.1-0.8,1.6-0.4c2.2,1.8,3.8,3.2,7.4,3.2c3.2,0,5.2-1.9,5.2-4.3
			c0-2.7-2.4-4.5-6.9-6.4c-4.7-1.9-8.4-4.4-8.4-9.7c0-3.6,2.7-8.5,10.1-8.5c4.6,0,8.1,2.4,8.5,2.7c0.4,0.2,0.7,0.9,0.3,1.6l-1.2,1.7
			c-0.4,0.6-1,0.9-1.7,0.5c-1.8-1.2-3.5-2.3-6.2-2.3c-3.8,0-5.2,2.5-5.2,4.1c0,2.6,2,4.3,5.8,5.8c5.3,2.2,9.9,4.7,9.9,10.3
			c0,4.8-4.3,8.7-10.2,8.7c-5.6,0-9.2-3-9.9-3.6C154.6,45.1,154.2,44.8,154.7,44"/>
		<path class="st0" d="M178.5,28.5c0-0.5,0.5-1,1-1h2.6c0.6,0,1,0.5,1,1v11.3c0,3.5,1.4,5.1,4.1,5.1c3.1,0,4.8-2.5,5-3.5V28.5
			c0-0.9,0.4-1,1.2-1h2.3c0.6,0,1.1,0.5,1.1,1v19.2c0,0.6-0.5,1-1.1,1h-1.1c-0.6,0-0.8-0.4-1-0.9l-0.6-1.5c-0.5,0.5-2.4,2.9-6.7,2.9
			c-6.3,0-7.9-4.2-7.9-9.7L178.5,28.5L178.5,28.5z"/>
		<path class="st0" d="M211.5,44.8c2.8,0,4.9-1.7,4.9-1.7v-8.8c-0.4-0.8-2.2-3-5.1-3c-3.6,0-6,3.1-6,6.7
			C205.3,41.7,208.1,44.8,211.5,44.8 M221.1,48.8c0,6.6-4.3,10-9.8,10c-3.5,0-6.4-1.7-7.4-2.7c-0.4-0.2-0.4-0.9-0.2-1.2l1.1-2
			c0.3-0.6,0.9-0.7,1.4-0.4c0.7,0.6,2.5,1.9,5,1.9c2.8,0,5.3-1.4,5.3-5.7v-1.2c-0.4,0.2-2.7,1.5-5.4,1.5c-5.8,0-10.2-4.9-10.2-11.1
			c0-6.1,4.2-11.1,10-11.1c4,0,6.4,2.2,6.7,2.5l0.6-1.3c0.1-0.4,0.3-0.7,0.8-0.7h1.2c0.6,0,1,0.5,1,1L221.1,48.8L221.1,48.8z"/>
		<path class="st0" d="M226,28.5c0-0.5,0.5-1,1-1h1.1c0.4,0,0.8,0.4,0.9,0.7l0.6,1.9c0.4-0.6,2.6-3.1,6.4-3.1c2,0,4.5,0.6,3.8,1.9
			l-1.1,2.3c-0.3,0.6-0.8,0.7-1.3,0.5c-0.4-0.1-1.3-0.4-1.9-0.4c-3.1,0-4.8,2.5-5,2.8v13.5c0,0.9-0.6,1-1.5,1h-2.2c-0.6,0-1-0.5-1-1
			L226,28.5L226,28.5z"/>
	</g>
</g>
</svg>
