<svg width="238" height="72" viewBox="0 0 238 72" fill="none" xmlns="http://www.w3.org/2000/svg">
<path fill-rule="evenodd" clip-rule="evenodd" d="M21.7302 35.9998H36.0216V50.283C28.1287 50.283 21.7302 43.8881 21.7302 35.9998ZM36.0216 59.9999C22.7589 59.9999 12.0072 49.2548 12.0072 35.9998C12.0072 22.7452 22.7589 12.0001 36.0216 12.0001V35.9998H60.0361C60.0361 49.2548 49.2845 59.9999 36.0216 59.9999ZM36.0216 0C16.1274 0 0 16.1178 0 35.9998C0 55.8822 16.1274 72 36.0216 72C55.9161 72 72.0434 55.8822 72.0434 35.9998C72.0434 16.1178 55.9161 0 36.0216 0Z" fill="white"/>
<path fill-rule="evenodd" clip-rule="evenodd" d="M95.1523 41.4669C95.822 41.4669 96.4968 41.3447 97.1762 41.1003C97.8552 40.8559 98.4663 40.4717 99.0095 39.9465C99.5528 39.4218 99.9964 38.7519 100.341 37.9377C100.684 37.1232 100.857 36.146 100.857 35.0057C100.857 33.8656 100.684 32.8883 100.341 32.0738C99.9964 31.2593 99.5482 30.5903 98.9959 30.065C98.4434 29.5404 97.8279 29.1556 97.1489 28.9113C96.4697 28.6669 95.8044 28.5448 95.1523 28.5448C94.5004 28.5448 93.8349 28.6669 93.1557 28.9113C92.4767 29.1556 91.8609 29.5404 91.3087 30.065C90.7561 30.5903 90.3079 31.2593 89.964 32.0738C89.6199 32.8883 89.4478 33.8656 89.4478 35.0057C89.4478 36.146 89.6151 37.1232 89.9504 37.9377C90.2854 38.7519 90.7247 39.4218 91.268 39.9465C91.8113 40.4717 92.4223 40.8559 93.1015 41.1003C93.7805 41.3447 94.464 41.4669 95.1523 41.4669ZM95.1523 44.7787C93.8844 44.7787 92.6805 44.575 91.5395 44.1678C90.3986 43.7608 89.3934 43.15 88.5246 42.3355C87.6552 41.521 86.9667 40.503 86.46 39.2816C85.9527 38.0598 85.6993 36.6343 85.6993 35.0057C85.6993 33.3951 85.9617 31.9788 86.4871 30.7573C87.0121 29.5356 87.7096 28.5175 88.5786 27.703C89.4478 26.8888 90.453 26.2737 91.5939 25.8572C92.7347 25.4411 93.9207 25.2329 95.1523 25.2329C96.3836 25.2329 97.5699 25.4411 98.7107 25.8572C99.8516 26.2737 100.857 26.8888 101.726 27.703C102.595 28.5175 103.292 29.5356 103.818 30.7573C104.343 31.9788 104.605 33.3951 104.605 35.0057C104.605 36.6343 104.352 38.0598 103.845 39.2816C103.338 40.503 102.65 41.521 101.78 42.3355C100.911 43.15 99.906 43.7608 98.7651 44.1678C97.6242 44.575 96.4197 44.7787 95.1523 44.7787Z" fill="white"/>
<path fill-rule="evenodd" clip-rule="evenodd" d="M107.566 26.0472C107.566 25.6855 107.747 25.5044 108.109 25.5044H110.554C110.916 25.5044 111.097 25.6855 111.097 26.0472V41.1955H120.197C120.559 41.1955 120.74 41.3766 120.74 41.7384V43.9644C120.74 44.3269 120.559 44.5075 120.197 44.5075H108.109C107.747 44.5075 107.566 44.3269 107.566 43.9644V26.0472Z" fill="white"/>
<path fill-rule="evenodd" clip-rule="evenodd" d="M127.531 34.5171L122.506 26.1559C122.433 26.0294 122.397 25.9209 122.397 25.8301C122.397 25.6131 122.533 25.5044 122.804 25.5044H125.765C125.983 25.5044 126.141 25.5315 126.241 25.5857C126.34 25.64 126.444 25.7488 126.553 25.9116L129.623 31.0968L132.719 25.9116C132.828 25.7488 132.932 25.64 133.032 25.5857C133.131 25.5315 133.29 25.5044 133.507 25.5044H136.468C136.74 25.5044 136.875 25.6131 136.875 25.8301C136.875 25.9209 136.839 26.0294 136.767 26.1559L131.741 34.5171L137.364 43.91C137.437 44.0008 137.473 44.1001 137.473 44.2088C137.473 44.408 137.346 44.5075 137.093 44.5075H133.779C133.525 44.5075 133.353 44.4623 133.263 44.3716C133.172 44.2812 133.073 44.1458 132.964 43.9644L129.623 38.2364L126.254 43.9644C126.146 44.1458 126.046 44.2812 125.956 44.3716C125.865 44.4623 125.693 44.5075 125.439 44.5075H122.18C121.926 44.5075 121.8 44.408 121.8 44.2088C121.8 44.1001 121.835 44.0008 121.908 43.91L127.531 34.5171Z" fill="white"/>
<path fill-rule="evenodd" clip-rule="evenodd" d="M152.549 34.9242C152.549 34.5625 152.729 34.3814 153.091 34.3814H163.143C163.504 34.3814 163.685 34.5625 163.685 34.9242V35.3315C163.685 36.7252 163.486 38.0013 163.089 39.1591C162.689 40.3176 162.115 41.3132 161.363 42.1455C160.611 42.9781 159.702 43.6251 158.634 44.0867C157.564 44.5479 156.361 44.7787 155.02 44.7787C153.771 44.7787 152.567 44.5794 151.407 44.1816C150.249 43.7836 149.217 43.1771 148.311 42.3626C147.405 41.5484 146.681 40.5302 146.138 39.3085C145.595 38.0871 145.323 36.6528 145.323 35.0057C145.323 33.4134 145.599 32.0062 146.151 30.7843C146.704 29.5625 147.432 28.5404 148.338 27.7168C149.244 26.8933 150.285 26.2737 151.462 25.8572C152.639 25.4411 153.853 25.2329 155.102 25.2329C155.989 25.2329 156.826 25.3371 157.615 25.545C158.403 25.7532 159.131 26.0336 159.801 26.3865C160.471 26.7395 161.068 27.1512 161.594 27.6218C162.118 28.0925 162.563 28.5812 162.925 29.0876C163.015 29.1961 163.061 29.3229 163.061 29.4679C163.061 29.6128 162.97 29.7757 162.789 29.9563L161.105 31.4495C160.943 31.5944 160.787 31.6666 160.643 31.6666C160.481 31.6666 160.327 31.5675 160.181 31.368C159.475 30.4451 158.715 29.7439 157.901 29.2642C157.084 28.7849 156.108 28.5448 154.966 28.5448C154.206 28.5448 153.473 28.6804 152.766 28.952C152.06 29.2234 151.435 29.6265 150.891 30.16C150.349 30.694 149.909 31.364 149.574 32.1688C149.239 32.9744 149.072 33.92 149.072 35.0057C149.072 36.0373 149.239 36.956 149.574 37.7612C149.909 38.5667 150.349 39.2453 150.891 39.7973C151.435 40.3496 152.063 40.7657 152.78 41.046C153.495 41.327 154.233 41.4669 154.993 41.4669C156.26 41.4669 157.32 41.1547 158.172 40.5302C159.023 39.906 159.585 38.9602 159.856 37.6934H153.091C152.729 37.6934 152.549 37.5126 152.549 37.1503V34.9242Z" fill="white"/>
<path fill-rule="evenodd" clip-rule="evenodd" d="M174.279 32.6713C175.076 32.6713 175.702 32.5084 176.154 32.1825C176.606 31.8568 176.832 31.3776 176.832 30.7438C176.832 30.1105 176.606 29.6308 176.154 29.3049C175.702 28.9793 175.076 28.8163 174.279 28.8163H170.151V32.6713H174.279ZM166.62 26.0472C166.62 25.6855 166.8 25.5044 167.162 25.5044H174.09C176.099 25.5044 177.657 25.966 178.762 26.889C179.866 27.812 180.418 29.106 180.418 30.7709C180.418 31.5676 180.283 32.2685 180.011 32.8748C179.74 33.4816 179.373 34.0014 178.911 34.4359C178.449 34.8702 177.907 35.2143 177.281 35.4674C176.656 35.7209 175.99 35.8929 175.285 35.9833L181.125 43.91C181.198 44.0008 181.233 44.1001 181.233 44.2088C181.233 44.408 181.116 44.5075 180.88 44.5075H177.512C177.312 44.5075 177.167 44.4761 177.078 44.4125C176.986 44.3493 176.887 44.2453 176.778 44.1001L170.802 35.9833H170.151V43.9644C170.151 44.3269 169.969 44.5075 169.608 44.5075H167.162C166.8 44.5075 166.62 44.3269 166.62 43.9644V26.0472Z" fill="white"/>
<path fill-rule="evenodd" clip-rule="evenodd" d="M191.854 41.4669C192.524 41.4669 193.2 41.3447 193.878 41.1003C194.558 40.8559 195.169 40.4717 195.712 39.9465C196.255 39.4218 196.699 38.7519 197.044 37.9377C197.387 37.1232 197.558 36.146 197.558 35.0057C197.558 33.8656 197.387 32.8883 197.044 32.0738C196.699 31.2593 196.25 30.5903 195.698 30.065C195.146 29.5404 194.531 29.1556 193.851 28.9113C193.172 28.6669 192.507 28.5448 191.854 28.5448C191.203 28.5448 190.537 28.6669 189.857 28.9113C189.179 29.1556 188.563 29.5404 188.012 30.065C187.458 30.5903 187.009 31.2593 186.666 32.0738C186.321 32.8883 186.15 33.8656 186.15 35.0057C186.15 36.146 186.318 37.1232 186.653 37.9377C186.987 38.7519 187.426 39.4218 187.97 39.9465C188.514 40.4717 189.125 40.8559 189.803 41.1003C190.483 41.3447 191.166 41.4669 191.854 41.4669ZM191.854 44.7787C190.587 44.7787 189.383 44.575 188.241 44.1678C187.101 43.7608 186.095 43.15 185.226 42.3355C184.357 41.521 183.669 40.503 183.162 39.2816C182.655 38.0598 182.402 36.6343 182.402 35.0057C182.402 33.3951 182.663 31.9788 183.189 30.7573C183.714 29.5356 184.411 28.5175 185.28 27.703C186.15 26.8888 187.155 26.2737 188.295 25.8572C189.437 25.4411 190.622 25.2329 191.854 25.2329C193.086 25.2329 194.272 25.4411 195.413 25.8572C196.554 26.2737 197.558 26.8888 198.428 27.703C199.297 28.5175 199.994 29.5356 200.52 30.7573C201.045 31.9788 201.308 33.3951 201.308 35.0057C201.308 36.6343 201.054 38.0598 200.548 39.2816C200.039 40.503 199.351 41.521 198.482 42.3355C197.613 43.15 196.607 43.7608 195.467 44.1678C194.327 44.575 193.123 44.7787 191.854 44.7787Z" fill="white"/>
<path fill-rule="evenodd" clip-rule="evenodd" d="M204.214 26.0472C204.214 25.6855 204.395 25.5044 204.757 25.5044H207.201C207.564 25.5044 207.745 25.6855 207.745 26.0472V36.4447C207.745 37.386 207.854 38.1779 208.072 38.8201C208.289 39.4628 208.587 39.9786 208.969 40.3674C209.349 40.757 209.791 41.0372 210.298 41.209C210.807 41.3814 211.341 41.467 211.902 41.467C212.463 41.467 212.997 41.3814 213.504 41.209C214.011 41.0372 214.455 40.757 214.835 40.3674C215.215 39.9786 215.515 39.4628 215.731 38.8201C215.95 38.1779 216.057 37.386 216.057 36.4447V26.0472C216.057 25.6855 216.238 25.5044 216.601 25.5044H219.046C219.407 25.5044 219.588 25.6855 219.588 26.0472V36.1734C219.588 39.0873 218.915 41.2497 217.564 42.6614C216.216 44.0732 214.328 44.7789 211.902 44.7789C209.474 44.7789 207.586 44.0732 206.238 42.6614C204.889 41.2497 204.214 39.0873 204.214 36.1734V26.0472Z" fill="white"/>
<path fill-rule="evenodd" clip-rule="evenodd" d="M230.671 33.9743C232.755 33.9743 233.795 33.1149 233.795 31.3954C233.795 29.676 232.755 28.8163 230.671 28.8163H226.733V33.9743H230.671ZM223.201 26.0472C223.201 25.6855 223.383 25.5044 223.745 25.5044H231.051C232.12 25.5044 233.048 25.6583 233.836 25.966C234.625 26.2739 235.276 26.6987 235.792 27.2417C236.308 27.7847 236.693 28.4186 236.947 29.1419C237.2 29.8662 237.327 30.6445 237.327 31.4769C237.327 32.2733 237.2 33.0242 236.947 33.7299C236.693 34.4359 236.316 35.0513 235.819 35.5761C235.321 36.1009 234.701 36.5173 233.959 36.8247C233.216 37.1326 232.346 37.2863 231.351 37.2863H226.733V43.9644C226.733 44.3269 226.552 44.5075 226.189 44.5075H223.745C223.383 44.5075 223.201 44.3269 223.201 43.9644V26.0472Z" fill="white"/>
</svg>
