<svg width="240" height="67" viewBox="0 0 240 67" fill="none" xmlns="http://www.w3.org/2000/svg">
<path d="M52.0732 26.5045C51.5107 24.775 50.7959 23.2996 49.8247 22.0784C48.8546 20.8571 47.679 19.8912 46.3001 19.2288C44.92 18.5676 43.3876 18.2629 41.7523 18.2629C40.0154 18.2629 38.4817 18.67 37.1029 19.4841C35.7228 20.3489 34.5484 21.4678 33.5771 22.8926C32.6071 24.3174 31.891 25.9963 31.4314 27.8787C30.921 29.8118 30.6646 31.846 30.6646 34.0344C30.6646 36.731 30.9718 39.0205 31.533 40.903C32.0954 42.7854 32.9131 44.2608 33.8843 45.3797C34.8544 46.5504 36.03 47.3633 37.3073 47.8728C38.5845 48.381 39.9634 48.6364 41.3943 48.6364C42.9279 48.6364 44.4096 48.3304 45.7885 47.6692C47.1685 47.008 48.395 46.0409 49.4679 44.7185C50.4899 43.3961 51.3063 41.7172 51.9704 39.6817C52.5836 37.6463 52.8908 35.2556 52.8908 32.4566C52.8908 30.2694 52.6356 28.2858 52.0732 26.5045ZM23.7159 26.5045C24.6363 24.3174 25.9644 22.3831 27.6504 20.7042C29.3365 19.0253 31.4314 17.7534 33.8323 16.7875C36.2344 15.8204 38.9426 15.3627 41.9059 15.3627C44.614 15.3627 47.1685 15.7192 49.5187 16.4816C51.8688 17.2452 53.9129 18.3641 55.6497 19.8394C57.3866 21.3148 58.7667 23.1973 59.7875 25.4868C60.7588 27.7764 61.2704 30.473 61.2704 33.5249C61.2704 36.0698 60.8096 38.4605 59.8395 40.6489C58.8683 42.836 57.4894 44.7691 55.8033 46.3974C54.0653 48.0763 52.0224 49.3482 49.6203 50.2635C47.2193 51.18 44.614 51.6377 41.7523 51.6377C39.0442 51.6377 36.5404 51.2812 34.1903 50.62C31.7894 49.9588 29.7453 48.8905 28.0085 47.4151C26.2196 45.9397 24.8407 44.0573 23.8187 41.7677C22.7966 39.4782 22.2862 36.7816 22.2862 33.5767C22.2862 31.0836 22.7458 28.6917 23.7159 26.5045" fill="white"/>
<path d="M81.4508 22.5361C81.1448 21.6714 80.736 20.9584 80.2752 20.3996C79.7648 19.8901 79.2023 19.5348 78.5383 19.2795C77.8743 19.0253 77.1594 18.9242 76.4434 18.9242H75.269C75.1153 18.9242 74.9109 18.9242 74.7573 18.9242C74.6049 18.9242 74.4513 18.9242 74.2977 18.9748C74.2469 21.4173 74.2469 23.808 74.2469 26.1481C74.1961 28.54 74.1961 30.8801 74.1961 33.2709C75.0645 33.2709 75.933 33.1697 76.8522 33.0167C77.7219 32.8638 78.5383 32.5073 79.3051 31.9484C80.072 31.439 80.684 30.6766 81.1448 29.7095C81.6045 28.7436 81.8597 27.4199 81.8597 25.7928C81.8597 24.5198 81.7061 23.4009 81.4508 22.5361ZM66.5314 22.5867C66.4806 20.3996 66.379 18.2112 66.2253 16.024C66.7878 16.0746 67.4518 16.1252 68.1158 16.177C68.7799 16.2276 69.5455 16.2781 70.4151 16.2781C71.5896 16.2781 72.8668 16.2276 74.1441 16.1252C75.4214 16.0746 76.6478 16.024 77.8743 16.024C80.2752 16.024 82.1657 16.177 83.5457 16.5323C84.9258 16.8888 85.9987 17.4488 86.7643 18.11C87.8371 18.9748 88.6548 19.9925 89.1664 21.0608C89.6768 22.1291 89.932 23.4515 89.932 24.9786C89.932 26.9117 89.626 28.5906 88.962 29.9636C88.2968 31.3378 87.4295 32.4567 86.2539 33.3226C85.0782 34.1874 83.6485 34.8486 82.0641 35.2557C80.4808 35.6628 78.6919 35.8663 76.8014 35.8663H74.1961C74.1961 38.41 74.2469 40.9536 74.2977 43.4467C74.3485 45.9904 74.4513 48.4835 74.6049 50.9766C74.0425 50.9248 73.3785 50.8742 72.7144 50.8742H70.4151H68.1158C67.4518 50.8742 66.7866 50.9248 66.2253 50.9766C66.379 48.8906 66.4806 46.7022 66.5314 44.515C66.5834 42.3266 66.6342 39.8336 66.6342 37.0358V30.1166C66.6342 27.3188 66.5834 24.7751 66.5314 22.5867V22.5867Z" fill="white"/>
<path d="M101.019 21.6208C100.969 20.8066 100.917 20.196 100.866 19.8395C100.355 19.8395 99.7421 19.8395 98.9753 19.8913C98.2084 19.9419 97.4428 19.9419 96.5743 19.9925C95.7059 20.0431 94.8375 20.1454 93.9678 20.196C93.0994 20.2984 92.2817 20.3996 91.5161 20.5019C91.5669 20.1454 91.6685 19.7383 91.7205 19.3818C91.7713 19.0266 91.7713 18.6195 91.7713 18.263C91.7713 17.9065 91.7713 17.4994 91.7205 17.1441C91.6697 16.7876 91.5669 16.3805 91.5161 16.024C92.6906 16.0758 93.7126 16.0758 94.6839 16.1264C95.6031 16.177 96.5743 16.177 97.5444 16.177C98.5156 16.2276 99.5377 16.2276 100.712 16.2276C101.837 16.2781 103.216 16.2781 104.8 16.2781C106.384 16.2781 107.764 16.2781 108.938 16.2276C110.063 16.2276 111.085 16.2276 112.055 16.177C113.026 16.177 113.946 16.177 114.866 16.1264C115.734 16.0758 116.704 16.0758 117.777 16.024C117.727 16.3805 117.676 16.7876 117.625 17.1441C117.574 17.4994 117.522 17.9065 117.522 18.263C117.522 18.6195 117.574 19.0266 117.625 19.3818C117.676 19.7383 117.727 20.1454 117.777 20.5019C117.113 20.3996 116.348 20.2984 115.478 20.196C114.61 20.1454 113.793 20.0431 112.976 19.9925C112.107 19.9419 111.34 19.9419 110.573 19.8913C109.808 19.8395 109.195 19.8395 108.683 19.8395C108.632 19.9925 108.632 20.2466 108.632 20.5525C108.581 20.8572 108.581 21.2137 108.581 21.6208V24.3174V37.0358C108.581 39.8348 108.632 42.3279 108.683 44.515C108.734 46.7034 108.837 48.8906 108.99 50.9766C108.428 50.926 107.764 50.8742 107.1 50.8742H104.8H102.501C101.837 50.8742 101.173 50.926 100.611 50.9766C100.764 48.8906 100.866 46.7034 100.917 44.515C100.969 42.3279 101.019 39.8348 101.019 37.0358V24.3174V21.6208Z" fill="white"/>
<path d="M125.033 22.587C124.982 20.3998 124.879 18.2114 124.727 16.0242C125.288 16.0748 125.952 16.1254 126.616 16.1772C127.282 16.2278 128.047 16.2784 128.917 16.2784C129.785 16.2784 130.551 16.2278 131.215 16.1772C131.879 16.1254 132.544 16.0748 133.105 16.0242C132.953 18.2114 132.85 20.3998 132.799 22.587C132.749 24.7741 132.697 27.319 132.697 30.1168V37.036C132.697 39.8338 132.749 42.3269 132.799 44.5152C132.85 46.7024 132.952 48.8896 133.105 50.9756C132.544 50.925 131.879 50.8744 131.215 50.8744H128.917H126.616C125.952 50.8744 125.288 50.925 124.727 50.9756C124.879 48.8896 124.982 46.7024 125.033 44.5152C125.084 42.3269 125.136 39.8338 125.136 37.036V30.1168C125.136 27.319 125.084 24.7741 125.033 22.587Z" fill="white"/>
<path d="M146.338 39.5797C146.083 43.3952 145.777 47.1601 145.52 50.9756C145.111 50.925 144.703 50.8744 144.294 50.8744H143.119H141.944C141.535 50.8744 141.126 50.925 140.717 50.9756C141.791 45.1259 142.761 39.3255 143.63 33.577C144.498 27.8272 145.265 21.9763 145.98 16.0242C146.338 16.0748 146.696 16.1254 147.053 16.1772C147.36 16.2278 147.717 16.2784 148.075 16.2784C148.382 16.2784 148.688 16.2278 149.046 16.1772C149.404 16.1254 149.761 16.0748 150.119 16.0242C151.038 18.0597 152.009 20.1445 153.031 22.2305C154.001 24.3165 155.023 26.4025 156.045 28.4885C157.017 30.5745 158.039 32.6605 159.06 34.6453C160.031 36.6289 161.002 38.562 161.921 40.3432C163.965 36.5265 166.008 32.5593 168.052 28.3873C170.046 24.2659 171.987 20.1445 173.825 16.0242C174.695 16.176 175.41 16.2784 176.023 16.2784C176.584 16.2784 177.3 16.1772 178.169 16.0242C178.527 18.9232 178.884 22.0787 179.293 25.4365C179.651 28.7944 180.059 32.0498 180.417 35.2547C180.774 38.4608 181.183 41.4621 181.541 44.2599C181.899 47.0589 182.256 49.2967 182.563 50.9756C181.899 50.925 181.183 50.8744 180.519 50.8744H178.424H176.329C175.614 50.8744 174.898 50.925 174.184 50.9756C174.03 47.466 173.724 43.7011 173.366 39.6302C172.957 35.5606 172.548 31.5416 172.139 27.5225H172.038C170.097 31.5416 168.206 35.4582 166.316 39.3255C164.425 43.1916 162.585 47.0589 160.746 50.9756C160.593 50.925 160.44 50.925 160.286 50.8744H159.776H159.316C159.162 50.925 158.958 50.925 158.804 50.9756C156.965 47.1601 155.126 43.3952 153.337 39.5797C151.499 35.7642 149.608 31.9487 147.666 28.0308H147.564C147.002 31.9487 146.593 35.7642 146.338 39.5797Z" fill="white"/>
<path d="M201.978 31.5922C202.694 33.577 203.409 35.6112 204.174 37.6972H194.825C195.591 35.6112 196.357 33.577 197.124 31.5922C197.891 29.6085 198.759 27.6237 199.628 25.5883C200.445 27.6237 201.211 29.6085 201.978 31.5922ZM214.444 43.7517C213.27 40.9033 212.043 37.9007 210.766 34.6959C209.489 31.5416 208.262 28.3355 207.036 25.0295C205.759 21.7222 204.583 18.6703 203.51 15.7701C203.153 15.8207 202.846 15.8713 202.54 15.9231C202.233 15.9737 201.927 16.0242 201.569 16.0242C201.212 16.0242 200.905 15.9737 200.598 15.9231C200.292 15.8713 199.986 15.8207 199.628 15.7701C198.861 17.7032 198.043 19.7892 197.175 22.0269C196.255 24.2659 195.335 26.5554 194.416 28.845C193.446 31.1345 192.525 33.424 191.606 35.6618C190.635 37.9513 189.766 40.0373 188.949 42.0222C188.131 44.0058 187.365 45.7353 186.701 47.313C186.036 48.8908 185.475 50.1108 185.066 50.9756C185.526 50.925 185.985 50.8744 186.394 50.8744H187.621H188.847C189.204 50.8744 189.613 50.925 190.022 50.9756C190.482 49.2967 191.044 47.6178 191.606 45.8882C192.167 44.1587 192.832 42.4292 193.496 40.6985C194.365 40.648 195.284 40.648 196.153 40.5974H198.81H202.08C203.153 40.648 204.277 40.648 205.35 40.6985C206.014 42.4292 206.627 44.1587 207.19 45.8882C207.751 47.6178 208.313 49.2967 208.876 50.9756C209.59 50.925 210.305 50.8744 211.072 50.8744H213.218H215.415C216.13 50.8744 216.897 50.925 217.715 50.9756C216.744 48.992 215.62 46.6012 214.444 43.7517Z" fill="white"/>
</svg>
