<svg width="225" height="54" viewBox="0 0 225 54" fill="none" xmlns="http://www.w3.org/2000/svg">
<g clip-path="url(#clip0_547_328)">
<path d="M6.41061 35.3587L4.21089 28.571H2.82821V35.3587H0V18.2637H4.39944C6.97626 18.2637 8.67318 19.2693 8.67318 21.8461V24.9258C8.67318 26.5598 7.98184 27.5654 6.78771 28.0682L9.23883 35.2959L6.41061 35.3587V35.3587ZM2.82821 26.1199H4.33659C5.27933 26.1199 5.90782 25.8056 5.90782 24.5487V22.3489C5.90782 21.1548 5.27933 20.7777 4.33659 20.7777H2.82821V26.1199ZM20.8659 18.0752H21.0545C23.6313 18.0752 25.3282 19.0808 25.3282 21.6576V31.902C25.3282 34.4788 23.6313 35.4844 21.0545 35.4844H20.8659C18.2891 35.4844 16.5922 34.4788 16.5922 31.902V21.6576C16.655 19.0808 18.352 18.0752 20.8659 18.0752V18.0752ZM21.0545 33.0333C21.9972 33.0333 22.6257 32.7191 22.6257 31.4621V22.0975C22.6257 20.9034 21.9972 20.5263 21.0545 20.5263C20.1117 20.5263 19.4832 20.8406 19.4832 22.0975V31.4621C19.4832 32.7191 20.1117 33.0333 21.0545 33.0333ZM42.1718 31.9649C42.1718 34.6045 40.4749 35.5473 37.898 35.5473H37.8352C35.2584 35.5473 33.5615 34.6045 33.5615 31.9649V21.6576C33.5615 19.1436 35.2584 18.0752 37.8352 18.0752H37.898C40.4749 18.0752 42.1718 19.1436 42.1718 21.6576V24.8001H39.3436V22.0975C39.3436 20.9034 38.7779 20.5263 37.8352 20.5263C36.9553 20.5263 36.3268 20.9034 36.3268 22.0975V31.4621C36.3268 32.6562 36.8925 33.0333 37.8352 33.0333C38.7151 33.0333 39.3436 32.6562 39.3436 31.4621V28.3825H42.1718V31.9649V31.9649ZM56.6899 35.3587L54.3645 27.9425L53.1075 30.4565V35.3587H50.2793V18.2637H53.1075V25.9313L56.3128 18.2637H59.2668L55.9986 24.6744L59.581 35.3587M66.6201 35.3587V18.2637H74.0992V20.7777H69.4483V25.4914H73.345V28.0054H69.4483V32.9076H74.162V35.4216H66.6201M89.6229 20.7777H86.7947V35.3587H83.9036V20.7777H81.0754V18.2637H89.6229M109.043 35.3587V18.2637H111.872V35.3587M120.293 35.3587V18.2637H123.122L126.704 28.8224V18.2637H129.281V35.3587H126.578L122.87 24.2344V35.3587M145.119 20.7777H142.291V35.3587H139.462V20.7777H136.634V18.2637H145.182V20.7777H145.119ZM152.472 35.3587V18.2637H159.951V20.7777H155.3V25.4914H159.197V28.0054H155.3V32.9076H160.014V35.4216H152.472M174.218 35.3587L172.018 28.571H170.573V35.3587H167.807V18.2637H172.207C174.784 18.2637 176.48 19.2693 176.48 21.8461V24.9258C176.48 26.5598 175.789 27.5654 174.595 28.0682L177.046 35.2959L174.218 35.3587ZM170.698 26.1199H172.207C173.149 26.1199 173.778 25.8056 173.778 24.5487V22.3489C173.778 21.1548 173.149 20.7777 172.207 20.7777H170.698V26.1199V26.1199ZM184.777 35.3587V18.2637H187.605L191.187 28.8224V18.2637H193.764V35.3587H191.061L187.353 24.2344V35.3587M202.06 35.3587V18.2637H209.539V20.7777H204.888V25.4914H208.785V28.0054H204.888V32.9076H209.602V35.4216H202.06M225 20.7777H222.109V35.3587H219.344V20.7777H216.515V18.2637H225" fill="white"/>
</g>
<defs>
<clipPath id="clip0_547_328">
<rect width="225" height="54" fill="white"/>
</clipPath>
</defs>
</svg>
