<svg width="318" height="96" viewBox="0 0 318 96" fill="none" xmlns="http://www.w3.org/2000/svg">
<path d="M87.357 2.7168H9.32122C5.79418 2.7168 2.85498 5.65725 2.85498 9.1858V86.8138C2.85498 90.3424 5.79418 93.2828 9.32122 93.2828H87.357C90.884 93.2828 93.8232 90.3424 93.8232 86.8138V9.1858C93.8232 5.51023 90.884 2.7168 87.357 2.7168ZM59.8755 70.7883C51.9396 78.7276 39.3011 79.0216 30.9243 71.8175L30.7774 71.6705C30.3365 71.2294 30.1895 70.3473 30.7774 69.7592L58.9937 41.6778C59.5815 41.2368 60.3163 41.2368 60.9042 41.6778C68.2522 50.2052 67.9583 62.8491 59.8755 70.7883ZM65.7539 25.9464L37.5375 54.0278C36.9497 54.4688 36.2149 54.4688 35.6271 54.0278C28.2791 45.6475 28.573 33.0035 36.5088 25.0643C44.4447 17.125 57.0832 16.831 65.4599 24.0351C65.4599 24.0351 65.6069 24.0351 65.6069 24.1821C66.3417 24.6232 66.3417 25.5053 65.7539 25.9464V25.9464Z" fill="white"/>
<path fill-rule="evenodd" clip-rule="evenodd" d="M133.502 43.5894C129.535 41.9721 127.036 40.943 127.036 38.5906C127.036 36.6793 128.506 34.9151 131.886 34.9151C133.943 34.9151 135.707 35.7972 137.03 37.5615C137.911 38.5906 138.793 39.1787 139.822 39.1787C141.879 39.1787 143.496 37.5615 143.496 35.6502C143.496 34.9151 143.349 34.1799 142.908 33.7389C140.704 30.3573 136.148 28.005 131.886 28.005C126.008 28.005 119.982 31.6806 119.982 38.7376C119.982 45.9418 125.861 48.2941 130.71 50.0584C134.531 51.5286 137.911 52.8518 137.911 55.9393C137.911 58.2917 135.707 60.644 131.592 60.644C130.269 60.644 127.918 60.35 126.301 58.4387C125.42 57.4095 124.391 56.9685 123.509 56.9685C121.599 56.9685 119.835 58.5857 119.835 60.497C119.835 61.2321 120.129 61.9672 120.57 62.5553C122.774 65.9369 127.771 67.5541 131.592 67.5541C138.058 67.5541 145.112 63.4375 145.112 55.9393C144.965 48.0001 138.646 45.5007 133.502 43.5894V43.5894ZM279.287 27.858H279.14C272.086 27.858 266.501 33.4448 266.501 40.3549V83.8736C266.501 85.7849 268.118 87.4022 270.028 87.4022C271.939 87.4022 273.555 85.7849 273.555 83.8736V65.7898C274.878 66.966 277.082 67.5541 279.14 67.5541H279.287C286.341 67.5541 291.631 61.5262 291.631 54.6161V40.0609C291.631 33.1508 286.341 27.858 279.287 27.858V27.858ZM284.871 54.9102C284.871 58.7327 282.373 60.35 279.434 60.35H279.287C276.201 60.35 273.849 58.7327 273.849 54.9102V40.3549C273.849 37.4144 276.348 34.9151 279.287 34.9151H279.434C282.52 34.9151 284.871 37.2674 284.871 40.3549V54.9102ZM214.183 27.858H214.037C210.509 27.858 207.423 29.3282 205.219 31.5335C203.015 29.3282 199.781 27.858 196.401 27.858H196.254C189.494 27.858 183.91 33.2978 183.91 40.2079V64.1726C184.057 66.0839 185.526 67.5541 187.437 67.5541C189.347 67.5541 190.817 66.0839 190.964 64.1726V40.2079C190.964 37.2674 193.315 34.9151 196.254 34.9151H196.401C199.341 34.9151 201.545 37.1204 201.692 40.0609V64.1726C201.87 65.9104 203.092 67.5541 205.072 67.5541C206.982 67.5541 208.452 66.0839 208.599 64.1726V39.9138C208.746 37.1204 211.097 34.768 213.89 34.768H214.037C216.976 34.768 219.327 37.1204 219.327 40.0609V64.1726C219.474 66.0839 220.944 67.5541 222.854 67.5541C224.765 67.5541 226.234 66.0839 226.381 64.1726V40.2079C226.528 33.4448 220.944 27.858 214.183 27.858ZM172.447 27.858C170.536 27.858 169.067 29.3282 168.92 31.2395V55.2042C168.92 58.1447 166.568 60.497 163.482 60.497H163.335C160.396 60.497 157.898 58.1447 157.898 55.2042V31.0925C157.751 29.1812 156.281 27.7109 154.371 27.7109C152.46 27.7109 150.991 29.1812 150.844 31.0925V55.0572C150.844 61.8202 156.428 67.4071 163.335 67.4071H163.482C170.389 67.4071 175.974 61.8202 175.974 55.0572V31.2395C175.974 29.3282 174.357 27.858 172.447 27.858V27.858ZM255.92 27.858C254.01 27.858 252.54 29.3282 252.393 31.2395V55.2042C252.393 58.1447 250.042 60.497 246.956 60.497H246.809C243.869 60.497 241.371 58.1447 241.371 55.2042V31.0925C241.224 29.1812 239.755 27.7109 237.844 27.7109C235.934 27.7109 234.464 29.1812 234.317 31.0925V55.0572C234.317 61.8202 239.901 67.4071 246.809 67.4071H246.956C253.863 67.4071 259.447 61.8202 259.447 55.0572V31.2395C259.3 29.3282 257.831 27.858 255.92 27.858V27.858Z" fill="white"/>
<path d="M308.826 35.209C309.708 35.062 310.295 34.3269 310.295 33.4448C310.295 32.2686 309.414 31.5335 308.091 31.5335H306.327C305.887 31.5335 305.593 31.8275 305.593 32.2686V37.1203C305.593 37.5614 305.887 37.8555 306.327 37.8555C306.768 37.8555 307.062 37.5614 307.062 37.1203V35.3561L308.826 37.5614C308.973 37.8555 309.12 37.8555 309.561 37.8555C310.148 37.8555 310.295 37.4144 310.295 37.1203C310.295 36.8263 310.148 36.6793 310.001 36.5323L308.826 35.209ZM308.238 34.1799H307.356V32.7097H308.238C308.679 32.7097 308.973 33.0037 308.973 33.4448C308.973 33.7388 308.679 34.1799 308.238 34.1799ZM308.091 27.8579C304.27 27.8579 301.037 30.9454 301.037 34.915C301.037 38.7376 304.123 41.9721 308.091 41.9721C311.912 41.9721 315.145 38.8846 315.145 34.915C315.145 31.0924 312.059 27.8579 308.091 27.8579ZM308.091 40.2078C305.152 40.2078 302.8 37.8555 302.8 34.915C302.8 31.9745 305.152 29.6222 308.091 29.6222C311.03 29.6222 313.382 31.9745 313.382 34.915C313.382 37.8555 311.03 40.2078 308.091 40.2078Z" fill="white"/>
</svg>
