<?xml version="1.0" encoding="utf-8"?>
<!-- Generator: Adobe Illustrator 18.1.1, SVG Export Plug-In . SVG Version: 6.00 Build 0)  -->
<!DOCTYPE svg PUBLIC "-//W3C//DTD SVG 1.1//EN" "http://www.w3.org/Graphics/SVG/1.1/DTD/svg11.dtd">
<svg version="1.1" id="Calque_1" xmlns="http://www.w3.org/2000/svg" xmlns:xlink="http://www.w3.org/1999/xlink" x="0px" y="0px"
	 viewBox="0 0 175.7 73.1" enable-background="new 0 0 175.7 73.1" xml:space="preserve">
<g>
	<path fill-rule="evenodd" clip-rule="evenodd" fill="#ffffff" d="M160.2,66.3c-0.4,0.3-0.9,0.6-1.5,0.9c-1,0.5-2,1-3,1
		c-0.7,0-1.1-0.2-1.5-0.5c-0.2-0.1-0.3-0.3-0.4-0.4c-0.1-0.1-0.2-0.2-0.2-0.3c-0.3-0.3-0.5-0.8-0.8-1.4c-1.5,1.5-4.3,2.8-8.3,2.8
		c-3.4,0-6.1-0.9-8-2.7c-1.9-1.8-2.9-4.3-2.9-7.8v-20c0-0.8,0.2-1.4,0.8-1.9c0.6-0.5,1.8-0.6,3.4-0.6c1.5,0,2.7,0.2,3.3,0.7
		c0.6,0.5,0.8,1,0.8,1.9V57c0,2.8,1.2,4.3,4.5,4.3c3.4,0,5.4-2,5.4-4.8V37.9c0-0.8,0.2-1.4,0.8-1.9c0.6-0.5,1.8-0.6,3.3-0.6
		c1.5,0,2.7,0.2,3.3,0.7c0.6,0.5,0.8,1,0.8,1.9v22.3c0,0.7,0.1,1.4,0.3,1.9c0.1,0.5,0.3,0.9,0.4,1.1c0.3,0.5,0.5,1.1,0.5,1.8
		C161,65.6,160.6,66,160.2,66.3L160.2,66.3L160.2,66.3z"/>
	<path fill-rule="evenodd" clip-rule="evenodd" fill="#ffffff" d="M123.5,43.2v22.2c0,0.8-0.2,1.4-0.8,1.9c-0.6,0.5-1.8,0.6-3.3,0.6
		c-1.5,0-2.7-0.2-3.4-0.7c-0.6-0.5-0.8-1-0.8-1.9V43.7l-3.8,0.3c-3.4,0.2-3.5-2.6-3.5-4.2c0-3.2,1.2-4.3,3.3-4.3h16.3
		c1.6,0,2.8,0.5,3.3,2.8c0.5,2.5,0.3,4.3-2.5,4.5L123.5,43.2L123.5,43.2L123.5,43.2z"/>
	<path fill-rule="evenodd" clip-rule="evenodd" fill="#ffffff" d="M175,67.3c-0.6,0.5-1.8,0.6-3.3,0.6c-1.5,0-2.7-0.2-3.4-0.6
		c-0.6-0.5-0.8-1-0.8-1.9V37.9c0-0.8,0.2-1.4,0.8-1.9c0.6-0.5,1.8-0.6,3.4-0.6c1.5,0,2.7,0.2,3.3,0.7c0.6,0.5,0.8,1,0.8,1.9v27.6
		C175.7,66.3,175.6,66.9,175,67.3L175,67.3L175,67.3z"/>
	<path fill-rule="evenodd" clip-rule="evenodd" fill="#ffffff" d="M4.3,20.4h21.8c2.1,0,3.7,0.7,4.4,3.7c0.7,3.4,0.4,5.7-3.4,6
		l-6.8,0.5c5,31.7,34.4,42.1,50.4,7.9c2.6-5.7,3.5-6.7,6.4-6c3.9,1,4.5,3,2.6,8.7c-13.8,42.1-60.3,46.3-69.4-9.9l-5.5,0.4
		C0.2,32,0,28.2,0,26.1C0,21.9,1.6,20.4,4.3,20.4L4.3,20.4L4.3,20.4z"/>
	<path fill-rule="evenodd" clip-rule="evenodd" fill="#ffffff" d="M83.4,0c4.5,0,8.1,3.6,8.1,8.1c0,4.5-3.6,8.1-8.1,8.1
		c-4.5,0-8.1-3.6-8.1-8.1C75.4,3.6,79,0,83.4,0L83.4,0L83.4,0z"/>
</g>
</svg>
