<svg width="224" height="35" viewBox="0 0 224 35" fill="none" xmlns="http://www.w3.org/2000/svg">
<g clip-path="url(#clip0_531_322)">
<path d="M21.1053 3.49857V6.99854H24.6228V-0.00153488H17.6556V3.49857H21.1053Z" fill="white"/>
<path d="M24.6228 22.7499V10.4988H21.1053V22.7499C21.1053 27.5825 17.1681 31.5 12.3114 31.5C7.45468 31.5 3.51751 27.5825 3.51751 22.7499V3.49872H14.0034V-0.00138901H0V22.7499C0 29.5156 5.51199 35 12.3115 35C19.1109 35 24.6229 29.5156 24.6229 22.7499" fill="white"/>
<path d="M35.2422 19.0889V10.5306H37.8188V19.1284C37.8188 21.1399 38.6705 22.1258 40.4148 22.1258C42.1587 22.1258 43.0109 21.1399 43.0109 19.1284V10.5306H45.5871V19.0889C45.5871 22.7765 43.4467 24.4922 40.4148 24.4922C37.3826 24.4922 35.2422 22.7765 35.2422 19.0889Z" fill="white"/>
<path d="M53.3676 16.0123C54.299 16.0123 54.9926 15.5783 54.9926 14.4545C54.9926 13.3304 54.299 12.8966 53.3676 12.8966H50.8707V16.0123H53.3676ZM48.2944 10.5302H53.3478C56.1223 10.5302 57.5691 12.1669 57.5691 14.4545C57.5691 16.2686 56.6572 17.6491 54.9727 18.1617L58.8174 24.334H55.9438L52.2181 18.3786H50.8707V24.334H48.2944V10.5302" fill="white"/>
<path d="M65.478 21.9676C67.0831 21.9676 67.7175 21.2971 67.7175 20.114C67.7175 18.9308 67.0831 18.2603 65.478 18.2603H63.1198V21.9676H65.478ZM65.478 15.8939C66.5085 15.8939 67.103 15.5193 67.103 14.3953C67.103 13.2713 66.5085 12.8966 65.4185 12.8966H63.1198V15.8939H65.478ZM60.5433 10.5302H65.6168C67.9749 10.5302 69.5801 11.7528 69.5801 14.2572C69.5801 15.3812 69.0848 16.3476 68.2128 16.801C69.5209 17.3335 70.2938 18.418 70.2938 20.1731C70.2938 22.8549 68.5498 24.334 65.7159 24.334H60.5433V10.5302" fill="white"/>
<path d="M78.5156 18.7138L77.0493 13.922L75.5826 18.7138H78.5156ZM75.761 10.5302H78.3376L83.034 24.334H80.2596L79.2488 21.0802H74.8494L73.8386 24.334H71.0642L75.761 10.5302" fill="white"/>
<path d="M84.6531 10.5302H87.3681L92.4611 19.6407V10.5302H95.0373V24.334H92.3223L87.2293 15.2235V24.334H84.6531V10.5302Z" fill="white"/>
<path d="M101.775 19.8777H104.331C104.549 21.1792 105.223 22.1258 106.63 22.1258C107.66 22.1258 108.572 21.5342 108.572 20.43C108.572 19.3453 107.581 18.7931 105.421 17.9649C103.618 17.2749 102.132 16.2493 102.132 14.0802C102.132 11.99 103.816 10.373 106.412 10.373C108.85 10.373 110.554 11.6942 110.752 14.1394H108.275C108.116 13.3111 107.324 12.7392 106.412 12.7392C105.382 12.7392 104.589 13.1928 104.589 14.0012C104.589 14.8493 105.461 15.3225 107.997 16.3676C109.642 17.0382 111.149 18.0439 111.149 20.3706C111.149 22.8948 109.167 24.4922 106.571 24.4922C103.638 24.4922 101.874 22.6976 101.775 19.8777" fill="white"/>
<path d="M118.502 16.5644C119.632 16.5644 120.326 15.9926 120.326 14.7306C120.326 13.4684 119.632 12.8966 118.502 12.8966H115.946V16.5644H118.502ZM113.37 10.5302H118.601C121.535 10.5302 122.941 12.3247 122.941 14.7306C122.941 17.1363 121.535 18.9308 118.601 18.9308H115.946V24.334H113.37V10.5302" fill="white"/>
<path d="M135.387 17.4325C135.387 14.1591 133.385 12.7392 131.106 12.7392C128.827 12.7392 126.825 14.1591 126.825 17.4325C126.825 20.706 128.827 22.1258 131.106 22.1258C133.385 22.1258 135.387 20.706 135.387 17.4325ZM124.209 17.4325C124.209 12.6406 127.4 10.373 131.106 10.373C134.812 10.373 138.003 12.6406 138.003 17.4325C138.003 22.2244 134.812 24.4922 131.106 24.4922C127.4 24.4922 124.209 22.2244 124.209 17.4325Z" fill="white"/>
<path d="M145.196 16.0123C146.127 16.0123 146.821 15.5783 146.821 14.4545C146.821 13.3304 146.127 12.8966 145.196 12.8966H142.699V16.0123H145.196ZM140.123 10.5302H145.176C147.951 10.5302 149.397 12.1669 149.397 14.4545C149.397 16.2686 148.486 17.6491 146.801 18.1617L150.646 24.334H147.772L144.046 18.3786H142.699V24.334H140.123V10.5302" fill="white"/>
<path d="M154.788 12.8966H150.923V10.5302H161.228V12.8966H157.364V24.334H154.788V12.8966Z" fill="white"/>
<path d="M162.08 19.8777H164.636C164.854 21.1792 165.528 22.1258 166.935 22.1258C167.966 22.1258 168.877 21.5342 168.877 20.43C168.877 19.3453 167.886 18.7931 165.727 17.9649C163.923 17.2749 162.437 16.2493 162.437 14.0802C162.437 11.99 164.121 10.373 166.717 10.373C169.155 10.373 170.859 11.6942 171.057 14.1394H168.58C168.422 13.3111 167.629 12.7392 166.717 12.7392C165.687 12.7392 164.894 13.1928 164.894 14.0012C164.894 14.8493 165.766 15.3225 168.303 16.3676C169.948 17.0382 171.454 18.0439 171.454 20.3706C171.454 22.8948 169.472 24.4922 166.876 24.4922C163.943 24.4922 162.179 22.6976 162.08 19.8777" fill="white"/>
<path d="M177.121 17.4325C177.121 12.818 180.212 10.373 183.68 10.373C186.772 10.373 188.992 11.9505 189.507 14.8493H186.93C186.475 13.6266 185.524 12.7392 183.68 12.7392C181.54 12.7392 179.737 14.2379 179.737 17.4325C179.737 20.6271 181.54 22.1258 183.68 22.1258C185.543 22.1258 186.534 21.2187 186.99 19.9763H189.507C188.873 22.9344 186.792 24.4922 183.68 24.4922C180.212 24.4922 177.121 22.047 177.121 17.4325Z" fill="white"/>
<path d="M191.389 10.5302H193.965V21.9676H199.851V24.334H191.389V10.5302" fill="white"/>
<path d="M201.198 19.0889V10.5306H203.775V19.1284C203.775 21.1399 204.627 22.1258 206.371 22.1258C208.115 22.1258 208.967 21.1399 208.967 19.1284V10.5306H211.543V19.0889C211.543 22.7765 209.403 24.4922 206.371 24.4922C203.339 24.4922 201.198 22.7765 201.198 19.0889Z" fill="white"/>
<path d="M219.185 21.9676C220.79 21.9676 221.424 21.2971 221.424 20.114C221.424 18.9308 220.79 18.2603 219.185 18.2603H216.826V21.9676H219.185ZM219.185 15.8939C220.215 15.8939 220.81 15.5193 220.81 14.3953C220.81 13.2713 220.215 12.8966 219.125 12.8966H216.826V15.8939H219.185ZM214.25 10.5302H219.324C221.682 10.5302 223.287 11.7528 223.287 14.2572C223.287 15.3812 222.791 16.3476 221.92 16.801C223.228 17.3335 224 18.418 224 20.1731C224 22.8549 222.256 24.334 219.422 24.334H214.25V10.5302" fill="white"/>
</g>
<defs>
<clipPath id="clip0_531_322">
<rect width="224" height="35" fill="white"/>
</clipPath>
</defs>
</svg>
