<svg width="99" height="99" viewBox="0 0 99 99" fill="none" xmlns="http://www.w3.org/2000/svg">
<g clip-path="url(#clip0_547_346)">
<path d="M49.5589 94.1555C25.0321 94.1555 4.9379 73.9628 4.9379 49.4361C4.9379 43.92 5.92291 38.6994 7.79443 33.7744L33.8972 86.2754C34.1927 86.9649 34.6852 87.5559 35.4732 87.5559C36.2612 87.5559 36.7537 86.9649 37.0492 86.2754L49.0664 59.3847C49.1649 59.0892 49.3619 58.7937 49.6574 58.7937C49.9529 58.7937 50.0514 59.0892 50.2484 59.3847L62.2655 86.2754C62.561 86.9649 63.0535 87.5559 63.8415 87.5559C64.6295 87.5559 65.122 86.9649 65.4175 86.2754L91.5203 33.7744C93.3918 38.6994 94.3768 43.92 94.3768 49.4361C94.1798 73.9628 74.0856 94.1555 49.5589 94.1555ZM49.5589 39.2904C49.2634 39.2904 49.1649 38.9949 48.9679 38.6994L34.9807 7.17912C39.5118 5.5046 44.4368 4.61809 49.5589 4.61809C54.6809 4.61809 59.606 5.5046 64.137 7.17912L50.1499 38.6994C49.9529 39.0934 49.8544 39.2904 49.5589 39.2904ZM35.2762 71.6973C34.9807 71.6973 34.8822 71.4018 34.6852 71.1063L12.03 25.4018C16.0685 19.1962 21.4861 13.9757 28.0856 10.3312L44.4368 46.678C44.6338 47.269 45.1263 47.466 45.6188 47.466H53.4989C54.0899 47.466 54.4839 47.3675 54.7794 46.678L71.1306 10.3312C77.6317 13.9757 83.1477 19.1962 87.1862 25.4018L64.334 71.1063C64.2355 71.4018 64.0385 71.6973 63.743 71.6973C63.4475 71.6973 63.349 71.4018 63.152 71.1063L54.5824 51.6031C54.2869 50.9136 53.8929 50.8151 53.3019 50.8151H45.4218C44.8308 50.8151 44.4368 50.9136 44.1413 51.6031L35.8672 71.1063C35.7687 71.4018 35.5717 71.6973 35.2762 71.6973ZM49.5589 98.6866C76.8436 98.6866 98.8094 76.7208 98.8094 49.4361C98.8094 22.1513 76.8436 0.185547 49.5589 0.185547C22.2741 0.185547 0.30835 22.1513 0.30835 49.4361C0.30835 76.7208 22.2741 98.6866 49.5589 98.6866Z" fill="white"/>
</g>
<defs>
<clipPath id="clip0_547_346">
<rect width="99" height="99" fill="white"/>
</clipPath>
</defs>
</svg>
