<svg width="316" height="90" viewBox="0 0 316 90" fill="none" xmlns="http://www.w3.org/2000/svg">
<g clip-path="url(#clip0_533_650)">
<path d="M167.303 26.1404H160.579C159.062 26.1404 158.455 26.9494 158.101 28.264L153.096 48.2865C152.287 51.3707 151.882 55.3651 151.832 55.9213C151.781 55.1123 151.276 52.7359 150.618 50.1573L145.764 34.1797C145.411 32.8146 144.753 32.0561 143.287 32.0561H136.006C134.49 32.0561 133.883 32.8651 133.529 34.1797L128.473 50.2078C127.765 53.0393 127.26 54.1011 127.209 54.6067C127.057 53.8988 126.552 50.4606 126.046 48.2359L121.192 28.2134C120.838 26.8483 120.181 26.0898 118.715 26.0898H110.878C109.361 26.0898 108.957 26.8988 109.311 28.2134L120.434 72.5056C120.788 73.8707 121.496 74.6292 122.81 74.6292H130.293C131.81 74.6292 132.568 73.9719 132.922 72.5056L138.079 55.3146C138.484 53.3932 139.091 50.7134 139.141 50.0056C139.192 50.8651 139.647 53.191 140.152 55.264L145.309 72.5561C145.663 73.9213 146.371 74.6797 147.686 74.6797H155.169C156.685 74.6797 157.444 74.0224 157.798 72.5561L168.921 28.264C169.224 26.9494 168.82 26.1404 167.303 26.1404Z" fill="white"/>
<path d="M186.162 38.4268C175.393 38.4268 169.78 42.7751 169.78 49.5504V64.1121C169.78 70.8874 175.342 75.2357 186.162 75.2357C196.982 75.2357 202.543 70.8874 202.543 64.1121V49.5504C202.543 42.7751 196.931 38.4268 186.162 38.4268ZM191.117 63.1515C191.117 65.5784 189.094 66.3874 186.212 66.3874C183.331 66.3874 181.308 65.5784 181.308 63.1515V50.511C181.308 48.1346 183.331 47.3762 186.212 47.3762C189.094 47.3762 191.117 48.1852 191.117 50.511V63.1515Z" fill="white"/>
<path d="M224.588 38.4268C213.818 38.4268 208.257 42.7751 208.257 49.5504V64.1121C208.257 70.8874 213.818 75.2357 224.588 75.2357C235.357 75.2357 240.969 70.8874 240.969 64.1121V49.5504C240.969 42.7751 235.357 38.4268 224.588 38.4268ZM229.542 63.1515C229.542 65.5784 227.52 66.3874 224.638 66.3874C221.706 66.3874 219.734 65.5784 219.734 63.1515V50.511C219.734 48.1346 221.756 47.3762 224.638 47.3762C227.571 47.3762 229.542 48.1852 229.542 50.511V63.1515Z" fill="white"/>
<path d="M277.322 39.0335H270.547C268.979 39.0335 268.676 39.6908 268.474 41.1571L268.322 42.4211C266.3 40.8537 262.912 38.4268 257.249 38.4268C250.019 38.4268 246.682 42.6234 246.682 49.4492V64.3144C246.682 71.0897 250.019 75.3369 257.249 75.3369C262.558 75.3369 265.895 73.2133 267.968 71.6964V76.5504C267.968 78.9268 266.097 79.6852 263.165 79.6852H252.952C251.435 79.6852 250.828 80.3425 250.828 81.8088V86.865C250.828 88.3818 251.485 88.938 252.952 88.938H263.165C273.934 88.938 279.395 84.5897 279.395 77.8144V41.1571C279.395 39.6402 278.788 39.0335 277.322 39.0335ZM267.968 62.5953C266.451 63.6571 263.62 65.5279 260.89 65.5279C258.159 65.5279 258.109 63.9605 258.109 62.5447V51.2695C258.109 49.8537 258.159 48.2863 260.89 48.2863C263.62 48.2863 266.451 50.1571 267.968 51.2189V62.5953Z" fill="white"/>
<path d="M313.978 43.1798C312.006 40.3989 308.214 38.7304 302.147 38.5281C301.489 38.4775 300.781 38.4775 300.023 38.4775H289.254C287.737 38.4775 287.13 39.0337 287.13 40.5506V44.545C287.13 46.0618 287.787 46.6685 289.254 46.6685H299.669C299.922 46.6685 300.175 46.6685 300.377 46.7191C300.63 46.7191 300.832 46.7191 301.034 46.7697C302.753 46.9719 303.916 47.5787 304.321 48.8427C304.371 48.9438 304.371 49.045 304.422 49.1461C304.422 49.2472 304.422 49.3483 304.472 49.5C304.472 49.6517 304.523 49.8539 304.523 50.0056V53.2416H295.776C288.344 53.2416 284.349 57.5899 284.349 62.4438V66.1854C284.349 70.8876 287.636 75.3371 294.866 75.3371C299.517 75.3371 302.804 73.2641 304.877 71.545L305.028 72.6068C305.231 74.1236 305.534 74.7303 307.101 74.7303H313.674C315.191 74.7303 315.747 74.073 315.747 72.6068V59.8652V49.2978V48.7416C315.697 46.5674 315.14 44.6966 313.978 43.1798ZM304.472 63.809C302.804 64.9719 300.326 66.4382 297.899 66.4382C296.838 66.4382 295.473 66.236 295.473 64.5674V63C295.473 61.9382 295.827 60.7753 297.899 60.7753H304.472V63.809Z" fill="white"/>
<path d="M67.9021 0.0507812C75.7894 0.0507812 82.16 6.42156 82.16 14.3092C82.16 22.1968 75.7894 28.5676 67.9021 28.5676C60.0147 28.5676 53.6442 22.1968 53.6442 14.3092C53.6442 6.42156 60.0147 0.0507812 67.9021 0.0507812ZM21.5891 0.0507812C29.4765 0.0507812 35.847 6.42156 35.847 14.3092C35.847 22.1968 29.4765 28.5676 21.5891 28.5676C13.7018 28.5676 7.3312 22.1968 7.3312 14.3092C7.3312 6.42156 13.7018 0.0507812 21.5891 0.0507812ZM67.8515 90.0002C55.0093 90.0002 53.9475 68.562 44.7456 68.562C35.5437 68.562 34.4819 90.0002 21.6397 90.0002C13.9546 90.0002 0.40448 65.9834 0.40448 43.9384C0.40448 36.7081 2.12352 28.9216 3.08416 25.9384C6.72448 32.3598 13.6512 36.7081 21.5386 36.7586C16.2298 45.607 15.2691 57.8935 21.5891 72.7081C24.7744 70.1294 35.0381 51.8766 44.695 51.8766C54.4026 51.8766 64.6157 70.0789 67.801 72.7081C74.1715 57.8935 73.1603 45.607 67.8515 36.7586C75.7389 36.7081 82.6656 32.3598 86.3059 25.9384C87.2666 28.9216 88.9856 36.7081 88.9856 43.9384C89.0867 65.9834 75.5872 90.0002 67.8515 90.0002Z" fill="white"/>
</g>
<defs>
<clipPath id="clip0_533_650">
<rect width="316" height="90" fill="white"/>
</clipPath>
</defs>
</svg>
