<?xml version="1.0" encoding="utf-8"?>
<!-- Generator: Adobe Illustrator 18.1.1, SVG Export Plug-In . SVG Version: 6.00 Build 0)  -->
<!DOCTYPE svg PUBLIC "-//W3C//DTD SVG 1.1//EN" "http://www.w3.org/Graphics/SVG/1.1/DTD/svg11.dtd">
<svg version="1.1" id="Layer_1" xmlns="http://www.w3.org/2000/svg" xmlns:xlink="http://www.w3.org/1999/xlink" x="0px" y="0px"
	 viewBox="0 0 338.9 96.7" enable-background="new 0 0 338.9 96.7" xml:space="preserve">
<g>
	<g>
		<path fill="#ffffff" d="M179.4,28.1h-7.2c-1.6,0-2.3,0.8-2.7,2.3l-5.4,21.5c-0.8,3.3-1.3,7.6-1.4,8.2c-0.1-0.8-0.6-3.4-1.3-6.2
			l-5.2-17.2c-0.4-1.5-1.1-2.3-2.7-2.3h-7.8c-1.6,0-2.3,0.8-2.7,2.3L137.6,54c-0.8,3.1-1.3,4.2-1.4,4.7c-0.2-0.8-0.7-4.5-1.2-6.8
			l-5.2-21.5c-0.4-1.5-1.1-2.3-2.7-2.3h-8.4c-1.6,0-2.1,0.8-1.7,2.3L129,78c0.4,1.5,1.2,2.3,2.5,2.3h8.1c1.6,0,2.5-0.7,2.8-2.3
			l5.5-18.5c0.5-2.1,1.1-4.9,1.2-5.7c0.1,0.9,0.5,3.4,1.1,5.6l5.5,18.6c0.4,1.5,1.2,2.3,2.5,2.3h8.1c1.6,0,2.5-0.7,2.8-2.3l12-47.6
			C181.5,28.9,181,28.1,179.4,28.1z"/>
		<path fill="#ffffff" d="M199.7,41.3c-11.6,0-17.6,4.7-17.6,12v15.7c0,7.3,6,12,17.6,12s17.6-4.7,17.6-12V53.2
			C217.3,46,211.3,41.3,199.7,41.3z M205,67.8c0,2.6-2.1,3.5-5.3,3.5c-3.1,0-5.3-0.8-5.3-3.5V54.2c0-2.5,2.1-3.4,5.3-3.4
			c3.1,0,5.3,0.8,5.3,3.4V67.8z"/>
		<path fill="#ffffff" d="M241,41.3c-11.6,0-17.6,4.7-17.6,12v15.7c0,7.3,6,12,17.6,12c11.6,0,17.6-4.7,17.6-12V53.2
			C258.6,46,252.6,41.3,241,41.3z M246.3,67.8c0,2.6-2.1,3.5-5.3,3.5c-3.1,0-5.3-0.8-5.3-3.5V54.2c0-2.5,2.2-3.4,5.3-3.4
			c3.1,0,5.3,0.8,5.3,3.4V67.8z"/>
		<path fill="#ffffff" d="M297.6,41.9h-7.3c-1.7,0-2,0.7-2.2,2.3l-0.2,1.4c-2.1-1.7-5.8-4.3-11.9-4.3c-7.8,0-11.4,4.5-11.4,11.8v16
			c0,7.3,3.6,11.8,11.4,11.8c5.7,0,9.3-2.3,11.5-3.9v5.2c0,2.5-2,3.4-5.1,3.4h-11c-1.6,0-2.3,0.7-2.3,2.3v5.5c0,1.6,0.7,2.2,2.3,2.2
			h11c11.6,0,17.4-4.7,17.4-12V44.2C299.9,42.6,299.2,41.9,297.6,41.9z M287.6,67.2c-1.6,1.2-4.7,3.1-7.6,3.1c-2.9,0-3-1.7-3-3.2V55
			c0-1.5,0.1-3.2,3-3.2c2.9,0,6,2,7.6,3.1V67.2z"/>
		<path fill="#ffffff" d="M337.1,46.3c-2.1-3-6.2-4.8-12.7-5c-0.7,0-1.5-0.1-2.3-0.1h-11.6c-1.6,0-2.3,0.6-2.3,2.2v4.3
			c0,1.6,0.7,2.3,2.3,2.3h11.2c0.3,0,0.5,0,0.8,0l0,0c0.3,0,0.5,0,0.7,0c1.9,0.2,3.1,0.9,3.5,2.2c0,0.1,0.1,0.2,0.1,0.3
			c0,0.1,0,0.2,0,0.4c0,0.2,0,0.4,0,0.6v3.5h-9.4c-8,0-12.3,4.7-12.3,9.9v4c0,5.1,3.5,9.8,11.3,9.8c5,0,8.5-2.2,10.7-4.1l0.2,1.1
			c0.2,1.6,0.5,2.3,2.2,2.3h7.1c1.6,0,2.2-0.7,2.2-2.3V64.3V52.9v-0.6C338.9,50,338.3,48,337.1,46.3z M326.9,68.5
			c-1.8,1.2-4.5,2.8-7.1,2.8c-1.2,0-2.6-0.2-2.6-2v-1.7c0-1.2,0.4-2.4,2.6-2.4h7.1V68.5z"/>
	</g>
	<path fill="#ffffff" d="M72.5,0C81,0,87.9,6.9,87.9,15.3c0,8.5-6.9,15.3-15.3,15.3c-8.5,0-15.3-6.9-15.3-15.3
		C57.2,6.9,64.1,0,72.5,0z M22.8,0c8.5,0,15.3,6.9,15.3,15.3c0,8.5-6.9,15.3-15.3,15.3c-8.5,0-15.3-6.9-15.3-15.3
		C7.5,6.9,14.3,0,22.8,0z M72.5,96.7c-13.8,0-14.9-23.1-24.9-23.1c-9.9,0-11,23.1-24.9,23.1C14.5,96.7,0,70.9,0,47.2
		c0-7.8,1.8-16.1,2.9-19.3c3.9,6.9,11.4,11.6,19.9,11.6C17,49,16,62.1,22.8,78.1c3.4-2.8,14.4-22.4,24.9-22.4
		c10.4,0,21.4,19.6,24.9,22.4c6.8-15.9,5.8-29.1,0.1-38.6c8.5,0,15.9-4.7,19.8-11.6c1,3.2,2.9,11.6,2.9,19.3
		C95.3,70.9,80.8,96.7,72.5,96.7z"/>
</g>
</svg>
