<?xml version="1.0" encoding="utf-8"?>
<!-- Generator: Adobe Illustrator 18.1.1, SVG Export Plug-In . SVG Version: 6.00 Build 0)  -->
<!DOCTYPE svg PUBLIC "-//W3C//DTD SVG 1.1//EN" "http://www.w3.org/Graphics/SVG/1.1/DTD/svg11.dtd">
<svg version="1.1" id="Laag_1" xmlns="http://www.w3.org/2000/svg" xmlns:xlink="http://www.w3.org/1999/xlink" x="0px" y="0px"
	 viewBox="0 0 481.8 88.2" enable-background="new 0 0 481.8 88.2" xml:space="preserve">
<g>
	<g>
		<path fill="#ffffff" d="M144.4,81.8h-43.6c-1.5,0-2.6-1.1-2.6-2.6V74c0-1.3,0.4-1.9,1.2-2.9l34.7-40.3h-34c-1.5,0-2.6-1.1-2.6-2.6
			v-3.8c0-1.5,1.1-2.6,2.6-2.6h44c1.5,0,2.6,1.1,2.6,2.6v5.4c0,1-0.3,1.8-1.1,2.7l-34.8,40.4h33.5c1.5,0,2.6,1.1,2.6,2.6v3.8
			C147,80.7,145.9,81.8,144.4,81.8 M230.3,82.9L230.3,82.9c3.1-0.1,5.4-0.7,6.3-1.7c0.3-0.4,0.5-0.8,0.4-1.2c0-0.3,0-0.3-0.9-4.3
			l0-0.1c-0.2-1-0.9-1.5-1.5-1.5c-0.1,0-0.1,0-0.1,0c0,0-0.8,0-1.6,0h0c-2.2-0.1-4.1-0.4-4.1-3.6V2.3c0-1.1-0.7-2.3-2-2.3l-0.4,0
			l-6.1,1.6c-1,0.1-2.1,0.8-2.1,2.2v66.9C218.3,78.5,222.6,82.9,230.3,82.9L230.3,82.9z M353.2,81.8h-5.4c-1.5,0-2.5-1.1-2.6-2.6
			v-41c-0.1-6.9-2.2-8.9-9.6-9c-8.4,0-17,2.1-19.8,2.9v47.1c0,1.5-1,2.6-2.4,2.6h-5.5c-1.5,0-2.6-1.1-2.6-2.6v-46
			c-0.1-4.3,0.3-7.2,6.4-9.2c5.8-2,16.9-3.7,24.2-3.7c14,0,19.9,5.1,19.9,16.8v42C355.8,80.7,354.7,81.8,353.2,81.8 M407.8,31
			c-2-0.5-7.7-1.8-14.1-1.8c-11.7,0.1-16.6,3.3-16.7,22.7c0.1,21.3,6.5,22.5,16.8,22.6l0,0.4v-0.4c6.4,0,12-1.3,13.9-1.9L407.8,31z
			 M410.6,81l-0.6,0.2c-3.5,0.9-8.2,2.1-16.5,2.1l0,0h0c-22.9,0-27.3-11.6-27.4-31.5c0-22.8,7.3-31.3,26.7-31.4
			c6.9,0,11.6,0.9,15,1.7l0-18.4c0-0.8,0.3-1.9,2.2-2.2l6.1-1.5h0.3c1.4,0,1.9,1.3,1.9,2.3v69.1C418.4,75.8,417.9,79.5,410.6,81
			 M454.9,74.4c-15-0.1-15.7-7.8-15.8-22.5c0.1-14.8,0.9-22.5,15.8-22.6c15,0.1,15.7,7.8,15.8,22.6
			C470.7,66.6,469.9,74.3,454.9,74.4 M454.9,20.5c-24.7,0-26.8,16.3-26.8,31.5c0,15.2,2.1,31.3,26.8,31.3h0
			c24.7,0,26.8-16.2,26.8-31.4C481.7,36,479.6,20.5,454.9,20.5 M283.8,52.2c-2.5,0-14.5,0.2-19.2,1.2l-0.4,0.1
			c-5.4,1.2-9.6,2.1-9.7,10.1c0,10,7.7,10.9,15.5,11l0,0.4v-0.4c4.9,0,9.5-0.7,13.8-2.1L283.8,52.2z M294.4,37.6v31.8
			c0.1,7.9-1.9,10.4-9.9,12.3c-3.5,0.7-8.8,1.6-14.6,1.6h0c-8.5,0-26.2-0.1-26.3-19.2c-0.1-15.1,9-17.7,19.9-19.4
			c7.2-1.1,14.4-1.3,18.1-1.3c1,0,1.6,0,2,0v-5.4c0-3.6-0.1-5.8-3.4-7c-2.1-0.9-5.2-1.3-9.7-1.3c-7.6,0-14.3,1.7-18.8,2.8l-1.7,0.4
			c-0.2,0-0.4,0.1-0.6,0.1h0c-0.8,0-1.7-0.5-2-1.5l0-0.1l-1-5.1l0-0.3c0-1.2,0.9-1.9,1.7-2.2c3.6-1.3,13.2-3.5,23.4-3.5
			c7.5,0,12.9,1,16.6,3C294.4,26.7,294.4,32.8,294.4,37.6 M195.2,72.5c-4.2,1.4-8.9,2.1-13.8,2.1v0.4l0-0.4c-7.8-0.1-15.5-1-15.5-11
			c0.1-8,4.3-8.9,9.7-10.1l0.4-0.1c4.8-1,16.8-1.2,19.2-1.2L195.2,72.5z M199.5,23.4c-3.7-2-9.1-3-16.6-3c-10.3,0-19.8,2.1-23.4,3.5
			c-0.8,0.3-1.7,1-1.7,2.2l0,0.3l1,5.1l0,0.1c0.3,1,1.2,1.5,2,1.5h0c0.3,0,0.5-0.1,0.6-0.1l1.7-0.4c4.5-1.1,11.3-2.8,18.8-2.8
			c4.6,0,7.7,0.4,9.7,1.3c3.4,1.3,3.4,3.4,3.4,7v5.4c-0.4,0-1,0-2,0c-3.7,0-11,0.2-18.1,1.3C164,46.4,155,49,155,64.1
			c0,19.1,17.7,19.2,26.3,19.2h0c5.8,0,11.1-0.9,14.6-1.6c8-1.8,10-4.4,9.9-12.3V37.6C205.8,32.8,205.8,26.7,199.5,23.4"/>
	</g>
	<g>
		<path fill="#ffffff" d="M66.8,41C66.8,41,66.8,41,66.8,41c-0.2-0.3-0.5-0.5-0.7-0.8c-10.2-11.3-31.2-25-55.1-25
			C3.5,15.2-0.4,35.7,0,55c3.3,0.8,6.6,1.3,10,1.6C6.6,56.3,3.3,55.8,0,55C0.4,72,4.2,88.2,11.6,88.2c28.5,0,61-26.9,61-36.5
			C72.5,49.3,70.1,44.7,66.8,41z M65.5,41.7c-0.3,0.2-0.7,0.4-1,0.6C64.9,42.1,65.2,41.9,65.5,41.7z M10.2,56.6
			c0.5,0,1.1,0.1,1.6,0.1C11.3,56.7,10.7,56.7,10.2,56.6z M12.2,56.8c0.5,0,1,0,1.6,0.1C13.3,56.8,12.7,56.8,12.2,56.8z M14.3,56.8
			c0.5,0,1,0,1.4,0C15.2,56.8,14.8,56.8,14.3,56.8z M16.3,56.8c0.5,0,0.9,0,1.4,0C17.3,56.8,16.8,56.8,16.3,56.8z M63.4,42.9
			c-0.3,0.2-0.7,0.4-1,0.6C62.8,43.3,63.1,43.1,63.4,42.9z M61.4,44.1c-0.3,0.2-0.7,0.4-1,0.5C60.7,44.4,61,44.3,61.4,44.1z
			 M59.3,45.2c-0.3,0.2-0.7,0.3-1,0.5C58.6,45.5,58.9,45.4,59.3,45.2z M57.2,46.2c-0.3,0.2-0.7,0.3-1,0.5
			C56.5,46.6,56.8,46.4,57.2,46.2z M55.1,47.3c-0.3,0.2-0.7,0.3-1,0.5C54.4,47.6,54.7,47.4,55.1,47.3z M53,48.2
			c-0.3,0.2-0.7,0.3-1,0.5C52.3,48.5,52.6,48.4,53,48.2z M50.9,49.1c-0.3,0.1-0.7,0.3-1,0.4C50.2,49.4,50.5,49.3,50.9,49.1z
			 M48.8,50c-0.3,0.1-0.7,0.3-1,0.4C48.1,50.3,48.4,50.2,48.8,50z M46.7,50.8c-0.4,0.1-0.7,0.3-1.1,0.4C46,51.1,46.4,51,46.7,50.8z
			 M44.6,51.6c-0.4,0.1-0.7,0.3-1.1,0.4C43.9,51.8,44.3,51.7,44.6,51.6z M42.5,52.3c-0.4,0.1-0.7,0.2-1.1,0.4
			C41.8,52.6,42.2,52.4,42.5,52.3z M40.4,53c-0.4,0.1-0.7,0.2-1.1,0.3C39.7,53.2,40.1,53.1,40.4,53z M38.3,53.6
			c-0.4,0.1-0.7,0.2-1.1,0.3C37.6,53.8,38,53.7,38.3,53.6z M36.2,54.2c-0.4,0.1-0.7,0.2-1.1,0.3C35.5,54.4,35.9,54.3,36.2,54.2z
			 M34.2,54.7c-0.4,0.1-0.8,0.2-1.1,0.3C33.4,54.8,33.8,54.8,34.2,54.7z M32.1,55.1c-0.4,0.1-0.8,0.2-1.2,0.2
			C31.3,55.3,31.7,55.2,32.1,55.1z M30,55.5c-0.4,0.1-0.8,0.1-1.2,0.2C29.2,55.7,29.6,55.6,30,55.5z M28,55.9
			c-0.4,0.1-0.8,0.1-1.2,0.2C27.1,56,27.6,55.9,28,55.9z M25.9,56.2c-0.4,0.1-0.8,0.1-1.2,0.2C25.1,56.3,25.5,56.2,25.9,56.2z
			 M23.8,56.4c-0.4,0-0.8,0.1-1.3,0.1C23,56.5,23.4,56.5,23.8,56.4z M21.8,56.6c-0.4,0-0.9,0.1-1.3,0.1
			C20.9,56.7,21.3,56.6,21.8,56.6z M19.8,56.7c-0.5,0-0.9,0-1.4,0.1C18.9,56.8,19.3,56.8,19.8,56.7z"/>
	</g>
</g>
</svg>
